<?xml version="1.0" encoding="UTF-8"?>
<svg xmlns="http://www.w3.org/2000/svg" version="1.1" viewBox="0 0 841.9 595.3">
  <defs>
    <style>
      .cls-1 {
        fill: #df6a36;
      }

      .cls-2 {
        fill: #47b176;
      }

      .cls-3 {
        fill: #3c6485;
      }

      .cls-4 {
        fill: #389fb0;
      }

      .cls-5 {
        fill: #fff;
      }

      .cls-6 {
        fill: #df6a34;
      }

      .cls-7 {
        fill: #379cd7;
      }

      .cls-8 {
        fill: #ebc031;
      }
    </style>
  </defs>
  <!-- Generator: Adobe Illustrator 28.7.4, SVG Export Plug-In . SVG Version: 1.2.0 Build 166)  -->
  <g>
    <g id="Camada_1">
      <g>
        <g>
          <path class="cls-8" d="M475.4,88l.6.3.2-.6c.1-.4.1-.8,0-1.1l-2.1-6.8c-.2-.5-.5-.8-1-.9-.5,0-.9,0-1.3.5l-4.6,5.4c-.2.3-.4.6-.4,1v.6c0,0,.6,0,.6,0,2.7-.1,5.5.4,8,1.6ZM472.7,80c0,0,.1-.1.2-.1,0,0,0,0,0,0,0,0,.1,0,.1.2l2,6.5c-1.1-.5-2.2-.8-3.3-1-1.1-.2-2.3-.4-3.5-.4l4.4-5.2Z"/>
          <path class="cls-8" d="M469,119.2c-2.7.1-5.5-.4-7.9-1.6l-.5-.2-.2.5c-.2.4-.3.9-.1,1.4l2.1,6.8c.1.5.5.8.9.9,0,0,0,0,0,0,.5,0,.9,0,1.3-.5l4.6-5.4c.3-.3.5-.8.4-1.3v-.5s-.6,0-.6,0ZM468.3,120.4l-4.6,5.4c0,0-.1.1-.2.1,0,0,0,0,0,0,0,0-.1,0-.1-.2l-2.1-6.8s0,0,0,0c2.2,1,4.6,1.5,7,1.5,0,0,0,0,0,0Z"/>
          <path class="cls-8" d="M450,103.8c.2.2.4.3.7.4,0,0,.1,0,.2,0,.1,0,.3,0,.4,0h.6s0-.6,0-.6c0-1.4,0-2.8.3-4.2.3-1.3.7-2.6,1.3-3.8l.3-.5-.6-.2c-.4-.2-.8-.2-1.2,0l-6.8,2.1c-.5.2-.9.5-.9,1,0,.5,0,.9.5,1.3l5.4,4.6ZM445.4,98l6.6-2c-.4,1.1-.8,2.2-1,3.3-.2,1.2-.4,2.4-.4,3.7l-5.3-4.5c0,0-.1-.2-.1-.2,0,0,0-.1.2-.1Z"/>
          <path class="cls-8" d="M485.3,101.5h-.6s0,.6,0,.6c0,1.3,0,2.7-.3,4-.3,1.4-.7,2.7-1.4,4l-.3.5.5.2c0,0,.1,0,.2,0,0,0,.1,0,.2,0,.3,0,.6,0,.9,0l6.8-2.1c.5-.2.9-.5.9-1,0-.5,0-.9-.5-1.3l-5.4-4.6c-.3-.3-.7-.4-1.1-.4ZM491.2,107.6c0,0,0,.1-.2.1l-6.7,2.1c.5-1.1.9-2.3,1.1-3.5.2-1.1.4-2.3.4-3.4l5.3,4.5c0,0,.1.2.1.2Z"/>
          <path class="cls-8" d="M455.2,91.7l.4.5.4-.5c1.8-2,4.2-3.6,6.8-4.5l.6-.2-.3-.6c-.2-.4-.5-.6-.8-.8l-6.3-3.3c-.5-.2-1-.2-1.4,0-.4.3-.6.7-.5,1.2l.6,7.1c0,.4.2.8.5,1.1ZM455.3,83.3s0,0,.1,0c0,0,0,0,.1,0l6.1,3.2c-2.2.9-4.1,2.2-5.8,3.9l-.6-6.9c0-.1,0-.2,0-.2Z"/>
          <path class="cls-8" d="M480.7,123.5s0,0,.1,0c.3,0,.7,0,.9-.2.4-.3.6-.7.6-1.2l-.6-7.1c0-.4-.2-.9-.6-1.2l-.4-.4-.4.4c-1.8,2-4.2,3.5-6.8,4.4l-.5.2.2.5c.2.5.5.8.9,1.1l6.3,3.3c0,0,.2,0,.3.1ZM474.6,119.1c2.2-.9,4.3-2.2,6-3.9l.6,7c0,.1,0,.2,0,.2,0,0-.1,0-.2,0l-6.3-3.3s0,0,0,0Z"/>
          <path class="cls-8" d="M452.5,107.7l-.5.2c-.4.2-.8.5-1,.9l-3.3,6.3c-.2.5-.2,1,0,1.4.2.2.4.4.7.5,0,0,0,0,.1,0h0c.1,0,.3,0,.4,0l7.1-.6c.5,0,.9-.3,1.2-.6l.4-.4-.4-.4c-2-1.8-3.6-4.2-4.5-6.7l-.2-.5ZM455.9,115.3l-7.1.6c-.1,0-.2,0-.2,0,0,0,0-.1,0-.2l3.3-6.2c.9,2.2,2.3,4.3,4,6,0,0,0,0,0,0Z"/>
          <path class="cls-8" d="M483.8,97.5l.2.6.6-.3c.4-.2.7-.5.9-.8l3.3-6.3c.2-.5.2-1,0-1.4-.3-.4-.7-.6-1.2-.6l-7.1.6c-.4,0-.7.2-1,.4l-.5.4.5.4c2,1.9,3.6,4.2,4.4,6.8ZM487.6,89.9c.1,0,.2,0,.2,0,0,0,0,.1,0,.2l-3.2,6.1c-.9-2.2-2.2-4.2-3.8-5.8l6.8-.6Z"/>
          <path class="cls-8" d="M470.9,90.4c-3.3-.7-6.6,0-9.4,1.8-2.8,1.8-4.7,4.7-5.4,8-.2.9-.3,1.9-.3,2.8v.4s.4.1.4.1c.4.1.7.2,1.1.4.6.2,1.3.3,1.9.5,7.6,1.6,15.5-.9,20.5-6.5l.2-.3-.2-.3c-1.7-3.6-4.9-6.1-8.8-6.9ZM456.8,102.6c0-.7,0-1.5.2-2.2,1.3-6.2,7.4-10.2,13.6-8.9,3.4.7,6.3,2.9,7.9,5.9-5.4,5.8-13.8,7.8-21.7,5.2Z"/>
          <path class="cls-8" d="M480.9,94.4c-2.2-3.4-5.6-5.7-9.6-6.5-4-.8-8,0-11.4,2.2-3.4,2.2-5.7,5.6-6.5,9.6-1.6,7.8,3.1,15.4,10.5,17.6.4.1.8.2,1.3.3,4,.8,8,0,11.4-2.2,3.4-2.2,5.7-5.6,6.5-9.6.8-4,0-8-2.2-11.4ZM482,105.6c-.8,3.7-2.9,6.8-6,8.9-3.1,2.1-6.9,2.8-10.6,2-3.7-.8-6.8-2.9-8.9-6-2.1-3.1-2.8-6.9-2-10.6.8-3.7,2.9-6.8,6-8.9,3.1-2.1,6.9-2.8,10.6-2,7.6,1.6,12.5,9,10.9,16.6Z"/>
        </g>
        <g>
          <path class="cls-6" d="M446.8,329.1c-1.3,0-7.6.3-9.9,1.4,0,0-.1,0-.2.1-.2.2-1.2,1.1-2,2.3-.4.7-.7,1.3-.9,1.9-.3,1.3,1.2,2.3,1.9,2.7l5.9,3.5s.4.3,1,.3.2,0,.3,0c.8-.1,1.6-.7,2.3-1.8l5.6-8.5h0c0,0-.2-.2-.2-.2l.2.2h0c.2-.3.2-.7,0-1-.3-.5-1-1-4.2-.9ZM449.7,330.6l-5.5,8.3c-.6,1-1.1,1.2-1.4,1.3-.1,0-.3,0-.4,0l-5.7-3.4-.3-.2c-.5-.3-1.5-.9-1.4-1.4,0-.4.3-.9.7-1.5.6-.9,1.4-1.8,1.7-2,1.6-.7,6-1.1,9.3-1.2,1.3,0,2.3,0,2.9.2Z"/>
          <path class="cls-6" d="M440.9,342.1l-6.6-4.3c-.4-.3-.9-.3-1.4-.2-.6.1-1.2.5-1.5,1.1l-7.8,11.9c-.3.5-.5,1.1-.4,1.7,0,.6.4,1.1.8,1.4l6.6,4.3c.3.2.6.3,1,.3.7,0,1.5-.4,1.9-1.1l7.8-11.9c.7-1.1.5-2.4-.4-3ZM440.5,343.7c0,.2,0,.5-.2.7l-7.8,11.9c-.3.4-.8.7-1.1.5l-6.6-4.3c-.3-.2-.3-.8,0-1.2l7.8-11.9c.2-.3.4-.5.7-.5,0,0,0,0,.1,0,0,0,.2,0,.3,0l6.6,4.3c.1,0,.2.3.2.5Z"/>
          <path class="cls-6" d="M420.5,373.3l-6.6-4.3c-.4-.3-.9-.3-1.4-.2-.6.1-1.2.5-1.5,1.1l-7.1,10.8c-.4.6-.5,1.2-.4,1.9.1.5.4.9.7,1.1l6,5.4c.3.2.6.3,1,.3s.4,0,.6,0c.5-.2,1-.5,1.4-1l7.8-11.9c.7-1.1.5-2.4-.4-3ZM405,381.3l7.1-10.8c.2-.2.4-.4.6-.5.2,0,.4,0,.5,0l6.6,4.3c.1,0,.2.3.2.5,0,.2,0,.5-.2.7l-7.8,11.9c-.3.5-.8.7-1,.5l-6-5.4c-.3-.2-.3-.8,0-1.2h0Z"/>
          <path class="cls-6" d="M429.7,359.3l-6.6-4.3c-.9-.6-2.1-.3-2.7.5l-6.1,9.3c-.3.4-.4,1-.3,1.5.1.5.4,1,.9,1.2l6.6,4.3c.3.2.7.3,1.1.3.6,0,1.3-.3,1.6-.9l6.1-9.4c.3-.4.4-.9.3-1.5-.1-.5-.4-1-.9-1.3ZM429.2,361.3l-6.1,9.4c0,.1-.2.2-.4.3-.2,0-.4,0-.5-.1l-6.6-4.3c-.2-.1-.3-.3-.3-.4,0-.2,0-.3,0-.5l6.1-9.4c0-.1.2-.2.4-.3,0,0,0,0,.1,0,.1,0,.3,0,.4.1l6.6,4.3c.3.2.4.6.2.9Z"/>
          <path class="cls-6" d="M450,338.2c-.9-.6-2.1-.3-2.7.6l-1.4,2.2c-.6.9-.3,2.1.6,2.7.3.2.7.3,1,.3s.3,0,.4,0c.5-.1.9-.4,1.2-.8l1.4-2.2c.6-.9.3-2.1-.6-2.7ZM449.5,340.2l-1.4,2.2c0,.1-.2.2-.4.3-.2,0-.3,0-.5,0-.1,0-.2-.2-.3-.4,0-.2,0-.3,0-.5l1.4-2.2c.1-.2.3-.3.5-.3s.2,0,.3.1c.3.2.4.6.2.9Z"/>
          <path class="cls-6" d="M445.3,345.5c-.9-.6-2.1-.3-2.7.6l-1.4,2.2c-.3.4-.4.9-.3,1.4.1.5.4.9.8,1.2.3.2.7.3,1.1.3s.3,0,.4,0c.5-.1.9-.4,1.2-.8l1.4-2.2c.6-.9.3-2.1-.6-2.7ZM444.8,347.4l-1.4,2.2c0,.1-.2.2-.4.3-.2,0-.3,0-.5,0s-.2-.2-.3-.4c0-.2,0-.3,0-.5l1.4-2.2c0-.1.2-.2.4-.3,0,0,0,0,.1,0,.1,0,.2,0,.3.1.1,0,.2.2.3.4,0,.2,0,.3,0,.5Z"/>
          <path class="cls-6" d="M460.5,325.9l3.2,2.1c.1,0,.2.1.3.1s.3,0,.5-.2c.1-.1.5-.5.9-1h0c.4-.6.5-1.1.4-1.5,0-.3-.3-.5-.5-.7-.3-.3-1.5-1.3-2.9-1.1-.8,0-1.5.6-2.1,1.4,0,.1-.1.3,0,.5,0,.2.1.3.3.4ZM461.8,325.3c.2-.2.5-.3.7-.4.9-.1,1.8.7,1.8.7h0s0,0,0,0c0,0,0,0,0,0,0,0,0,.2-.2.5,0,.1-.2.3-.3.4l-2.1-1.4Z"/>
          <path class="cls-6" d="M419.2,393.8l-2.9-1.9c-.9-.6-2.1-.3-2.7.6-.6.9-.3,2.1.6,2.7l2.9,1.9c.3.2.7.3,1,.3.6,0,1.2-.3,1.6-.9h0c.6-.9.3-2.1-.6-2.7ZM418.7,395.8c0,.1-.2.2-.4.3-.2,0-.3,0-.5,0l-2.9-1.9c-.3-.2-.4-.6-.2-.9,0-.1.2-.2.4-.3,0,0,0,0,.1,0,.1,0,.2,0,.3.1l2.9,1.9c.3.2.4.6.2.9Z"/>
          <path class="cls-6" d="M470.2,331.2c-.2-.2-.5-.3-.7-.4.2,0,.4,0,.5-.3,0,0,0,0,.2-.2.4-.7,1.1-2,.8-3.1-.2-.6-.5-1-1.1-1.2-1.1-.8-6.6-4.9-9.1-3.8-2.7,1.2-8,3.4-8.8,3.6-2.3.3-13.9,1.9-17.3,2.7-.4,0-.8.2-1.3.3-3.1.6-6.6,1.3-10.5,7.1-1.1,1.7-2.5,3.8-4.2,6.3-8.1,12.4-21.1,32.4-21.6,33.3,0,0-3.2,4.9,1.4,9,.1.1,12.6,12.1,23.8,17.9,0,0,.2,0,.3,0,.2,0,.4,0,.5-.2l4.3-5.4h0c.2-.3.1-.6,0-.8.1,0,.2.2.4.3,1.1.7,2.3,1,3.5,1s.9,0,1.3-.1c1.7-.4,3.1-1.3,4-2.8,1.9-3,1.1-6.9-1.9-8.9-3-1.9-6.9-1.1-8.9,1.8-1.4,2.1-1.4,4.6-.2,6.6-.1-.2-.3-.5-.4-.7-1-2-.9-4,.3-5.8,0,0,.1-.2.2-.3h0c0-.1,0-.2,0-.2.5-.8,3.3-4.6,8.5-1.8.3.2.7,0,.8-.2l27.6-42.1c.2-.3.1-.6,0-.8,0,0-4.6-4.8-1.8-8.3,0,0,0,0,0-.1h0s1-2.2,3.7-3c-1.3.4-2.5,1.3-3.3,2.5-1.9,3-1.1,6.9,1.8,8.9,1.1.7,2.3,1,3.5,1,2.1,0,4.1-1,5.4-2.9,1.9-3,1.1-6.9-1.9-8.9ZM469.5,332.3c2.4,1.5,3,4.7,1.5,7.1-1.5,2.4-4.7,3-7.1,1.5-2.4-1.5-3-4.7-1.5-7.1,1-1.5,2.6-2.3,4.3-2.3s1.9.3,2.8.8ZM461.4,342.4l-27,41.2c-2.1-1-4.1-1.2-5.9-.5-2.6.9-3.8,3.2-3.8,3.2-3.3,4.6,0,8.7,1.4,10.1l-3.6,4.5c-10.8-5.7-22.5-16.9-23-17.4-3.7-3.3-1.3-7.2-1.2-7.3h0c2.3-3.6,14-21.8,21.5-33.2,1.6-2.5,3-4.6,4.2-6.3,3.6-5.4,6.8-6,9.7-6.5.4,0,.9-.2,1.3-.3,2.9-.6,11.8-1.9,16.9-2.6h.4c1-.3,6.5-2.7,8.9-3.7h.1c.2-.1.3-.1.5-.1,1.7,0,5.3,2.2,7.3,3.8,0,0,0,0,.1,0,.2.1.4.3.4.5.2.6-.3,1.4-.5,1.8-5.5-1.5-8.2,1.5-9.1,2.9-.2.3-.3.6-.3.6-2.9,3.7.6,8.3,1.6,9.6ZM426.9,388c1.5-2.4,4.7-3,7.1-1.5,1.1.7,1.9,1.9,2.2,3.2.3,1.3,0,2.7-.7,3.8-.7,1.1-1.9,1.9-3.2,2.2-1.3.3-2.7,0-3.8-.7-1.1-.7-1.9-1.9-2.2-3.2-.3-1.3,0-2.7.7-3.8Z"/>
          <path class="cls-6" d="M464.5,339.9c.7.4,1.4.6,2.2.6,1.3,0,2.6-.6,3.3-1.8,1.2-1.8.7-4.3-1.2-5.5-1.8-1.2-4.3-.7-5.5,1.1-1.2,1.8-.7,4.3,1.1,5.5ZM464.5,335.1c.4-.6,1-1,1.7-1.2.2,0,.4,0,.6,0,.5,0,1,.1,1.5.4,1.2.8,1.6,2.5.8,3.7-.8,1.2-2.5,1.6-3.7.8-1.2-.8-1.6-2.5-.8-3.7Z"/>
          <path class="cls-6" d="M429,394.1c.7.4,1.4.6,2.2.6s.5,0,.8,0c1-.2,1.9-.8,2.5-1.7.6-.9.8-1.9.6-3s-.8-1.9-1.7-2.5c-1.8-1.2-4.3-.7-5.5,1.1-1.2,1.8-.7,4.3,1.1,5.5ZM429,389.3h0c.4-.6,1-1,1.7-1.2.2,0,.4,0,.6,0,.5,0,1,.1,1.5.4.6.4,1,1,1.2,1.7.1.7,0,1.4-.4,2-.4.6-1,1-1.7,1.2-.7.1-1.4,0-2-.4-1.2-.8-1.6-2.5-.8-3.7Z"/>
        </g>
        <g>
          <rect class="cls-6" x="416.3" y="190.8" width="1.7" height="8.5" transform="translate(-32.1 296.4) rotate(-37.8)"/>
          <rect class="cls-6" x="444.5" y="197.6" width="10.2" height="1.7" transform="translate(-23 333.3) rotate(-39.7)"/>
          <rect class="cls-6" x="421" y="188.7" width="1.7" height="3.6" transform="translate(-40.7 206.2) rotate(-26.3)"/>
          <rect class="cls-6" x="443.4" y="191.9" width="4.6" height="1.7" transform="translate(23.3 432.2) rotate(-52.9)"/>
          <rect class="cls-6" x="433.1" y="192.3" width="10.8" height="1.7" transform="translate(127.8 557.9) rotate(-73.3)"/>
          <path class="cls-6" d="M439.2,213.3c1.5-1.5,3.6-3.5,4.4-6,1.3-4.4.4-11.5-.6-13-.3-.4-.6-.5-.9-.6-.5,0-1,.1-1.4.4-1,.8-1.1,2.6-1.3,4.9,0,1.4-.2,2.9-.5,4.3-.2.7-.4,1.3-.7,1.8h0s0,.2,0,.2c-1.2,2.3-3.3,3.4-6.3,3.1-3-.3-4.8-1.6-5.4-4.1v-.2s0,0,0,0c-.1-.6-.2-1.2-.3-1.9,0-1.4,0-2.9.2-4.2.2-2.3.4-4.1-.4-5.1-.3-.4-.8-.6-1.3-.7-.6,0-1,.4-1.1.5-1.3,1.6-3.9,8.3-2.8,12.7.8,3.3,2.3,5.3,3.3,6.8.4.5.7,1,.9,1.4.6,1.1,1.1,3.1.5,6.2-.3,1.5-.5,2.4-.8,3.5-.2,1-.5,2.1-.9,4,0,.3-1.7,7.7,0,10,.4.5.9.7,1.2.7,2.2.2,2.6-1.8,3.4-5.2.1-.6.3-1.2.4-1.9.5-1.9,1-3.5,1.5-4.7.3,1.2.5,2.9.7,4.9,0,.7,0,1.4.1,1.9.2,3.5.3,5.6,2.5,5.8,0,0,0,0,.1,0,.3,0,.8,0,1.2-.5,2-1.9,1.8-9.5,1.8-9.8,0-1.8-.1-3-.2-3.9v-.2c0-1.1,0-2-.1-3.5,0-2.7.4-4.6,1.5-6,.3-.4.8-.9,1.4-1.4ZM434.6,220.7c0,1.5,0,2.4.1,3.5,0,1,0,2.2.2,4.2.1,3.9-.4,7.8-1.3,8.6-.7,0-.8-1.2-.9-4.2,0-.6,0-1.2-.1-1.9-.3-4.5-1.2-7.2-1.3-7.5l-.6-1.7-.9,1.6c-.2.3-1.5,2.8-2.6,7.1-.2.6-.3,1.2-.4,1.7v.2c-.7,2.9-1,4-1.7,3.9-.7-.9-.5-4.9.3-8.7.4-1.9.7-3.1.9-4.1.2-1.1.4-2,.8-3.4.7-3.5,0-5.9-.6-7.2-.3-.5-.6-1-1.1-1.6-1-1.3-2.3-3.1-3-6.2-.9-3.8,1.5-9.9,2.4-11.1.4.5.2,2.4,0,3.9-.1,1.4-.3,3-.2,4.5,0,.8.2,1.5.3,2.2,0,1.3,1.4,4.2,1.8,5l.2.3,1.4-.7c1,.5,2.1.8,3.5,1,1.6.1,3,0,4.3-.5l-.2.3,1.4.9.2-.3c.6-1,2.1-3.3,2.3-4.5.3-.6.6-1.4.8-2.1.4-1.5.5-3.1.6-4.6.1-1.5.2-3.3.7-3.7.5,1.3,1.4,7.4.2,11.4-.6,2.1-2.5,3.9-4,5.3-.6.6-1.1,1.1-1.5,1.5-1.4,1.7-2,4-1.9,7.1Z"/>
          <path class="cls-6" d="M432,207.8c.2,0,.3,0,.5,0,1.2,0,2.3-.4,3.2-1.2,1-.9,1.7-2.1,1.8-3.4.1-1.3-.3-2.6-1.2-3.7-.9-1-2.1-1.7-3.4-1.8-1.3-.1-2.6.3-3.7,1.2-1,.9-1.7,2.1-1.8,3.4-.2,2.8,1.8,5.2,4.6,5.4ZM432.4,199.5c0,0,.2,0,.3,0,.9,0,1.7.5,2.3,1.2s.9,1.6.8,2.5c-.2,1.8-1.8,3.2-3.6,3.1-.9,0-1.7-.5-2.3-1.2-.6-.7-.9-1.6-.8-2.5.2-1.7,1.6-3.1,3.3-3.1Z"/>
          <rect class="cls-6" x="428" y="186.9" width="1.7" height="10.7" transform="translate(-7.8 18.4) rotate(-2.4)"/>
          <path class="cls-6" d="M436.4,170.7c-.1,0-.2,0-.3,0,0,0,0,0,0,0,0,0,0,0-.2,0,0,0,0,0,0,0,0,0,0,0,0,0-11.9-1-22,7.6-23.1,19.6v1.7c-.1,0,1.3-.9,1.3-.9,0,0,9.5-5.9,20.4-5,11,1,19.9,8.5,19.9,8.6l1.2,1.1v-1.6c.7-5.7-1.1-11.3-4.9-15.8-3.5-4.1-8.3-6.7-13.6-7.5-.2,0-.4,0-.6,0ZM426.1,173.7c-2.9,2.3-5.1,5.8-6,10.1v.4c0,0,1.5.4,1.5.4v-.4c1.4-5.9,5.6-10.4,10.4-11.6-1.9,2-3.4,5.6-4.1,9.9v.4c0,0,1.6.3,1.6.3v-.4c1-5.9,3.6-10.5,6.1-10.5s0,0,0,0c.1,0,.3,0,.4,0,2.4.5,4.2,5.4,4.1,11.3v.4s1.6,0,1.6,0v-.4c0-4.2-.7-7.8-2.1-10.2,4.3,2.2,7.3,7.1,7.5,12.9v.4s1.7,0,1.7,0v-.4c-.2-4.3-1.7-8.1-4.1-10.9,5.6,3.6,9.3,9.9,9.2,16.9-2.9-2.1-10.5-7.2-19.6-8-9-.8-16.9,2.8-20,4.4,1.2-7,5.6-12.5,11.6-15.1Z"/>
        </g>
        <g>
          <path class="cls-6" d="M511.8,135.5c.9.9,1.7,1.8,2.3,2.8.9,1.5,1.1,2.4,1.3,3.5.3,1.1.5,2.4,1.5,4.3,1.9,3.6,3.1,5.2,5.1,8,.6.8,1.1,1.6,1.6,2.5,1.5,2.5,2.8,4.6,4.7,4.1,0,0,.1,0,.2,0,.4-.1.7-.4.9-.8.7-1.7-1-5.9-2.4-8.2-1.3-2.1-2.2-3.8-2.3-4.1,0-.5,2-1.9,4.8-2.6.9-.2,1.9-.3,2.9-.4,1.9-.2,3.8-.3,4.9-1.8.7-.8.4-1.5.2-1.8-1-1.7-5.9-1.6-7.5-1.4-1.9.3-4,1-5.1,1.4-.5-2-.9-4.8-.7-5.6,0-.2.5-.7.8-1.1,1.2-1.6,3.3-4.2,3.5-7.9.2-4.2,0-9.3-2.2-9.5-1.7-.1-2,2.2-2.4,5.2-.1,1-.2,2-.4,3-.6,3.3-1.6,5.6-5,6.4-2.8.7-4.8-.9-6.4-4.9-.2-.6-.4-1.2-.7-1.8-1.2-3.3-2.2-6.1-4.3-5.7-.3,0-.7.3-1,.8-1,2,.7,7.8,1.5,9.7,1.1,2.6,2.7,4.4,4.1,5.9ZM507.6,120.5c.7-.2,1.9,2.9,2.5,4.7.2.6.4,1.2.7,1.8,1.8,4.7,4.6,6.7,8.2,5.8,4.5-1,5.6-4.3,6.2-7.6.2-1,.3-2.1.4-3.1.2-1.4.4-3.3.8-3.8.5.5,1,3.2.8,7.9-.2,3.2-2,5.5-3.2,7-.5.7-.9,1.2-1.1,1.6-.4,1.4.3,5.4.9,7.3l.3.8.8-.3s3-1.3,5.5-1.7c2.4-.4,5.6,0,6,.5,0,0,0,0,0,.2-.8,1-2.2,1.1-3.9,1.2-1,0-2.1.2-3.1.5-1.7.4-4,1.4-5.2,2.6h0s-1.4.6-1.4.6l.7,1.5c.4,1,1.8,3.3,2.4,4.3,1.8,2.9,2.7,6.3,2.4,6.8-.8.2-2-1.8-3.1-3.5-.5-.8-1.1-1.7-1.7-2.6-2-2.8-3.1-4.3-4.9-7.8-.9-1.7-1.2-2.8-1.4-3.9-.3-1.2-.5-2.3-1.5-3.9-.7-1.1-1.5-2-2.4-3-1.4-1.5-2.9-3.1-3.8-5.5-1.3-3.2-2.1-7.9-1.6-8.5Z"/>
          <path class="cls-6" d="M518.8,130.8c.2,0,.3,0,.5-.1,2.1-.7,3.4-3,2.9-5.3-.6-2.4-3-4-5.4-3.5-1.2.3-2.2,1-2.8,2-.6,1-.8,2.2-.6,3.4.6,2.5,3,4,5.4,3.5ZM515.3,124.8c.4-.6.9-1,1.5-1.2.1,0,.2,0,.3,0,1.6-.4,3.2.7,3.5,2.3.4,1.6-.6,3.2-2.2,3.6-1.6.4-3.2-.7-3.5-2.3-.2-.8,0-1.6.4-2.3Z"/>
        </g>
        <g>
          <g>
            <path class="cls-2" d="M364.1,197.8h16.7c.5,0,.8-.4.8-.8,0-.5-.4-.8-.8-.8h-16.7c-.7,0-1.5.4-2,.9l-1.2,1.4c-.3.4-.4.8-.3,1.3.1.4.4.8.9,1l12.2,4.6c0,0,.2,0,.2,0,.4,0,.7-.2.8-.5.2-.4,0-.9-.5-1.1l-11.8-4.5,1-1.1c.1-.2.5-.3.7-.3Z"/>
            <path class="cls-2" d="M381,216.4l2.9-3.4c.5-.5,1-.7,1.7-.6.2,0,.4,0,.5,0l11.7,9.6c.7.6,1.8.5,2.3-.2l1.2-1.4c.5-.6.7-1.6.3-2.3l-7.7-16.6,7.4-8.7c2.3-2.7,3.1-5.8,1.8-7.3,0,0-.3-.3-.5-.5-.4-.3-.9-.4-1.7-.5-2.5-.2-7.5.9-9.3,2.9l-16.4,18.9c-.5.5-3.5,4.1-5.9,7.4l-8.3.5c-.7,0-1.5.4-1.9,1l-1.2,1.4c-.3.4-.4.8-.3,1.3.1.4.4.8.9,1l6.1,2.6c-.1.4-.2.7,0,1.1.4.7,1.3,1.2,2.4,1.3.3,0,.5,0,.5,0,5.2-.3,12.4-6.4,13.5-7.7ZM367.4,222.4s-.1,0-.3,0c-.4,0-.7-.1-.9-.2,0,0,.1-.2.2-.3l.7-.9-7.7-3.2,1-1.2c.2-.2.6-.4.8-.4l9.1-.6.2-.3c2.4-3.3,5.5-7,6-7.6l16.3-18.9c1.2-1.4,5.6-2.5,7.9-2.4.6,0,.8.2.8.2h0c0,0,.1.2.2.2.6.6.1,2.9-1.8,5.1l-8.1,9.5,8.1,17.6c0,.1,0,.4,0,.5l-1.3,1.4-11.8-9.7h-.2c-.3-.2-2.2-1-4.1.8l-3,3.4c-.9,1-7.6,6.8-12.3,7.1Z"/>
          </g>
          <path class="cls-2" d="M396.1,191.9c0,0,.2,0,.3,0,1.1-.2,2.5-2,3.3-3.1.3-.4.2-.9-.2-1.2-.4-.3-.9-.2-1.2.2-.8,1.1-1.7,2.1-2.2,2.4-.3,0-.7,0-.9.3-.3.4-.2.9.2,1.2.2.1.4.2.6.2Z"/>
        </g>
        <g>
          <path class="cls-2" d="M546.1,189.6c-.1-.7-.2-1.2.1-2.1.1-.4,0-.8-.4-.9s-.8,0-.9.4c-.5,1.3-.3,2.1-.2,2.9.1.7.2,1.2-.1,2.1-.3.9-.7,1.2-1.2,1.6-.6-3.5-3.1-5.8-3.2-5.9-.2-.2-.4-.2-.7-.2-.2,0-.4.2-.5.5l-5,13.8-1.4-.5,4.5-12.4c0-.2,0-.5-.1-.7-.2-.2-.4-.3-.6-.3l-27.4,2.4c-.4,0-.7.4-.7.8,0,.4.3.7.7.7,16.7-.2,19.7,15.7,19.8,15.9,0,.3.3.6.7.6.3,0,.6-.2.8-.5l1.9-5.2,1.4.5-5,13.8c0,.3,0,.6.2.8l2.2,2.4c.2.3.6.3.9.1l3.2-1.9c0,.2,0,.4-.2.6-.3.9-.8,1.3-1.3,1.7-.6.5-1.3,1-1.7,2.3-.1.4,0,.8.4.9.4.1.8,0,.9-.4.3-.9.8-1.3,1.3-1.7.6-.5,1.3-1,1.7-2.3.5-1.3.3-2.2.2-2.9-.1-.7-.2-1.2.1-2.1.3-.9.8-1.2,1.3-1.7.6-.5,1.3-1,1.7-2.3.5-1.3.3-2.1.2-2.9-.1-.7-.2-1.2.1-2.1.3-.9.8-1.2,1.3-1.7.6-.5,1.3-1,1.7-2.3.5-1.3.3-2.1.2-2.9-.1-.7-.2-1.2.1-2.1s.8-1.2,1.3-1.7c.6-.5,1.3-1,1.7-2.3.5-1.3.3-2.1.2-2.9ZM529.6,205.2c-1.3-3.8-4.9-11.4-13.8-14l19.5-1.7-5.8,15.7ZM541.6,196c-.5,1.3-.3,2.1-.2,2.9.1.7.2,1.2-.1,2.1-.3.9-.8,1.2-1.3,1.7-.6.5-1.3,1-1.7,2.3-.5,1.3-.3,2.1-.2,2.9.1.7.2,1.2-.1,2.1-.3.9-.8,1.2-1.3,1.7-.6.5-1.3,1-1.7,2.3-.5,1.2-.3,2-.2,2.7l-3.3,2-1.5-1.6,10-27.3c.8,1,2,2.9,2,5.2,0,0,0,0,0,.1-.2.3-.3.6-.5,1Z"/>
          <path class="cls-2" d="M527.5,208.8c-.4-.1-.8,0-.9.4l-.4,1-12.2-11.1,10.9,4c.4.1.8,0,.9-.4h0c.1-.4,0-.8-.4-.9l-14.5-5.3c-.3-.1-.7,0-.9.3-.2.3-.1.7.1.9l15.8,14.4c.2.2.4.2.7.2.2,0,.4-.2.5-.5l.8-2.1c.1-.4,0-.8-.4-.9Z"/>
          <path class="cls-2" d="M504.6,192.6l17.2,6.3c.4.1.8,0,.9-.4.1-.4,0-.8-.4-.9l-17.2-6.3c-.4-.1-.8,0-.9.4-.1.4,0,.8.4.9Z"/>
        </g>
        <g>
          <path class="cls-4" d="M466.1,140c0-1-.8-1.7-.9-1.7-.3-.2-.6-.1-.8.1-.2.3-.2.6.1.8,0,0,.5.4.5.9,0,.4-.2.8-.7,1.2-1.8,1.6-1,3.6-.3,4.4.1.1.3.2.4.2.2,0,.3,0,.4-.1.2-.2.3-.6,0-.8,0,0-.3-.4-.5-.9-.2-.7,0-1.3.6-1.8.7-.7,1.1-1.4,1.1-2.1Z"/>
          <path class="cls-4" d="M470.2,141.9c0-.8-.6-1.3-.7-1.3-.3-.2-.6-.1-.8.1-.2.3-.1.6.1.8,0,0,.2.2.2.4,0,.2-.2.5-.4.7-.7.6-1,1.4-.7,2.2.2.6.5,1,.5,1,.1.1.3.2.4.2.1,0,.3,0,.4-.1.2-.2.3-.6,0-.8-.2-.2-.7-.9,0-1.6.6-.5.8-1,.8-1.6Z"/>
          <path class="cls-4" d="M464.2,154.4c-1.9-.7-3.5-2.2-4.2-4.1-.1-.3-.5-.4-.8-.3-.3.1-.4.5-.3.8.9,2.2,2.7,3.9,4.9,4.8,0,0,.1,0,.2,0,.3,0,.5-.1.6-.4.1-.3,0-.6-.4-.8Z"/>
          <path class="cls-4" d="M478.4,148.4c0-.3-.2-.6-.6-.6l-22.4-1.4c-.3,0-.6.2-.6.6,0,.8,0,1.6,0,2.4l-2.6-.2c-1,0-1.8.7-1.9,1.7v1.8c-.1.3.1.6.4.6s.6-.2.6-.6v-1.8c.1-.3.4-.6.7-.6l2.9.2c.7,3,2.7,5.6,5.3,7.2l-4.6,10.9c-.1.3,0,.6.3.8,0,0,.1,0,.2,0,.2,0,.5-.1.6-.4l.8-1.9,11.8.7c.2,1.4,1.3,2.4,2.7,2.5,1.6.1,3-1.1,3.1-2.8.1-1.6-1.1-3-2.8-3.1,0,0,0,0-.1,0l-1.3-6.1c4-1.7,6.9-5.5,7.1-10.1ZM472.5,165.8c1,0,1.7.9,1.7,1.9s-.9,1.7-1.9,1.7-1.7-.9-1.7-1.9c0-1,.9-1.7,1.9-1.7ZM471.3,164.8c-.8.3-1.5,1.1-1.7,1.9l-11.4-.7,3.2-7.8c1.3.6,2.8,1.1,4.4,1.2,1.5,0,2.9-.1,4.3-.5l1.2,5.9ZM465.9,158.3c-5.6-.4-10-5.1-9.9-10.7l21.2,1.3c-.7,5.5-5.6,9.7-11.2,9.3Z"/>
        </g>
        <g>
          <path class="cls-2" d="M512,166.7c-.2-.3-.6-.3-.9-.1l-19.9,14.9c-.3.2-.3.6-.1.9.2.2.5.3.7.2,0,0,.1,0,.2,0l19.9-14.9c.3-.2.3-.6.1-.9Z"/>
          <path class="cls-2" d="M499.3,174.3c0,0,.1,0,.2,0,.3,0,.4-.4.4-.6,0-.3-.3-.6-.7-.6l-6.5.5c-.3,0-.6.3-.6.7,0,.3.3.6.7.6l6.5-.5Z"/>
          <path class="cls-2" d="M517.7,172.8c.3,0,.4-.4.4-.6,0-.3-.3-.6-.7-.6l-10.6.9c-.3,0-.6.3-.6.7,0,.3.3.6.7.6l10.6-.9c0,0,.1,0,.2,0Z"/>
          <path class="cls-2" d="M491.6,146.5c-.2,0-.4.2-.5.3,0,.2,0,.4,0,.6,0,.1.2.3.3.4.7,1,1.8,2.7,1,6.7-.5,2.1-.4,3.8-.2,5.1-1.2-1-2.6-1.3-3.7-1-.2,0-.4.3-.4.5,0,.2,0,.5.3.6,1.1.7,1.1,1.6.9,3.4-.2,1.8-.4,4.2,1.8,6.3,3.1,3.1,7.2,2.3,8.8,1.9,0,0,0,0,0,0,0,0,0,0,0,0,.3-.1.5-.6.3-.9-.1-.3-.4-.5-.7-.5-.3,0-1.8-.2-2.7-1.8-.3-.5-.6-.9-.9-1.2.8,0,1.7,0,2.1.3.2,0,.4,0,.6,0,.2-.1.3-.3.3-.5,0-.4-.2-.8-.3-1.3-.3-.7-.6-1.5-.5-2.3,0-.5.2-.9.5-1.3.2.5.6,1.2,1.2,2,.2.2.6.8,1.6.9.2,0,.4,0,.6-.2.2-.2.3-.4.4-.5.1-.1.2-.3.3-.4.7,1.3,1.5,3,.6,4.5-.1.3,0,.6.1.8.2.2.5.2.8,0,3.5-2.3,6.7-6.8,1.9-14.6-1.6-2.6-2.7-3.4-3.8-4.3-.2-.2-.4-.3-.6-.5-.2-.2-.6-.2-.8,0-.2.2-.3.5-.2.8,0,0,.9,1.8.8,4.1-.3-.7-.7-1.5-1.4-2.5-3.6-5.8-8.1-5.4-8.7-5.3ZM493.8,161.1c-.3-1.1-.9-3.1-.2-6.3.8-3.8,0-5.8-.8-7,1.5.2,4.1,1.1,6.3,4.7,1.5,2.4,1.7,3.4,1.9,4.3,0,.1,0,.3,0,.4,0,.3.3.5.6.5.3,0,.5-.2.6-.4.7-2.1.5-4,.2-5.4.8.7,1.5,1.5,2.6,3.2,3,5,3,8.9-.1,11.8,0-1.4-.7-2.8-1.2-3.8-.2-.4-.3-.7-.4-1,0-.3-.3-.4-.6-.4-.3,0-.5.2-.6.4-.1.5-.4.7-.7,1.1,0,0-.1.2-.2.2-.3-.1-.4-.3-.5-.4-1.1-1.4-1.2-2.5-1.2-2.5,0-.2-.2-.4-.4-.5-.2,0-.5,0-.7,0,0,0-1.5,1.2-1.6,3,0,1.1.3,2.1.6,2.8-1-.1-2.3-.1-3.2.3-.2.1-.3.3-.3.5,0,.2.1.4.3.6h.1c.4.3,1,.6,1.5,1.5.4.7.9,1.2,1.4,1.6-1.7.1-3.7-.2-5.4-1.9-1.8-1.8-1.6-3.6-1.4-5.3.1-1.1.2-2.3-.3-3.3.9.3,1.8,1,2.5,2.4.1.2.4.4.6.3.3,0,.5-.2.5-.4,0-.3,0-.6-.1-1.1Z"/>
        </g>
        <path class="cls-3" d="M319.9,176.6c.3,0,.6-.4.6-.7,0-.4-.2-.7-.5-.8-2.6-.9-5-2.5-6.8-4.6-5.6-6.6-4.8-16.5,1.8-22.1,3.8-3.2,8.7-4.4,13.6-3.4.3,0,.7,0,.9-.4.2-.3,0-.7-.2-.9-7.1-6.5-18-6.7-25.3-.5-8,6.8-9,18.9-2.2,27,4.4,5.2,11.4,7.7,18.1,6.4ZM305,144.4c6-5.1,14.6-5.5,21-1.3-4.4-.2-8.6,1.2-12,4.1-7.2,6.2-8.1,17.1-2,24.3,1.3,1.6,3,2.9,4.8,3.9-5.2.1-10.3-2.1-13.8-6.2-6.3-7.4-5.4-18.5,2-24.8Z"/>
        <g>
          <path class="cls-4" d="M428.5,120.9c-2.3.2-4.4,1.7-5,3.6,0,0-.1,0-.2,0-1-.9-2.2-1.1-3.4-.7-2.6.7-3.1,2.2-3.3,3.3,0,0,0,0,0,0h-.2c-1.4.2-2.4,1.4-2.3,2.9,0,1.2.9,2.1,2,2.4l1.3,18.6c.1,1.6,1.5,2.9,3.2,2.8l16.1-1.1c1.6-.1,2.9-1.5,2.8-3.2l-.2-3c5.9-.8,5.5-7.2,5.2-11.1,0-1.2-.5-2-1.4-2.6-1.5-1-3.7-.8-4.8-.6v-2.1c.5-.7.9-1.6.8-2.6-.1-2-2-3.4-4.1-3.3-.2,0-.4,0-.7.1-1-2.1-3.3-3.5-5.8-3.3ZM442.4,133.7c.5.4.8.9.9,1.7.3,5,.2,9.2-4.1,9.8l-.8-12c1.1-.2,3-.4,4.1.4ZM438.2,149.6c0,1-.7,1.8-1.7,1.9l-16.1,1.1c-1,0-1.8-.7-1.9-1.7l-1.3-18.5h1.3c.1.3.3.6.6.8.3.2.8.3,1.2.3v1.1c.2,1.9,1.5,2.1,2.2,2.1,1.3,0,2.1-1,2.1-2.4l-.2-2.4,11.6-.8s0,0,0,0c.1,0,.2,0,.3,0,.2,0,.4-.1.6-.2l1.3,18.7ZM435.1,125.3c1.4,0,2.7.9,2.8,2.2,0,.8-.4,1.6-1.2,2.2-.2.2-.5.3-.7.3,0,0,0,0-.1,0l-12,.8c-.3,0-.6.3-.6.6l.2,3c0,.7-.3,1-.9,1.1-.4,0-.8,0-.8-1v-1.8c-.1-.2-.2-.4-.4-.5-.1,0-.2,0-.4,0,0,0-.1,0-.2,0,0,0-.2,0-.4,0-.1,0-.3,0-.4,0-.2-.1-.2-.4-.2-.6,0-.3-.3-.6-.6-.6h-2c-.8.2-1.6-.4-1.6-1.2,0-.8.5-1.5,1.2-1.6h.5c.2,0,.4-.2.5-.4,0,0,0,0,0,0h0c.1-.3.2-.4.2-.5,0-.6.3-1.7,2.4-2.4.9-.3,1.6-.1,2.3.5.2.2.5.3.9.3.5,0,1.1-.3,1.2-.8.4-1.3,1.9-2.7,3.9-2.8,2.2-.1,4.2,1.1,4.8,3.1,0,.2.2.3.3.3.1,0,.3,0,.5,0,.3-.1.6-.2.9-.2Z"/>
          <path class="cls-4" d="M421.2,137.6c-.3,0-.6.3-.6.6l.6,9.5c0,.3.3.6.6.6s.6-.3.6-.6l-.6-9.5c0-.3-.3-.6-.6-.6Z"/>
          <path class="cls-4" d="M425.4,137.3c-.3,0-.6.3-.6.6l.6,9.5c0,.3.3.6.6.6.3,0,.6-.3.6-.6l-.6-9.5c0-.3-.3-.6-.6-.6Z"/>
          <path class="cls-4" d="M429.6,137c-.3,0-.6.3-.6.6l.6,9.5c0,.3.3.6.6.6.3,0,.6-.3.6-.6l-.6-9.5c0-.3-.3-.6-.6-.6Z"/>
          <path class="cls-4" d="M433.8,136.7c-.3,0-.6.3-.6.6l.6,9.5c0,.3.3.6.6.6s.6-.3.6-.6l-.6-9.5c0-.3-.3-.6-.6-.6Z"/>
        </g>
        <g>
          <path class="cls-4" d="M501.1,218.5l-3.7-18.4c-.4-1.8-2.1-2.9-3.8-2.5l-5.4,1.1-2.2-1.9c-1-.9-2-1.8-4.1-1.4l-8.9,1.8c-2.1.4-2.7,1.7-3.2,2.9l-1.2,2.6-2.9.6c-1.8.4-2.9,2.1-2.5,3.8l3.7,18.4c.4,1.8,2.1,2.9,3.8,2.5l27.9-5.7c1.8-.4,2.9-2.1,2.5-3.8ZM464.3,206.8c-.2-1.1.5-2.1,1.5-2.3l3.5-.7,1.5-3.2c.5-1.1.9-1.9,2.3-2.2l8.9-1.8c1.4-.3,2.1.3,3,1.1l2.7,2.4,6-1.2c1.1-.2,2.1.5,2.3,1.5l2.2,10.8-7.8,1.6c0-.6,0-1.3-.2-1.9-1.1-5.3-6.2-8.7-11.5-7.6-5.3,1.1-8.7,6.2-7.6,11.5.1.7.3,1.3.6,1.9l-5.3,1.1-2.2-10.8ZM482.4,221c-4.6.9-9-2-9.9-6.6-.9-4.6,2-9,6.6-9.9s9,2,9.9,6.6c.9,4.6-2,9-6.6,9.9ZM470.4,226.8c-1.1.2-2.1-.5-2.3-1.5l-1.3-6.3,5.6-1.1c2.1,3.4,6.1,5.4,10.3,4.5,4.1-.8,7.1-4.2,7.7-8.2l8.2-1.7,1.3,6.3c.2,1.1-.5,2.1-1.5,2.3l-27.9,5.7Z"/>
          <path class="cls-4" d="M479.4,206.4c-3.5.7-5.8,4.1-5.1,7.6.1.7.4,1.4.8,2,.1.2.4.4.7.3,0,0,.1,0,.2,0,.3-.2.4-.6.2-.9-.3-.5-.5-1-.6-1.6-.6-2.8,1.2-5.5,4-6.1.4,0,.6-.4.5-.8s-.4-.6-.8-.5Z"/>
          <path class="cls-4" d="M490.7,203.4l3.2-.6c.4,0,.6-.4.5-.8s-.4-.6-.8-.5l-3.2.6c-.4,0-.6.4-.5.8s.4.6.8.5Z"/>
        </g>
        <g>
          <path class="cls-8" d="M377.5,293.4l-2.8,9.5c0,.2,0,.4,0,.6,0,0,.1.1.2.2.2.2.6.2.8,0,.2,0,3.3-1.7,5.3-4.1l.8,3.7c0,0,0,.2,0,.2,0,.2.2.3.4.3.3,0,.5,0,.7-.2,2-1.8,2.6-4.6,2.8-6.4l1.8,2c.2.2.4.3.7.2.3,0,.5-.2.6-.5,1.3-3.3,0-5.7-1.3-7.1l3.4-1c.3,0,.5-.3.5-.5,0-.3,0-.5-.2-.7-1.8-1.8-4.5-2.5-5.7-2.8,0-1.3-.1-4.1-2.5-6.6-.2-.2-.5-.3-.8-.2-.3,0-.5.3-.5.6l-.7,4.2c-1.5-1.6-4.4-3.9-8.6-3.4-.3,0-.5.2-.6.5,0,.3,0,.6.2.8l2.3,2.4c.3.3.8.3,1.1,0,.3-.3.3-.8,0-1.1l-1.1-1.1c4.1.4,6.5,4,6.6,4.2.2.3.5.4.8.4.3,0,.5-.3.6-.6l.6-4.1s0,0,0,0c1.4,2.4,1.1,4.5,1.1,4.6,0,.2,0,.4.2.6.1.2.3.3.5.3,0,0,2.5.3,4.5,1.6l-3.4,1c-.3,0-.5.3-.5.6,0,.3.1.6.4.8.1,0,2.8,1.7,2.2,5l-2.1-2.3c-.2-.2-.6-.3-.9-.2-.3.1-.5.4-.5.7,0,0,.1,3.6-1.5,6l-.7-3.2c0-.1,0-.2-.1-.3.4-.6.6-1.3.7-2,0-.4-.3-.8-.7-.8-.4,0-.8.3-.8.7-.2,2.1-2.7,4.2-4.7,5.5l2.9-9.9c0-.2,0-.5-.1-.7-.1-.2-.4-.3-.6-.3-2.7-.1-6.7-.4-9-.5,4.6-3.4,7.9-1.9,8.1-1.8.4.2.8,0,1-.4.2-.4,0-.8-.4-1-.2,0-5-2.3-11.1,3.2-.2.2-.3.5-.2.8,0,.3.3.5.6.6.8.2,5.9.5,9,.7-2.6,2.3-10.2,7.7-20.5,6-.4-1-1-2.1-1.6-3.3-.9-1.5-1.8-2.7-2.7-3.7,0,0,0,0,0,0,.7-5.7,6-8.2,7.6-8.9l-1.7,5.2c0,.3,0,.5.1.7.2.2.4.3.7.3.5,0,5.4-1,5.6-3.9,0-.4-.3-.8-.7-.8-.4,0-.8.3-.8.7,0,1-1.6,1.7-3,2.2l1.7-5.3c0-.2,0-.4,0-.6-.1-.2-.3-.3-.5-.4,0,0-2.9-.6-5.5-1,3-1.4,4.5-.7,4.6-.7.4.2.8,0,1-.3.2-.4,0-.8-.3-1-.1,0-2.9-1.5-7.9,1.8-.3.2-.4.5-.3.8,0,0,0,.2,0,.2.1.2.3.3.5.4,1.3.2,3.2.6,4.8.9-2.2,1.1-6.1,3.7-7.2,8.5-4.3-4.1-8.2-4.2-8.4-4.2-.3,0-.5.1-.7.4-.1.2-.1.5,0,.8l14.1,23.8s0,0,0,0c.2.4.7.5,1.1.3.2-.1.3-.3.4-.5.3-.8,1.6-4.8-.2-10.5,10.2,1.4,17.6-3.6,20.6-6.2ZM356.1,308.1l-12.3-20.8c2.1.6,6.1,2.4,9.6,8.2,3.3,5.6,3.2,10.2,2.8,12.6Z"/>
          <path class="cls-8" d="M370.6,284.3c.2-.2.2-.4.2-.7-.4-1.4-1.8-3.6-3.1-4.6,1.1-2,.9-5,.9-5.1,0-.3-.2-.5-.5-.7-.3-.1-.6,0-.8.1,0,0-1.2,1-2.2,1.9-1-3.1-4.3-5-4.4-5.1-.3-.2-.6-.1-.8,0-.2.2-.4.5-.3.8l.7,2.9c-1.2-.6-2.9-1.1-4.7-.8-.3,0-.5.3-.6.5,0,.3,0,.6.2.8.6.5,1.6,1.6,1.6,1.6.3.3.8.3,1.1,0,.3-.3.3-.8,0-1.1,0,0-.1-.1-.3-.3,1.9.3,3.4,1.5,3.4,1.5.3.2.6.2.9,0,.3-.2.4-.5.3-.8l-.7-2.5c1,1,2.2,2.4,2.3,4.1,0,.3.2.6.5.7.3,0,.6,0,.8-.2.3-.4,1.1-1.1,1.8-1.7-.1,1.1-.4,2.4-1,3.1-.2.2-.3.6,0,.9,0,0,0,0,0,0,0,.2.2.3.4.3.3.2,1.5,1.3,2.3,2.6-.8-.3-1.9-.6-2.8-1-.3-.1-.6,0-.8.2-.2.2-.3.6-.1.8,0,.1,1.3,2.7-.5,5.4,0-.1,0-.3,0-.4,0-.4-.5-.7-.9-.6-.4,0-.7.5-.6.9.2.8.4,1.7.4,1.8,0,.1,0,.2.1.3,0,.1.2.3.4.3.3.1.6,0,.8-.2,2.5-2.4,2.6-5.1,2.3-6.7,3.4,1.2,3.5,1.1,3.8.7Z"/>
        </g>
        <g>
          <path class="cls-8" d="M486.7,282.1c0-2.1-.9-3.7-2.5-4.7-2.4-1.4-7.8-2.5-11.4,3-2.6,3.9-7.4,16.6-5,19.9.2.3.5.6.8.9h0c1.2,1.1,2.8,1.6,4.4,1.4,1.2-.2,2.2-.8,2.8-1.7.4-.6.8-1.4,1.3-2.3,1.5-2.8,3.5-6.6,5.9-8.6,2.2-1.9,3.7-5,3.7-7.8ZM482.2,289c-.5.4-.9.8-1.3,1.3,1.8-2.4,2.3-4.9,1.5-7.1,0,0,0,0,0-.1-.4-.7-.4-1.5-.3-1.9,0,0,0,0,0,0,0,0,0-.1,0-.2.1-.2,0-.5-.2-.7,0,0,0,0,0,0-.2-.2-.5-.3-.7-.1-.2.1-.2.3-.3.6-.4.7-.9,1.4-3.3,1.3-1.6,0-3.3.9-4.7,2.6-1.8,2.1-2.6,4.8-2.1,7,0,.1,0,.3.2.3.1.1.3.2.5.2.3,0,.5-.4.5-.7-.4-1.9.4-4.2,1.9-6.1,1.2-1.4,2.5-2.2,3.7-2.2,1.6,0,2.6-.3,3.3-.7,0,.4.2.8.4,1.1,1.4,3.9-2.6,7.6-4.3,9-.2.1-.2.2-.3.3-.2.3-.1.7.2.8.2.2.6.1.8,0h0c.9-.8,1.7-1.6,2.4-2.3-1.6,2.1-2.9,4.6-4,6.6-.5.9-.9,1.7-1.2,2.2-.4.7-1.1,1.1-2,1.2-1.2.1-2.5-.3-3.4-1.1h0c-.2-.2-.4-.4-.6-.7-1.7-2.3,2.1-14.1,5-18.5,3.2-4.8,7.8-3.8,9.8-2.6.2.1.4.3.6.4,1,.9,1.2,2.2,1.2,3.2,0,2.4-1.4,5.2-3.3,6.9Z"/>
          <path class="cls-8" d="M498.3,273.5c-1.6-.8-3.4-.7-5,.4-2.5,1.5-4.5,4.8-4.9,7.9-.4,3.2-2.5,7.2-4.1,10.1-.5,1-1,1.8-1.3,2.4-.5,1-.5,2.1,0,3.2.6,1.4,1.8,2.5,3.2,3,.5.2,1.1.3,1.7.3,4.1.2,12.3-11.2,14.2-15.8,2.7-6.3-1.3-10.4-3.8-11.6ZM500.9,284.6c-2.1,5.1-10.1,15.1-13,15-1.6,0-3.2-1.2-3.8-2.6-.2-.5-.4-1.4,0-2.2.3-.6.7-1.4,1.2-2.4,1.6-3,3.8-7.1,4.2-10.5.4-2.8,2.2-5.7,4.3-7,.8-.5,2.1-1,3.5-.5.1,0,.3.1.4.2,2.1,1.1,5.5,4.5,3.2,10Z"/>
          <path class="cls-8" d="M497.1,278c.2-.4.3-.7.3-.9,0-.3-.2-.6-.5-.6-.3,0-.6,0-.7.4h0c0,.3-.2.6-.2.8-.2.3-.4.6-.5.8-5.2-.4-6.9,7.3-7.4,10.7h0c0,.4,0,.7.4.8.3.1.7,0,.8-.4,0,0,0-.1,0-.3.3-2.4,1.8-10.1,6.3-9.6.2,0,.4,0,.5-.2.2.6.7,1.4,1.4,2.4,1.9,2.7-.1,7.4-4.6,10.7-.3.2-.3.6-.1.9,0,0,.2.2.3.2.2,0,.4,0,.6,0,5.1-3.8,7.2-9.2,4.8-12.5-1.3-1.8-1.5-2.6-1.4-3.1Z"/>
        </g>
        <g>
          <path class="cls-4" d="M400.1,160.3c.5,3.3,2.4,4.9,3.6,4.7s2.7-2.2,2.2-5.5c-.3-2-1.3-5.1-2.3-8-.9-2.6-1.7-5-1.9-6.3l-.9-6.6s0,0,0-.1c.5-.2,1.1-.5,1.6-.8l.3-.2c.9-.6,1.5-1.9,1.3-3l-1-7.3c0-.4-.4-.7-.8-.6s-.7.4-.6.8l1,7.3c0,.5-.3,1.3-.7,1.6l-.3.2c-.3.2-.6.4-.9.5l-1.3-9.3c0-.4-.4-.7-.8-.6-.4,0-.7.4-.6.8l1.3,9.3c-.3,0-.7-.1-1-.3h-.3c-.5-.3-1-.9-1.1-1.4l-1-7.3c0-.4-.4-.7-.8-.6-.4,0-.7.4-.6.8l1,7.3c.1,1.1,1.1,2.2,2.1,2.5h.3c.5.3,1.2.4,1.7.5,0,0,0,0,0,.1l.9,6.6c0,.5,0,2.4-.1,4.5-.2,3.6-.4,8.1,0,10.5ZM401.6,150.2c.2.6.4,1.2.6,1.8,1,2.9,2,5.9,2.3,7.8.4,2.5-.7,3.8-1,3.9-.3,0-1.6-.9-2-3.5-.3-2.1-.1-6.6,0-9.9Z"/>
          <path class="cls-4" d="M394.2,166.3c1.8-.2,3.5-1.5,3.1-4.2-.1-1.1-.5-2.1-.8-3.2-.4-1.2-.8-2.5-1-4l-.6-4.3c0-.2,0-.7-.5-1.1-.2-.2-.5-.4-.9-.5.5-1.3,1.3-4.3.6-9.5-1.7-12-6.6-12.5-6.8-12.5-.2,0-.4,0-.6.2-.2.2-.2.4-.2.6l5,35.9c.1,1,.9,2.9,2.6,2.6ZM388.2,128.9c1.3.9,3.5,3.4,4.5,10.7.8,5.7-.3,8.4-.6,9.1-.3,0-.7,0-1.1,0l-2.8-19.9ZM393.4,150.5c0,0,0,.1,0,.1,0,.1,0,0,0,.1l.6,4.4c.2,1.6.6,3,1,4.2.3,1,.6,2,.7,3,.3,1.8-.9,2.4-1.9,2.5-.7,0-.9-1.3-.9-1.4l-1.8-13.2c1.6-.2,2.1,0,2.2.2Z"/>
        </g>
        <g>
          <path class="cls-6" d="M331,197.7c-.8.9-1.2,2-1.1,3.1,0,1.1.6,2.1,1.4,2.9.8.7,1.8,1,2.8,1s1.3-.2,2-.5c.5-.3,1-.6,1.4-1,.8-.9,1.2-2,1.1-3.1,0-1.1-.6-2.1-1.4-2.9-1.8-1.5-4.5-1.3-6.1.5ZM331.7,200.7c0-.7.2-1.3.6-1.8.2-.3.5-.5.8-.6.9-.5,2-.3,2.8.3.5.4.8,1,.8,1.6,0,.7-.2,1.3-.6,1.8-.9,1-2.6,1.2-3.6.3-.5-.4-.8-1-.8-1.6Z"/>
          <path class="cls-6" d="M328.6,224.7c2.1,6.4,3.1,9,4.6,9s.3,0,.5,0c0,0,.2,0,.2,0,1.8-.9,1.2-4.3.3-8.6,0-.4-.2-.8-.2-1.1-.4-2-1.3-6.6.3-10,1.2-2.8,2.7-3.5,4.3-4.4,1.2-.7,2.5-1.3,3.8-2.8,2.5-3,2.4-8.2,1.1-10.1-.7-1.1-1.7-.9-2-.8-1.4.5-1.5,1.9-1.7,3.2-.1,1.2-.3,2.7-1.3,4.2-1,1.5-3.1,2.3-5,2.1-2-.2-3.6-1.4-4.6-3.5-.4-.9-.8-2.1-1.2-3.3-1.1-3.2-2.1-6-4-5.4-.3,0-.7.3-.9.8-1.1,2.1,1.1,8.8,1.4,9.5l.3.9c.6,1.8,1,2.9,1.3,4.5.2.9.2,1.8,0,2.5l-25.8-13.7-2.7-8.1-1.7.6,9.8,29.4,1.7-.6-6.3-18.9,24.1,12.8c-.2.2-.5.5-.8.7-.3.2-2,1-3.5,1.6-7.1,3.1-9.3,4.3-8.8,5.8,0,.2.3.6.7.8,1.4.7,5,0,14-3,.7,1.5,1.4,3.7,2.1,5.9ZM314.2,220.4c1.6-1,5.5-2.7,7.2-3.5,2.2-1,3.4-1.5,3.9-1.9.6-.5,1.1-1,1.5-1.6l5.3,1.2c-.9,3.6-.2,7.6.2,9.5,0,.3.1.7.2,1.1h.4c0,0-.3.1-.3.1,1,4.6.9,6,.8,6.4-.8-1-2.3-5.5-3-7.6-.7-2.1-1.4-4.3-2.1-5.9,0,0,.2,0,.2-.1.7-.4,1.3-.7,1.5-1.1l.2-.3-1.5-1-.2.3c-.2.3-1.1.7-1.8,1h0c-8,2.6-11.2,3.4-12.5,3.5ZM341,205.4c-1,1.2-2.1,1.8-3.2,2.4-1.8.9-3.6,1.9-5.1,5.2l-5.1-1.2c.3-1,.3-2.1,0-3.4-.4-1.7-.8-2.8-1.4-4.7l-.3-.9c-1-2.9-1.8-6.5-1.5-7.9.3.5.9,1.9,1.7,4.1.4,1.2.8,2.4,1.3,3.4,1.2,2.7,3.4,4.3,6,4.5,2.6.2,5.2-.9,6.6-2.9,1.3-1.9,1.5-3.7,1.6-5.1,0-1,.2-1.4.3-1.6,0,0,0,0,0,0,.8,1.1,1,5.5-1,7.9Z"/>
        </g>
        <path class="cls-4" d="M521.4,240.9c-2.5-1.6-2.5-4.2-2.5-4.3,0,0,0,0,0,0,0,0,0-.1,0-.2,0,0,0,0,0,0,0,0,0-.1-.1-.2,0,0,0,0-.2-.1,0,0,0,0,0,0,0,0,0,0,0,0,0,0,0,0-.1,0,0,0,0,0,0,0,0,0-.1,0-.2,0,0,0,0,0,0,0,0,0,0,0-.1,0,0,0,0,0,0,0,0,0,0,0,0,0,0,0,0,0,0,.1,0,0,0,0,0,0l-8,18.9s0,0,0,0c-.4.8-.7,1-.9,1,0,0,0,0-.1,0-.8-1.3-2.3-2.5-4.1-3.2-3.5-1.5-6.9-1-7.8,1.1-.9,2.1,1.1,4.9,4.6,6.4,3.2,1.4,6.4,1,7.5-.8,0,0,0,0,0-.1l7.1-16.8c.4.9,1.2,1.7,2.6,2.3,2.3,1,2.3,3.8,2.3,5.4,0,.3,0,.5,0,.7,0,.2.1.4.3.5,0,0,0,0,.1,0,.3,0,.5,0,.6-.3,1.5-3.5,3.4-7.9-.8-10.5ZM508.2,259s0,0,0,0c-.6,1.5-3.5,1.8-6.3.6-2.8-1.2-4.6-3.5-4-4.9.6-1.5,3.5-1.7,6.3-.6,1.6.7,2.9,1.7,3.6,2.8.2.3.6.6,1,.6l-.7,1.6ZM522.2,248.6c-.2-1.6-.8-3.5-2.9-4.4-2.2-.9-2.5-2.5-2.2-3.3l1-2.4c.4,1.1,1.1,2.4,2.7,3.4,2.5,1.6,2.4,3.8,1.4,6.8Z"/>
        <g>
          <path class="cls-2" d="M343.8,250.2l4.3,7.7c.4.8,1.4,1.7,2.3,2l5.6,2.3c.5.2,1.1.2,1.5,0,.5-.3.8-.7.9-1.3l1-5.9c.1-.9,0-2.2-.5-3l-10-17.8c-.5-1-1.8-1.3-2.8-.8l-7.1,4c-1,.5-1.3,1.8-.8,2.8l5,8.9-11.3,6.3-2.4,1.3c-.3.2-.4.6-.3.9,1,1.8.6,3.5.2,4.6l-4.1-7.3c.7.1,1.5.4,2.3.9.3.2.7.1.9-.2.2-.3.1-.7-.2-.9-2-1.4-4.3-1.3-4.4-1.3-.2,0-.4.2-.5.4-.1.2-.1.5,0,.7l5.3,9.5c.1.2.3.3.6.3.2,0,.5-.1.6-.3,0-.1,2.1-3.2.6-6.5l1.8-1,11.3-6.3ZM339.4,239.4c-.2-.3,0-.7.3-.9l7.1-4c.3-.2.7,0,.9.3l10,17.8c.3.5.5,1.5.4,2.1l-1,5.9c0,.1,0,.3-.2.3,0,0-.2,0-.4,0l-5.6-2.3c-.6-.2-1.3-.9-1.6-1.4l-10-17.8Z"/>
          <path class="cls-2" d="M357.4,241l-2.4,1.3c-.3.2-.4.6-.3.9.2.3.6.4.9.3l2.4-1.3c.3-.2.4-.6.3-.9-.2-.3-.6-.4-.9-.3Z"/>
        </g>
        <g>
          <path class="cls-4" d="M470.2,265.8l.5-3,1.5.2c1.4.2,2.6-.7,2.8-2.1l2.5-16.2c.2-1.4-.7-2.6-2.1-2.8l-17.7-2.8c-1.4-.2-2.6.7-2.8,2.1l-.4,2.5-1.5-.2c-1.4-.2-2.6.7-2.8,2.1l-2.6,16.7c-.2,1.4.7,2.6,2.1,2.8l17.7,2.8c1.4.2,2.6-.7,2.8-2.1ZM455.9,241.4c.1-.8.9-1.4,1.7-1.2l17.7,2.8c.8.1,1.4.9,1.2,1.7l-2.5,16.2c-.1.8-.9,1.4-1.7,1.2l-1.5-.2,2-12.8c.2-1.4-.7-2.6-2.1-2.8l-15.3-2.4.4-2.5ZM448.6,262.4l2.6-16.7c.1-.8.9-1.4,1.7-1.2l1.5.2,1,.2,15.3,2.4c.8.1,1.4.9,1.2,1.7l-2.6,16.7c-.1.8-.9,1.4-1.7,1.2l-17.7-2.8c-.8-.1-1.4-.9-1.2-1.7Z"/>
          <path class="cls-4" d="M465,253.9c1.4.2,2.6-.7,2.8-2.1.2-1.4-.7-2.6-2.1-2.8s-2.6.7-2.8,2.1c-.2,1.4.7,2.6,2.1,2.8ZM463.9,251.2c.1-.8.9-1.4,1.7-1.2.8.1,1.4.9,1.2,1.7-.1.8-.9,1.4-1.7,1.2-.8-.1-1.4-.9-1.2-1.7Z"/>
          <path class="cls-4" d="M468.2,262.9c.1,0,.3,0,.4-.1.2-.2.2-.5,0-.7l-3.6-4c-.5-.6-1.5-.7-2.2-.3l-2.1,1.3-2.9-3.9c-.5-.7-1.4-.8-2.1-.4l-5.4,3.5c-.2.2-.3.5-.1.7.2.2.5.3.7.1l5.4-3.5c.2-.2.6,0,.7.1l5.7,7.7c0,.1.2.2.3.2.1,0,.3,0,.4,0,.2-.2.3-.5.1-.7l-2.2-3,2-1.2c.3-.2.7,0,.9.1l3.6,4c0,0,.2.1.3.2Z"/>
        </g>
        <path class="cls-2" d="M411.6,253.9c2.7-9.2-2.5-18.9-11.7-21.7-9.2-2.7-18.9,2.5-21.7,11.7-2.7,9.2,2.5,18.9,11.7,21.7,9.2,2.7,18.9-2.5,21.7-11.7ZM401.9,234.4s0,0,0,0c5.9,2.8,9.8,9.5,9.1,16.2,0,0-.1.1-.2.2-.3.9-1.7,2.1-2.5,2.7l-.3.2c-.7.5-1.2,1.6-1.7,2.5-.3.5-.5,1-.7,1.3-.2.3-.7.7-1,.9,0-.1.2-.2.3-.4.5-.7.3-1.5,0-2.1,0-.2-.2-.5-.2-.6,0,0-.1-3.7-.8-4.1,0,0-2.3-1.1-3.1-1.1-.4,0-1.5-.4-1.9-1-.2-.3-.2-1.1.3-3.5v-.2c0-.2.2-.3.7-.4.3-.1.6-.3.9-.5h.1c.1-.2.3-.4.4-.5.6.3,1.1.2,1.4.1.3,0,.6.3,1,.7.4.4.9.8,1.6,1.1,1,.4,1.3.4,1.9.4.3,0,.6,0,1.2,0,1,0,1.4-.3,1.5-.7.4-.9-.5-2-.5-2-.4-.5-1-.3-1.5-.2-.2,0-.5.1-.7.1-.1,0-.2,0-.4-.2-.2-.2-.6-.4-1.1-.7-.3-.2-.3-.2-.3-.5,0-.2,0-.6-.3-1-.2-.2-.4-.3-.6-.3-.3,0-.5.2-.7.4-.1.1-.2.2-.4.2-.4,0-.7,0-.9,0-.3,0-.5,0-.8-.1.1,0,.2-.2.3-.2.1,0,.2-.1.3-.2.7-.4,2.2-1.6,2.8-2.5.4-.6.3-1,.2-1.3-.3-.6-1.1-.7-1.9-.7-.4,0-.4,0-.6-.2-.2-.2-.4-.4-.8-.7-.3-.2-.3-.4,0-1.3ZM382.8,238.3s0,0,0,0c3.1-3.5,7.7-5.6,12.5-5.4.1,1.1.2,2.7-.3,3.1-.2.2-.2.4-.2.6-.4-.1-.8-.2-1.2,0-1.9,1-6,3.6-6.5,4.8,0,0,0,0,0,0-.2-.6-.5-1.2-1-1.6-.4-.3-.8-.3-1.3-.2-1.2.3-1.9,1.5-2.1,2.5,0,.7.2,1.3.6,1.5.4.2.9.2,1.2.2,0,.2,0,.5,0,.8,0,.4,0,.7-.1.9-.7-.5-1.5-1.2-1.7-1.6-.2-.3-.2-.7-.2-1.2,0-.4,0-.9-.2-1.3-.1-.4.2-2.3.6-3.2ZM384.7,256.5c-.1.3-.2.6-.3.9-.2.8,0,1.8,0,2.8,0,.5.1.9.1,1.3,0,0,0,0,0,0-4.9-4-7.2-10.7-5.3-17.1.4-1.3.9-2.4,1.5-3.5,0,.6,0,1.1.2,1.4,0,0,0,.4,0,.6,0,.5,0,1.2.4,1.9.6.9,2.4,2.1,2.7,2.4-.6,1-1.1,2.5-1.1,2.5-.2.9.2,2.7,1.5,4.5.7.9.4,1.6,0,2.5ZM385.9,261.2c0-.4,0-.8-.1-1.2-.1-.9-.2-1.8-.1-2.4,0-.2.1-.4.2-.6.4-.9.9-2.2-.2-3.7-1.1-1.4-1.4-2.9-1.3-3.4.1-.6.8-2,1.1-2.4.5,0,1.4,0,2.1-.4,0,0,.2,0,.4,0,.5.2,1.3.7,1.8,1.5.9,1.4,1.7,2.7,3,3.5.5.3.9.4,1.2.6.2,0,.5.2.6.3,0,0,0,0,0,0,0,0-.2.1-.2.2-.2.1-.5.3-.7.6-.1.1-.3.4-.6.8-.9,1.2-3.2,4.4-4.3,4.7-.4.1-.6.2-.9.3-.9.3-1.5.5-1.8,1.7ZM390.3,264.4c-1.2-.4-2.4-.9-3.4-1.5,0-.2.2-.6.3-1.5q.1-.5.8-.7c.3,0,.6-.2,1-.3,1.3-.4,3.2-2.9,4.9-5.2.3-.4.5-.6.6-.7.1-.1.3-.2.4-.3.3-.2.9-.5.9-1.3,0-.9-.7-1.2-1.4-1.5-.3-.1-.7-.3-1-.5-1.1-.6-1.8-1.7-2.6-3-.6-1-1.6-1.9-2.5-2.1-.5-.1-.9-.1-1.3,0-.4.2-1.1.3-1.5.3.1-.4.3-1,.2-1.6,0-.5,0-.7,0-.8,0-.2.2-.5,0-1-.3-.5-.9-.4-1.2-.3-.2,0-.4,0-.6,0,0,0,0-.4.1-.7.2-.5.6-.8.9-.9.1,0,.2,0,.2,0,.3.2.6,1.1.7,1.6v.4c0,0,.4.1.4.1,0,0,1.2.4,1.9-1.2.3-.6,3.5-2.9,5.8-4.1.1,0,.5.1.7.2.4.1.6.2.9.2h.3c0,0,.1-.3.1-.3.2-.3,0-.6,0-1,0,0,0,0,0-.1.7-1,.6-2.8.5-3.7,1,.1,1.9.3,2.9.6.4.1.8.2,1.1.4,0,0,0,0,0,0-.2.6-.7,2,.6,2.8.3.2.5.4.6.5.4.4.6.6,1.5.6.3,0,.5,0,.6,0-.5.7-1.8,1.7-2.4,2.1,0,0-.2.1-.3.2-.5.3-1.2.7-1.2,1.3,0,.4.2.7.7,1,.8.5,1.2.4,1.8.3.2,0,.4,0,.7,0,.3,0,.6,0,.8-.1,0,.4.3.8,1,1.2.4.2.7.4.9.6.3.2.6.5,1.2.5.3,0,.7,0,1-.1.1,0,.3,0,.4,0,0,.1.2.3.2.4,0,0-.1,0-.3,0-.6,0-1.1,0-1.3,0-.4,0-.6,0-1.3-.3-.5-.2-.9-.6-1.3-.9-.6-.5-1.2-1-2-1h-.2s-.2.1-.5,0c-.9-.5-1.6.3-1.9.6h0c0,.2-.3.2-.4.3-.5.2-1.2.5-1.4,1.3v.2c-.5,1.8-.8,3.6-.2,4.5.7,1,2.2,1.6,3,1.6.3,0,1.7.6,2.3.8.1.6.4,2.5.4,3.1,0,.3.1.7.2,1,0,.3.2.8.1.9-.1.1-1,1.3-.9,2.2,0,.3.2.5.4.6,0,0,.1,0,.2,0,.9.3,2.7-1.2,3.1-1.8.3-.4.6-.9.8-1.5.4-.8.9-1.8,1.3-2.1l.3-.2c.4-.3.9-.7,1.3-1.1,0,0,0,0,0,0-2.5,8.5-11.5,13.4-20.1,10.9Z"/>
        <path class="cls-6" d="M309.4,104.3l5.4.7c.7,0,1.5,0,2.1-.6.5-.3.8-.8,1-1.3l10.6,1.4c-5.7,5.5-9.4,11.3-7.4,14,2.7,3.5,13-1.1,21.5-7.6,1.6-1.2,3.1-2.5,4.6-3.9l11.5,1.5c0,.6.2,1.1.6,1.5.5.6,1.1,1,1.9,1.1l5.4.7c.3,0,.6-.2.6-.5l.6-4.5c0-.3-.2-.6-.5-.6l-5.4-.7c-.7,0-1.5,0-2.1.6-.5.3-.8.8-1,1.3l-10.6-1.4c5.7-5.5,9.4-11.3,7.4-14-2.7-3.5-13,1.1-21.5,7.6-1.6,1.2-3.1,2.5-4.6,3.9l-11.5-1.5c0-.6-.2-1.1-.6-1.5-.5-.6-1.1-1-1.9-1.1l-5.4-.7c-.1,0-.3,0-.4.1-.1,0-.2.2-.2.4l-.6,4.5c0,.1,0,.3.1.4,0,.1.2.2.4.2ZM359.6,108.1c0-.5.3-.9.7-1.2.4-.3.8-.4,1.3-.3l4.8.6-.5,3.5-4.8-.6c-.5,0-.9-.3-1.2-.7-.3-.4-.4-.8-.3-1.3ZM341.8,110c-9.8,7.5-18.2,10.1-20,7.8-1.4-1.9,1.5-7.2,7.9-13.1l2,.3-.5.3c-1.9,1.4-2.2,4.1-.8,5.9,1.4,1.9,4.1,2.2,5.9.8l7.2-5.5,2.1.3c-1.2,1.1-2.5,2.1-3.9,3.2ZM343.2,105.4l-8.9-1.2,6.3-4.8c1.4-1.1,3.4-.8,4.4.6,1.1,1.4.8,3.4-.6,4.4l-1.3,1ZM342,106.3l-6.3,4.8c-1.4,1.1-3.4.8-4.4-.6-1.1-1.4-.8-3.4.6-4.4l1.3-1,8.9,1.2ZM334.6,100.6c9.8-7.5,18.2-10.1,20-7.8,1.4,1.9-1.5,7.2-7.9,13.1l-2-.3.5-.3c1.9-1.4,2.2-4.1.8-5.9-1.4-1.9-4.1-2.2-5.9-.8l-7.2,5.5-2.1-.3c1.2-1.1,2.5-2.1,3.9-3.2ZM310.5,99.8l4.8.6c.5,0,.9.3,1.2.7.3.4.4.8.3,1.3,0,.5-.3.9-.7,1.2-.4.3-.8.4-1.3.3l-4.8-.6.5-3.5Z"/>
        <g>
          <path class="cls-2" d="M362.9,141c0,0-.1,0-.2,0h0c-.1,0-.3,0-.4.1,0,0-.2,0-.3.1-.1,0-.2,0-.3.1-.1,0-.2.1-.3.2,0,0-.2.1-.3.2-.1,0-.2.1-.3.2,0,0,0,0-.1,0h0c-.5.4-1,.9-1.4,1.4,0,0,0,0,0,0,0,0,0,0,0,0-1.7,1.9-3.4,4.8-5.2,8.8-.7,1.5-1.4,3.3-2.1,5.2-1.3-1.1-2.6-1.7-3.9-1.7s-.4,0-.7,0c0,0-.1,0-.2,0-.1,0-.3,0-.4.1,0,0-.2,0-.3,0-.1,0-.2,0-.4.1h0c0,0-.2,0-.2.1,0,0-.1,0-.2.1h0c-.3.2-.5.3-.8.5h-.1c-.1.2-.3.3-.4.4h-.1c-.2.2-.3.3-.5.5-1.8,1.7-3.8,4.5-5.7,8.2-3.4,6.4-5.9,14-6.5,15.9h-2.8v1.2h57.2v-1.2h-3.2c-.2-.8-.6-2.5-1.2-4.7-.7-2.6-1.7-6.5-3-10.7h3.4c1.2,0,2.2-1,2.2-2.2s-1-2.2-2.2-2.2h-2.9c-.2-1-1.1-1.7-2.1-1.7h-.4c-1.1-3.1-2.2-5.9-3.2-8.3-3.4-7.6-6.5-11.3-9.6-11.3s-.4,0-.7,0ZM344.4,158.7c.1-.1.3-.2.4-.4h0c.1-.2.3-.3.4-.4h.1c.2-.2.4-.4.6-.5h0c0,0,0,0,.1-.1,0,0,.1,0,.2,0h0c0,0,.2-.1.3-.1,0,0,.1,0,.2,0,.1,0,.2,0,.3,0h0s0,0,.1,0c.2,0,.3,0,.5,0,1.2,0,2.5.7,3.9,2,.1.1.3.3.4.4,0,0,.2.2.2.3.1.1.2.3.4.4,0,.1.2.2.3.3.1.1.2.3.4.5,0,.1.2.2.3.4.1.2.2.3.4.5,0,.1.2.2.3.4.1.2.3.4.4.6,0,.1.2.2.2.4.2.3.4.7.6,1,0,.1.2.3.2.4.1.2.3.5.4.7,0,.2.2.3.3.5,0,.2.2.3.3.5,0,0,0,0,0,0-.2.2-.4.4-.5.6-.7.8-1.3,1.5-2.4,1.5s-1.7-.7-2.4-1.5c-.5-.5-.9-1.1-1.6-1.5-.5-.3-1.1-.4-1.7-.4-1.7,0-2.6,1-3.4,1.9-.7.8-1.3,1.5-2.4,1.5s-1.7-.7-2.4-1.5c-.2-.2-.3-.4-.5-.6,0,0,0,0,0,0,1.8-3.4,3.6-5.9,5.3-7.5ZM332.6,181.9c.7-2.2,3-8.8,5.9-14.6,0,.1.2.2.3.3.8.9,1.6,1.9,3.4,1.9s2.6-1,3.4-1.9c.7-.8,1.3-1.5,2.4-1.5s.8,0,1.1.3c.5.3.9.7,1.3,1.2.8.9,1.6,1.9,3.4,1.9s2.6-1,3.4-1.9c0-.1.2-.2.3-.3,0,.1.1.2.2.4,0,.2.2.3.2.5.1.3.3.6.4.9,0,.1.1.3.2.4.2.4.4.8.6,1.2,0,.1.1.2.2.4.1.3.3.6.4.9,0,.2.1.3.2.5.1.3.2.5.3.8,0,.2.1.3.2.5.1.3.2.6.3.8,0,.1,0,.2.1.4.1.4.3.7.4,1.1,0,.1.1.3.2.4,0,.2.2.5.3.7,0,.2.1.3.2.5,0,.2.1.4.2.6,0,.1.1.3.2.4,0,.2.1.4.2.5,0,.2.2.5.2.7,0,.1,0,.3.1.4,0,.2.1.3.1.4,0,0,0,.2,0,.3,0,.1,0,.3.1.4,0,0,0,.1,0,.2,0,.1,0,.3.1.4h-30.6ZM377.8,162.7s0,0,0,0c0,.2,0,.3.2.4.1.1.3.2.4.2h3.4c.5,0,1,.4,1,1s-.4,1-1,1h-8.5c-.5,0-1-.4-1-1s.4-1,1-1h.6c.2,0,.3,0,.4-.2.1-.1.2-.3.2-.4,0,0,0,0,0,0,0-.5.4-1,1-1h1.3c.5,0,1,.4,1,.9ZM375.1,160.6c-.2,0-.4,0-.5.2,0,0,0,0,0,0-.2,0-.3.2-.4.3,0,0,0,0,0,0-.1.1-.2.3-.3.4,0,0,0,0,0,0,0,.2-.2.3-.2.5h0c-1.2,0-2.2,1-2.2,2.2s1,2.2,2.2,2.2h3.8c1.3,4.3,2.4,8.3,3.1,11,.5,2,.9,3.6,1.1,4.4h-16.8c0-.1,0-.3-.1-.4,0,0,0-.1,0-.2,0-.1,0-.2-.1-.4,0-.1,0-.2-.1-.3,0-.1,0-.3-.1-.4,0-.1,0-.2-.1-.4,0-.2-.1-.3-.2-.5,0-.1,0-.3-.1-.4,0-.2-.1-.4-.2-.6,0-.1-.1-.3-.2-.4,0-.2-.2-.5-.3-.7,0-.1,0-.3-.1-.4-.3-.7-.6-1.5-.9-2.4,0-.1,0-.2-.1-.4-.1-.3-.2-.6-.4-.9,0-.2-.1-.3-.2-.5-.1-.3-.2-.6-.4-.8,0-.2-.1-.3-.2-.5-.1-.3-.2-.5-.4-.8,0-.2-.2-.3-.2-.5-.1-.3-.3-.6-.4-.8,0-.2-.2-.3-.2-.5-.1-.3-.3-.6-.4-.9,0-.1-.1-.3-.2-.4-.2-.4-.4-.9-.7-1.3-.2-.4-.4-.8-.7-1.2-.1-.2-.2-.4-.3-.6-.1-.2-.2-.4-.3-.6-.2-.3-.4-.6-.5-.9,0,0,0-.1-.1-.2-1.1-1.8-2.2-3.2-3.3-4.3.6-1.7,1.3-3.3,1.9-4.7,0,0,0,0,0,0,0,0,0,0,.1.1,0,0,.1.1.2.2,0,0,0,0,.1.1,0,0,.1.1.2.2,0,0,0,0,.1.1,0,0,.1.1.2.2,0,0,.1,0,.2.1,0,0,.2,0,.2.1,0,0,.1,0,.2,0,0,0,.2,0,.3.1,0,0,.1,0,.2,0,.1,0,.2,0,.3,0,0,0,.1,0,.2,0,.2,0,.4,0,.6,0,1.7,0,2.6-1,3.4-1.9.7-.8,1.3-1.5,2.4-1.5s.3,0,.5,0c.9.2,1.4.8,2,1.4.8.9,1.6,1.9,3.4,1.9s.4,0,.6,0c0,0,.1,0,.2,0,.1,0,.2,0,.3,0,0,0,.1,0,.2,0,0,0,.2,0,.3-.1,0,0,.1,0,.2,0,0,0,.2,0,.2-.1,0,0,.1,0,.2-.1,0,0,.1-.1.2-.2,0,0,0,0,.1-.1,0,0,.1-.1.2-.2,0,0,0,0,.1-.1,0,0,.2-.2.2-.3,0,0,0,0,0,0,0,0,0,0,0,0,.9,2.1,1.8,4.4,2.7,6.9,0,0,0,0,0,0ZM371.9,152.4s0,0-.1.1c-.7.8-1.3,1.5-2.4,1.5s-1.7-.7-2.4-1.5c-.7-.8-1.4-1.6-2.7-1.9-.2,0-.4,0-.7,0-1.7,0-2.6,1-3.4,1.9-.7.8-1.3,1.5-2.4,1.5s-1.7-.7-2.4-1.5c0,0,0,0-.1-.1,1.7-3.7,3.3-6.4,4.8-8.1,0,0,0,0,0,0,.4-.5.8-.9,1.3-1.2h.2c0-.2.2-.2.3-.3,0,0,.1,0,.2-.1,0,0,.2,0,.2-.1,0,0,.2,0,.3-.1,0,0,.1,0,.2,0,0,0,.2,0,.3,0h0s0,0,0,0c.2,0,.3,0,.4,0,1.7,0,4.5,1.8,8.3,10.2Z"/>
          <path class="cls-2" d="M347.4,153.3c1.1,0,2-.7,2.3-1.8h.7c1.3,0,2.4-1.1,2.4-2.4s-1.1-2.4-2.4-2.4h-1.5c-.3-.9-1.1-1.6-2.1-1.6h-1.3c-1,0-1.8.7-2.1,1.6h-2.4c-1.1,0-2,.7-2.3,1.8h-.7c-1.3,0-2.4,1.1-2.4,2.4s1.1,2.4,2.4,2.4h9.4ZM336.8,150.9c0-.6.5-1.2,1.2-1.2h1.2c.3,0,.6-.3.6-.6,0-.6.5-1.2,1.2-1.2h3c.3,0,.6-.3.6-.6,0-.5.4-1,1-1h1.3c.5,0,1,.4,1,1s.3.6.6.6h2c.6,0,1.2.5,1.2,1.2s-.5,1.2-1.2,1.2h-1.2c-.3,0-.6.3-.6.6,0,.6-.5,1.2-1.2,1.2h-9.4c-.6,0-1.2-.5-1.2-1.2Z"/>
        </g>
        <g>
          <g>
            <path class="cls-6" d="M427.1,100.6c-.2,0-.3,0-.5,0-1.5-.1-2.8-.8-3.8-2-1-1.1-1.4-2.6-1.3-4.1.1-1.5.8-2.8,2-3.8,1.1-1,2.6-1.4,4.1-1.3,1.5.1,2.8.8,3.8,2,2,2.4,1.6,5.9-.7,7.8-1,.8-2.3,1.3-3.6,1.3ZM427.1,91c-.9,0-1.8.3-2.6.9-.8.7-1.3,1.7-1.4,2.7s.2,2.1.9,3c.7.8,1.7,1.3,2.7,1.4,1.1,0,2.1-.2,3-.9,1.7-1.4,1.9-4,.5-5.7-.7-.8-1.7-1.3-2.7-1.4-.1,0-.3,0-.4,0Z"/>
            <path class="cls-6" d="M390.7,112.6c-2.6,0-5.1-.4-6.2-1.1-.6-.4-.7-.8-.8-1.1-.1-1.8,2.8-2.2,6.3-2.6,1.3-.2,2.4-.3,3.1-.5,1-.3,2-.7,2.9-1.3-1.2.2-2.3.3-3.3.4-.1,0-10.5.6-10.8-2.4,0-.4,0-.8.4-1.1,1-1.1,3.9-1.3,7.5-1.4.8,0,1.4,0,1.9,0,2.4-.2,3.5-.3,7.2-1.4,2.2-.7,4.8-1.7,7.5-2.7,1.1-.4,2.2-.9,3.4-1.3-1.5-.3-3.4-.7-4.4-.7-.7,0-2.1.1-3.5.3-3.5.5-5.8.7-6.5-.3-.2-.2-.4-.7-.1-1.4.9-2.2,9.4-3.8,11.6-3.7.2,0,.4,0,.6,0,2.9,0,9.6.3,13.5,7.6,1.7,3.2,3.7,4.9,6.4,5.5,1,.2,2.4.4,3.8.5,3.4.3,6,.6,6.1,2.2,0,.3,0,.7-.5,1.1-1.6,1.5-7.6,2.1-11.5,1.7-4.1-.5-7.8-3.6-8.8-4.6-1.1.2-4.5,1.4-6.7,2.2-1.3.5-2.5.9-3.2,1.1-1,.3-2.5,1-4.2,1.8-2.1,1-4.5,2.1-6.5,2.8-1.4.4-3.3.6-5.1.6ZM385.4,110.3c1.1.7,6.8,1.3,10,.2,1.9-.6,4.3-1.7,6.3-2.7,1.8-.8,3.3-1.6,4.4-1.9.7-.2,1.8-.6,3.1-1.1,3.9-1.4,6.6-2.3,7.4-2.3h.3s.2.2.2.2c0,0,4,3.9,8.2,4.4,4.1.5,9.3-.4,10.2-1.2-.7-.4-3.1-.6-4.6-.8-1.4-.1-2.8-.3-3.9-.5-3.1-.7-5.5-2.7-7.4-6.2-3.5-6.6-9.4-6.7-12.2-6.8-.2,0-.5,0-.6,0-2.7-.1-9.3,1.6-10.1,2.7.8.2,3.5-.1,5-.3,1.5-.2,2.9-.4,3.7-.3,2.2.1,7,1.3,7.2,1.3l2.5.6-2.4.9c-1.9.7-3.9,1.5-5.8,2.2-2.8,1.1-5.3,2.1-7.6,2.8-3.9,1.1-5.1,1.3-7.5,1.5-.5,0-1.2,0-2,0-1.6,0-5.7.2-6.4.8.7.8,5.8,1.3,9.1,1,2.5-.2,4.5-.4,7.2-1.7l4.6-2.1-3.8,3.4c-2.4,2.1-4.7,3.5-7.1,4.3-.7.2-1.9.4-3.3.6-1.5.2-4.1.5-4.8,1Z"/>
            <rect class="cls-6" x="412.5" y="94.8" width="1" height="1.5" transform="translate(-8.8 137.3) rotate(-18.7)"/>
            <rect class="cls-6" x="415.6" y="102.1" width="1.5" height="1.7" transform="translate(51.6 328.6) rotate(-45.6)"/>
            <rect class="cls-6" x="400" y="102.7" width="1.1" height="1.5" transform="translate(25.8 278.8) rotate(-39.6)"/>
            <path class="cls-6" d="M418.3,85.8c-.5,0-1.1-.2-1.5-.6-.5-.4-.8-1-.8-1.6-.1-1.3.8-2.4,2.1-2.5.6,0,1.2.1,1.7.5.5.4.8,1,.8,1.6,0,.6-.1,1.2-.5,1.7s-1,.8-1.6.8c0,0-.1,0-.2,0ZM418.3,82.8s0,0,0,0c-.2,0-.4.1-.5.3-.1.2-.2.4-.2.6,0,.2.1.4.3.5.2.1.3.2.6.2.2,0,.4-.1.5-.3.1-.2.2-.4.2-.6,0-.2-.1-.4-.3-.5-.1-.1-.3-.2-.5-.2Z"/>
            <path class="cls-6" d="M420.7,88.9c-.4,0-.8-.1-1.1-.4-.4-.3-.6-.7-.6-1.2,0-.5.1-.9.4-1.3.3-.4.7-.6,1.2-.6,1,0,1.8.6,1.9,1.6h0c0,.9-.6,1.8-1.6,1.9,0,0,0,0-.1,0ZM420.7,87s0,0,0,0c0,0-.2.1-.2.2,0,0,.1.2.2.2.1,0,.2-.1.2-.2h0c0-.1,0-.2-.2-.2Z"/>
            <path class="cls-6" d="M378.6,120.1v-1.6c.2-1.8-.5-3.3-1.8-3.8l-2.4-1,2.6-.4c3.4-.6,5.7-2.5,7.1-3.9l1.1,1s0,0,0,0c0,0,.1.1.7.3l.8.2-.3.8c-1,3-3,5.4-6.5,7.7l-1.3.9ZM378.9,114.3c.7.7,1.1,1.7,1.3,2.8,2.2-1.7,3.6-3.4,4.5-5.5-.2,0-.3-.2-.5-.3-1.1,1-2.9,2.2-5.3,3ZM385.2,110.4h0Z"/>
            <path class="cls-6" d="M375.1,111.8l.4-1.3c.4-1.5-.2-3.3-1.3-3.9l-2.8-1.5h3.2c3.5.1,5.7-.9,8-2.5l2.7-1.8-1.6,2.8c0,0,0,.3,0,.3,0,0,0,0,.2,0h1.1c0,.1-.5,1.1-.5,1.1-.7,1.5-3,5-8,6.3l-1.3.3ZM376.3,106.6c.5.8.8,1.9.8,3,3-1.1,4.7-3.1,5.5-4.5-.2-.2-.3-.3-.4-.5-1.6.9-3.4,1.7-5.9,2Z"/>
          </g>
          <g>
            <path class="cls-7" d="M376.5,80.3c-1.5,0-3-.4-4.3-1.2-.8-.5-1.9-.9-3-.9-.4,0-.7-.4-.7-.8,0-.4.4-.7.8-.7,1.4,0,2.7.5,3.7,1.2,2.3,1.5,5.9,1.2,8-.7,2.6-2.4,6.9-2.7,9.8-.8.9.6,2,.9,3.1,1,1.8,0,3.5-.5,4.7-1.5l.2-.2c2.6-2.4,6.9-2.7,9.8-.8,2.1,1.3,5.2,1.3,7.3-.2.2-.2.5-.3.7-.5,2.6-2.4,6.9-2.7,9.8-.8,2.3,1.5,5.9,1.2,8-.7.3-.3.8-.3,1.1,0,.3.3.3.8,0,1.1-2.6,2.4-6.9,2.7-9.8.8-2.3-1.5-5.9-1.2-8,.7-.3.2-.5.5-.8.7-2.6,1.8-6.4,1.8-9,.2-2.3-1.5-5.7-1.2-7.8.5l-.2.2c-1.5,1.4-3.7,2.2-6,2-1.4,0-2.8-.5-3.9-1.2-2.3-1.5-5.9-1.2-8,.7-1.5,1.4-3.5,2.1-5.5,2.1Z"/>
            <path class="cls-7" d="M378.1,75.9c-1.5,0-3-.4-4.3-1.2-.8-.5-1.9-.9-3-1-.4,0-.7-.4-.7-.8,0-.4.4-.7.8-.7,1.4,0,2.7.5,3.7,1.2,2.3,1.5,5.9,1.2,8-.7,2.6-2.4,6.9-2.7,9.8-.8.9.6,2,.9,3.1,1,1.8,0,3.5-.5,4.7-1.5l.2-.2c2.6-2.4,6.9-2.7,9.8-.8,2.1,1.3,5.2,1.3,7.3-.2.2-.2.5-.3.7-.5,2.6-2.4,6.9-2.7,9.8-.8,2.3,1.5,5.9,1.2,8-.7.3-.3.8-.3,1.1,0,.3.3.3.8,0,1.1-2.6,2.4-6.9,2.7-9.8.8-2.3-1.5-5.9-1.2-8,.7-.3.2-.5.5-.8.7-2.6,1.8-6.4,1.9-9,.2-2.3-1.5-5.7-1.2-7.8.5l-.2.2c-1.5,1.4-3.7,2.1-6,2-1.4,0-2.8-.5-3.9-1.2-2.3-1.5-5.9-1.2-8,.7-1.5,1.4-3.5,2.1-5.5,2.1Z"/>
          </g>
        </g>
        <g>
          <path class="cls-6" d="M378.8,344.9c0,0-.1,0-.2,0-.4,0-.7-.3-1-.7-.3-.4-.5-1.1-.2-2.2.6-2.4,3.5-5.2,5.7-6.4,1.9-1,4.5-1.5,6.4-1.8.8-.1,1.7-.3,2.1-.4.6-1.1.5-7.4.1-8.3-.2-.2-.9-.4-1.7-.7-.9-.3-2.1-.6-3.4-1.2-1.5-.8-6-3.7-6.2-5.6,0-.5.2-.9.6-1.2,1.2-.8,2.7-.1,4.5.7.9.4,1.9.9,3,1.2,1,.3,2.2.5,3.4.7,2.6.4,5.3.8,6.8,2.5,2.3,2.6,2.3,14.4-.6,17.4-1.7,1.8-3.8,1.7-6,1.5-1.9-.2-4-.3-6.4.6-2.7,1-4.2,2.2-5.2,3-.7.6-1.2.9-1.8.9ZM393,324.2c.8,1.1.7,6.9.3,9-.2.9-.4,1.3-.8,1.5-.4.3-1.2.4-2.6.7-1.8.3-4.3.8-6,1.7-2.1,1.1-4.5,3.7-4.9,5.4,0,.3-.1.7,0,.9.2-.1.5-.3.8-.6,1-.8,2.7-2.1,5.6-3.2,2.8-1,5.1-.8,7.1-.7,2.1.2,3.6.3,4.8-1,2.5-2.6,2.1-13.6.5-15.4-1.1-1.3-3.5-1.6-5.9-2-1.3-.2-2.6-.4-3.7-.7-1.2-.4-2.2-.8-3.2-1.3-1.2-.5-2.4-1.1-2.9-.9.4.8,3,3,5.3,4.2,1.1.6,2.2.9,3.1,1.1,1.1.3,2,.6,2.5,1.2h0Z"/>
          <path class="cls-6" d="M396.6,318.8c-.4,0-.8,0-1.2-.1-1.5-.3-2.7-1.2-3.5-2.4-.8-1.2-1.1-2.7-.8-4.2.3-1.5,1.2-2.7,2.4-3.5,1.2-.8,2.7-1.1,4.2-.8,1.5.3,2.7,1.2,3.5,2.4.8,1.2,1.1,2.7.8,4.2-.3,1.5-1.2,2.7-2.4,3.5h0c-.9.6-2,.9-3,.9ZM396.6,309.2c-.8,0-1.5.2-2.2.7-.9.6-1.5,1.5-1.8,2.5-.2,1.1,0,2.1.6,3,.6.9,1.5,1.5,2.5,1.8,1.1.2,2.1,0,3-.6h0c.9-.6,1.5-1.5,1.8-2.5.2-1.1,0-2.1-.6-3-.6-.9-1.5-1.5-2.5-1.8-.3,0-.6,0-.9,0Z"/>
          <g>
            <path class="cls-6" d="M389,363c-.6,0-1.2,0-1.9-.2-2.7-.5-5.1-2-6.7-4.3-1.6-2.3-2.2-5-1.7-7.7.5-2.7,2-5.1,4.3-6.7,2.3-1.6,5-2.2,7.7-1.7,2.7.5,5.1,2,6.7,4.3,1.6,2.3,2.2,5,1.7,7.7h0c-.5,2.7-2,5.1-4.3,6.7-1.8,1.2-3.8,1.9-5.9,1.9ZM388.9,343.8c-1.8,0-3.5.5-5,1.6-1.9,1.3-3.2,3.4-3.6,5.7s0,4.7,1.4,6.6c1.3,1.9,3.4,3.2,5.7,3.6,2.3.4,4.7,0,6.6-1.4,1.9-1.3,3.2-3.4,3.6-5.7h0c.9-4.8-2.3-9.4-7.1-10.2-.5,0-1.1-.1-1.6-.1Z"/>
            <rect class="cls-6" x="385.1" y="347.4" width="9.6" height="1.5" transform="translate(-29 660.8) rotate(-78.5)"/>
          </g>
          <g>
            <path class="cls-6" d="M371.5,336.6c-.6,0-1.2,0-1.9-.2-2.7-.5-5.1-2-6.7-4.3-1.6-2.3-2.2-5-1.7-7.7.5-2.7,2-5.1,4.3-6.7,2.3-1.6,5-2.2,7.7-1.7,2.7.5,5.1,2,6.7,4.3,1.6,2.3,2.2,5,1.7,7.7h0c-.5,2.7-2,5.1-4.3,6.7-1.8,1.2-3.8,1.9-5.9,1.9ZM371.4,317.4c-1.8,0-3.5.5-5,1.6-1.9,1.3-3.2,3.4-3.6,5.7s0,4.7,1.4,6.6c1.3,1.9,3.4,3.2,5.7,3.6,4.8.9,9.4-2.3,10.2-7.1h0c.4-2.3,0-4.7-1.4-6.6-1.3-1.9-3.4-3.2-5.7-3.6-.5,0-1.1-.1-1.6-.1Z"/>
            <rect class="cls-6" x="371.3" y="324.3" width="9.6" height="1.5" transform="translate(-67.4 100.5) rotate(-14)"/>
          </g>
          <path class="cls-6" d="M382.7,334.2l-1.5-.5c.2-.5,1.7-5.1,3.8-6.5,2.4-1.6,5.5,1.3,5.6,1.5l-1.1,1.1s-2.3-2.2-3.7-1.3c-1.4.9-2.7,4.4-3.1,5.7Z"/>
          <path class="cls-6" d="M386.7,333.6l-1.3-.9c.4-.6,1.2-1.1,1.9-1.2.6,0,1.1,0,1.5.4l-.9,1.2c0,0-.2,0-.3,0-.3,0-.6.3-.8.6Z"/>
        </g>
        <g>
          <g>
            <path class="cls-1" d="M427.3,267.9c-2.5,0-4.6-2-4.6-4.6s2-4.6,4.6-4.6,4.6,2,4.6,4.6-2,4.6-4.6,4.6ZM427.3,260.3c-1.7,0-3,1.4-3,3s1.4,3,3,3,3-1.4,3-3-1.4-3-3-3Z"/>
            <path class="cls-1" d="M434.3,283.3c-.6,0-1-.3-1.3-.7,0,.1-.2.3-.4.3-1.6.9-7.8-2.8-7.9-2.9-3.4-2.1-5.1-4.6-5.1-7.5s1.4-3.9,3.8-4.2c2.1-.3,3.7-.2,6.9,0,3.3.2,5.7,4.3,6,7.9.2,2,0,5.3-1,6.5-.4.4-.8.5-1.1.5ZM431,272.1c1.3,0,2.6,3.6,2.8,4.6.2.9.2,2,.3,2.9,0,.7,0,1.8.2,2.1.4-.5.8-2.8.6-5.3-.3-2.9-2.2-6.3-4.6-6.5-3-.2-4.6-.3-6.6,0-1.7.2-2.5,1.1-2.5,2.7,0,2.4,1.4,4.4,4.3,6.2,1.9,1.2,4.4,2.3,5.7,2.7-.9-1-3-2.5-4-3.3l-.7-.5c-2-1.4-3.2-3.4-3.6-4.1h0c-.3-.6-.3-1.2,0-1.6l1.4.7s0,0,0-.1c0,0,0,.1.1.2.4.6,1.5,2.4,3.2,3.6l.7.5c.5.4,1,.8,1.5,1.1,0-5.8.7-5.9,1.4-5.9,0,0,0,0,0,0ZM431.2,279.3c.6.5,1.1,1,1.4,1.4,0-.3,0-.7,0-1,0-.9,0-1.8-.2-2.6-.2-.9-.7-1.9-1.1-2.6-.1,1.2-.2,3.1-.1,4.8Z"/>
            <path class="cls-1" d="M422.8,298.3c-.4,0-.7-.2-1-.4-.8-.9-.7-3.4-.3-6.4,0-.4,0-.7.1-1v-1.4c.3-2,.4-3.2.5-5.2,0-2.5,0-6.5,0-6.5h1.5s0,4.1,0,6.6c0,2.1-.2,3.3-.4,5.3v1.4c-.2.3-.2.7-.2,1-.1,1.2-.5,4.3-.1,5.1.7-.5,1.9-3.3,2.4-5.5.4-1.7.8-5.4.8-5.5v-.7h.8c1.1,0,2.6,3.5,3,5.7.1.7.2,1.3.3,2,.2,1.2.5,3.2.9,3.5.4-.5,1-2.6.6-5.6-.2-1.5-.6-2.6-1-3.7-.5-1.4-1.1-2.9-1.1-5.1h1.5c0,2,.5,3.3,1,4.6.4,1.2.9,2.4,1.1,4.1.3,2.9-.2,5.8-1.1,6.9-.3.4-.7.5-1,.5-1.8,0-2.2-2.4-2.6-4.9,0-.6-.2-1.3-.3-1.9-.2-1.2-.7-2.3-1-3.2-.2,1.2-.4,2.6-.6,3.6,0,0-1.5,6.8-4,6.8Z"/>
            <path class="cls-1" d="M439.5,299.8h-30.3v-4.6h10.6v1.5h-9v1.5h28.8c1.7,0,3.4-.3,5-.8l1.1-.4v-1.4l-.6.2c-1.8.6-3.6.9-5.5.9h-5.1v-1.5h5.1c1.7,0,3.4-.3,5-.8l2.6-.9v4.6l-2.1.7c-1.8.6-3.6.9-5.5.9Z"/>
            <rect class="cls-1" x="426.5" y="295.2" width="1.8" height="1.5"/>
          </g>
          <path class="cls-4" d="M447.4,285.9h-15.1l5.9-2.8,2.8,1.8h6.4v1ZM436.8,284.9h2.3l-1-.6-1.4.6Z"/>
          <path class="cls-4" d="M408.1,291.8c-1.4,0-2.7-.4-3.8-1.2-.6-.5-1.5-.8-2.3-1v-1c1.2.2,2.2.6,3,1.2,1.8,1.4,4.7,1.4,6.4,0,2.1-1.7,5.5-1.7,7.7,0,.4.3.8.5,1.3.7l-.3,1c-.6-.2-1.1-.5-1.6-.9-1.8-1.4-4.7-1.4-6.4,0-1.1.8-2.5,1.3-3.9,1.3Z"/>
          <path class="cls-4" d="M436.2,291.6c-.1,0-.3,0-.4,0v-1c1.1,0,2.2-.2,3-.7.2-.1.4-.2.6-.4,2.1-1.7,5.5-1.7,7.7,0,1.8,1.4,4.7,1.4,6.4,0l.6.8c-2.1,1.7-5.5,1.7-7.7,0-1.8-1.4-4.7-1.4-6.4,0-.2.2-.4.3-.7.5-.9.5-2,.8-3.2.8Z"/>
          <path class="cls-4" d="M408.2,304.7c-1.4,0-2.7-.4-3.8-1.2-.7-.5-1.6-.9-2.6-1v-1c1.3.1,2.4.5,3.2,1.2,1.8,1.4,4.7,1.3,6.4,0,2.1-1.7,5.5-1.7,7.7,0,.7.5,1.5.8,2.4,1,1.4.2,2.8-.2,3.9-.9h.1c2.1-1.8,5.5-1.8,7.7-.1,1.6,1.2,4,1.4,5.8.3.2-.1.4-.2.6-.4,2.1-1.7,5.5-1.7,7.7,0,1.8,1.4,4.7,1.4,6.4,0l.6.8c-2.1,1.7-5.5,1.7-7.7,0-1.8-1.4-4.7-1.4-6.4,0-.2.2-.4.3-.7.5-2.1,1.2-5.1,1-7-.4-1.7-1.3-4.5-1.4-6.3,0h-.1c-1.2,1.1-3,1.5-4.7,1.3-1.1-.1-2.1-.5-2.9-1.2-1.8-1.4-4.7-1.4-6.4,0-1.1.8-2.5,1.3-3.9,1.3Z"/>
          <path class="cls-4" d="M414.8,309.6c-1.4,0-2.7-.4-3.8-1.2-.7-.5-1.6-.9-2.6-1v-1c1.3.1,2.4.5,3.2,1.2,1.8,1.4,4.7,1.3,6.4,0,2.1-1.7,5.5-1.7,7.7,0,.7.5,1.5.8,2.4,1,1.4.2,2.8-.2,3.9-.9h.1c2.1-1.8,5.5-1.8,7.7-.1,1.6,1.2,4,1.4,5.8.3.2-.1.4-.2.6-.4,2.1-1.7,5.5-1.7,7.7,0,1.8,1.4,4.7,1.4,6.4,0l.6.8c-2.1,1.7-5.5,1.7-7.7,0-1.8-1.4-4.7-1.4-6.4,0-.2.2-.4.3-.7.5-2.1,1.2-5.1,1-7-.4-1.7-1.3-4.5-1.4-6.3,0h-.1c-1.2,1.1-3,1.5-4.7,1.3-1.1-.1-2.1-.5-2.9-1.2-1.8-1.4-4.7-1.4-6.4,0-1.1.8-2.5,1.3-3.9,1.3Z"/>
          <path class="cls-4" d="M414.6,315c-1.4,0-2.7-.4-3.8-1.2-.7-.5-1.6-.9-2.6-1v-1c1.3.1,2.4.5,3.2,1.2,1.8,1.4,4.7,1.3,6.4,0,2.1-1.7,5.5-1.7,7.7,0,.7.5,1.5.8,2.4,1,1.4.2,2.8-.2,3.9-.9h.1c2.1-1.8,5.5-1.8,7.7-.1,1.6,1.2,4,1.4,5.8.3.2-.1.4-.2.6-.4,2.1-1.7,5.5-1.7,7.7,0,1.8,1.4,4.7,1.4,6.4,0l.6.8c-2.1,1.7-5.5,1.7-7.7,0-1.8-1.4-4.7-1.4-6.4,0-.2.2-.4.3-.7.5-2.1,1.2-5.1,1-7-.4-1.7-1.3-4.5-1.4-6.3,0h-.1c-1.2,1.1-3,1.5-4.7,1.3-1.1-.1-2.1-.5-2.9-1.2-1.8-1.4-4.7-1.4-6.4,0-1.1.8-2.5,1.3-3.9,1.3Z"/>
          <path class="cls-4" d="M408.1,298.2c-1.4,0-2.8-.4-3.8-1.2-.6-.5-1.5-.8-2.3-1v-1c1.2.2,2.2.6,3,1.2.9.7,2,1,3.2,1v1h0Z"/>
          <path class="cls-4" d="M450.3,298c-.5,0-1.1,0-1.6-.2l.2-1c1.6.4,3.4,0,4.6-.9l.6.8c-1,.8-2.4,1.3-3.9,1.3Z"/>
        </g>
        <g>
          <path class="cls-1" d="M451.5,296.5l-.3-.2c-.2,0-4.4-2.3-4.9-4.9-.1-.6,0-1.2.3-1.7.3-.6.9-1,1.6-1.2,2.4-.7,6.3,1.4,6.5,1.5l.3.2v.4c-.2.5-.3,1-.5,1.4h0c-.6,1.6-1.5,3-2.7,4.3l-.3.3ZM449.2,289.3c-.3,0-.6,0-.8.1-.4.1-.8.4-1,.8-.2.3-.2.7-.2,1.1.3,1.6,2.8,3.3,4,4,1-1.1,1.7-2.3,2.2-3.6h0c.1-.3.2-.6.3-.9-1-.5-3-1.4-4.6-1.4Z"/>
          <rect class="cls-1" x="439.2" y="277.6" width="1" height="16.7" transform="translate(-21.9 535) rotate(-61.4)"/>
        </g>
      </g>
      <g>
        <path class="cls-5" d="M344.6,452.2l-13,52.5h-10l-12.9-52.5h10.9l7,42.7,7-42.7h10.9Z"/>
        <path class="cls-5" d="M362.6,495.4h-10.2l-1.5,9.4h-10.3l12.3-52.5h9.3l12.3,52.5h-10.3l-1.6-9.4ZM361.4,488.4l-4-23.9-3.9,23.9h7.9Z"/>
        <path class="cls-5" d="M410.2,452.2v52.5h-8.6l-12.7-31.7v31.7h-10v-52.5h8.6l12.7,31.3v-31.3h10Z"/>
        <path class="cls-5" d="M460.1,478.5c0,16.8-11.2,25.7-32.4,26.2h-9.6v-52.5h9.6c21.1.5,32.4,9.4,32.4,26.2ZM449.6,478.5c0-10.8-4.6-20.7-21.6-20.7v41.3c16.9,0,21.6-9.9,21.6-20.6Z"/>
        <path class="cls-5" d="M482.3,487.7c-1.8.5-3.8.9-5.8,1.2v15.8h-10v-52.5h10c11.2,0,22.4,3.2,21.6,17.9-.5,6.5-3.6,11.2-8.4,14.2l11.7,20.3h-9.7l-9.3-17ZM476.4,483c6.2-1.5,10.3-5.2,11.2-11.8.8-7.4-2.2-11.8-11.2-12.8v24.7Z"/>
        <path class="cls-5" d="M516.5,459.3v15.7h13.9v7h-13.9v15.7h15.8v7h-25.8v-52.5h25.8v7h-15.8ZM520.8,438.7h7.6l-5,9.8h-5.3l2.8-9.8Z"/>
      </g>
      <g>
        <path class="cls-2" d="M343.8,529.5c-1,1.3-4.4,4.4-9,3.5-4.9-1-6.7-4.5-7.6-7.9h-2.3l-.3,2h-2.2l2.7-11.4h2s1.4,6.3,1.6,7.1c.9,4.4,2.5,8.2,6.2,9.1,3.8.9,6.8-2.2,7.5-3.9l1.6,1.4ZM325.1,523.5h1.8l-.9-5.2-.9,5.2Z"/>
        <path class="cls-2" d="M344.7,520.6v6.4h-2v-.5c-.7.4-1.6.6-2.5.6-3.1,0-5.5-2.6-5.5-5.8s2.4-5.8,5.5-5.8,3.1.7,4,1.7l-1.3,1.4c-.5-1.1-1.6-1.9-2.7-1.9-1.9,0-3.1,2-3.1,4.5s1.2,4.5,3.1,4.5,2-.7,2.5-1.8v-2h-1.8v-1.5h3.8Z"/>
        <path class="cls-2" d="M352.8,517.2v3.4h3v1.5h-3v3.4h3.4v1.5h-5.6v-11.4h5.6v1.5h-3.4ZM354.3,514.9l-.8-1.2-.8,1.2h-1.7l1.8-2.1h1.6l1.8,2.1h-1.7Z"/>
        <path class="cls-2" d="M368.8,515.7v11.4h-1.9l-2.7-6.9v6.9h-2.2v-11.4h1.9l2.7,6.8v-6.8h2.2Z"/>
        <path class="cls-2" d="M382.3,524.2l1.3,1.4c-.9,1-2.3,1.7-3.8,1.7-3.1,0-5.5-2.6-5.5-5.8s2.4-5.8,5.5-5.8,2.9.7,3.8,1.7l-1.3,1.4c-.5-1.1-1.4-1.9-2.5-1.9-1.9,0-3.1,2-3.1,4.5s1.2,4.5,3.1,4.5,2-.7,2.5-1.8Z"/>
        <path class="cls-2" d="M391.1,515.7v11.4h-2.2v-11.4h2.2Z"/>
        <path class="cls-2" d="M401,525h-2.2l-.3,2h-2.2l2.7-11.4h2l2.7,11.4h-2.2l-.3-2ZM400.7,523.5l-.9-5.2-.8,5.2h1.7Z"/>
        <path class="cls-2" d="M425.8,521.4c0,3.6-2.4,5.6-7,5.7h-2.1v-11.4h2.1c4.6,0,7,2,7,5.7ZM423.5,521.4c0-2.3-1-4.5-4.7-4.5v8.9c3.7,0,4.7-2.1,4.7-4.5Z"/>
        <path class="cls-2" d="M433.7,517.2v3.4h3v1.5h-3v3.4h3.4v1.5h-5.6v-11.4h5.6v1.5h-3.4Z"/>
        <path class="cls-2" d="M455.9,515.7v1.5h-1.7v9.8h-2.2v-9.8h-1.7v-1.5h5.6Z"/>
        <path class="cls-2" d="M468.7,515.7v8.1c0,2.2-1.2,3.5-3.5,3.5s-3.5-1.3-3.5-3.5v-8.1h2.2v8.1c0,1.9.6,2.1,1.4,2.1s1.4-.3,1.4-2.1v-8.1h2.2Z"/>
        <path class="cls-2" d="M478.1,523.4c-.4.1-.8.2-1.3.3v3.4h-2.2v-11.4h2.2c2.4,0,4.9.7,4.7,3.9,0,1.4-.8,2.4-1.8,3.1l2.5,4.4h-2.1l-2-3.7ZM476.9,522.4c1.3-.3,2.2-1.1,2.4-2.6.2-1.6-.5-2.5-2.4-2.8v5.3Z"/>
        <path class="cls-2" d="M489.8,515.7v11.4h-2.2v-11.4h2.2Z"/>
        <path class="cls-2" d="M495.3,525.3c.4.3,2.5,1.1,2.5-.5,0-2.1-2.5-4-2.5-6.5,0-1.8.8-3.3,4.4-2.5v1.4c-1.4-.6-2.2,0-2.2.8,0,2.2,2.3,3.4,2.5,5.9.4,4.4-4.4,3.2-4.7,3v-1.7Z"/>
        <path class="cls-2" d="M516.6,515.7v11.4h-2.2v-7.3l-2.5,5.2h-1.4l-2.5-5.2v7.3h-2.2v-11.4h1.9l3.4,7.4,3.5-7.4h1.9Z"/>
        <path class="cls-2" d="M533.3,521.4c0,3.2-2.4,5.8-5.5,5.8s-5.5-2.6-5.5-5.8,2.4-5.8,5.5-5.8,5.5,2.6,5.5,5.8ZM530.9,521.4c0-2.5-1.2-4.5-3.1-4.5s-3.1,2-3.1,4.5,1.2,4.5,3.1,4.5,3.1-2,3.1-4.5Z"/>
      </g>
      <g>
        <path class="cls-5" d="M354.8,430.3v1.9h-1.9v9.7h-2.7v-9.7h-1.9v-1.9h6.5Z"/>
        <path class="cls-5" d="M374,430.3v7.4c0,2.7-1.1,4.4-4.2,4.4s-4.2-1.6-4.2-4.4v-7.4h2.7v7.4c0,2.3.4,2.7,1.4,2.7s1.4-.4,1.4-2.7v-7.4h2.8Z"/>
        <path class="cls-5" d="M389.6,438.5c-.4,0-.9.2-1.4.2v3.1h-2.7v-11.5h2.4c1.5,0,5.7-.2,5.5,4.2,0,1.6-.8,2.6-1.8,3.3l2.3,4.1h-2.5l-1.8-3.3ZM388.2,437.2c1.3-.2,2.2-.8,2.4-2.5.2-1.8-.8-2.6-2.4-2.8v5.3Z"/>
        <path class="cls-5" d="M417.1,430.3v11.5h-2.7v-7.5l-2.8,5h-1.6l-2.8-5v7.5h-2.7v-11.5h2.5l3.8,6.9,3.8-6.9h2.5Z"/>
        <path class="cls-5" d="M432.8,439.6h-2.1l-.3,2.2h-2.8l2.6-11.5h3.2l2.5,11.5h-2.7l-.3-2.2ZM432.5,437.7l-.8-5.2-.8,5.2h1.6Z"/>
        <path class="cls-5" d="M463.4,430.3c4,0,6.9,2.1,6.9,5.7s-2.9,5.8-6.9,5.8h-2.7v-11.5h2.7ZM467.8,436.1c0-2.4-1.5-4.6-4.4-4.6v9.1c2.9,0,4.4-2.2,4.4-4.6Z"/>
        <path class="cls-5" d="M493.2,436c0,3.5-2.5,6-6,6s-6-2.5-6-6,2.5-6,6-6,6,2.5,6,6ZM490.4,436c0-2.6-1.3-4.6-3.2-4.6s-3.2,2-3.2,4.6,1.3,4.6,3.2,4.6,3.2-2,3.2-4.6Z"/>
      </g>
    </g>
  </g>
</svg>