<?xml version="1.0" encoding="UTF-8"?>
<svg id="Camada_1" xmlns="http://www.w3.org/2000/svg" version="1.1" viewBox="0 0 841.9 595.3">
  <!-- Generator: Adobe Illustrator 29.2.1, SVG Export Plug-In . SVG Version: 2.1.0 Build 116)  -->
  <defs>
    <style>
      .st0 {
        fill: #fff;
      }
    </style>
  </defs>
  <g id="Camada_11" data-name="Camada_1">
    <g>
      <g>
        <path class="st0" d="M475.3,85.2l.6.3.2-.6c.1-.4.1-.8,0-1.1l-2.1-6.8c-.2-.5-.5-.8-1-.9-.5,0-.9,0-1.3.5l-4.6,5.4c-.2.3-.4.6-.4,1v.6h.6c2.7,0,5.5.4,8,1.6h0ZM472.6,77.2s.1,0,.2,0h0s.1,0,.1.2l2,6.5c-1.1-.5-2.2-.8-3.3-1-1.1-.2-2.3-.4-3.5-.4l4.4-5.2h0Z"/>
        <path class="st0" d="M468.9,116.4c-2.7,0-5.5-.4-7.9-1.6l-.5-.2-.2.5c-.2.4-.3.9-.1,1.4l2.1,6.8c.1.5.5.8.9.9h0c.5,0,.9,0,1.3-.5l4.6-5.4c.3-.3.5-.8.4-1.3v-.5h-.6,0ZM468.2,117.6l-4.6,5.4s-.1,0-.2,0h0s-.1,0-.1-.2l-2.1-6.8h0c2.2,1,4.6,1.5,7,1.5h0Z"/>
        <path class="st0" d="M449.9,101c.2.2.4.3.7.4h1.2v-.6c0-1.4,0-2.8.3-4.2.3-1.3.7-2.6,1.3-3.8l.3-.5-.6-.2c-.4-.2-.8-.2-1.2,0l-6.8,2.1c-.5.2-.9.5-.9,1s0,.9.5,1.3l5.4,4.6h-.2ZM445.3,95.2l6.6-2c-.4,1.1-.8,2.2-1,3.3-.2,1.2-.4,2.4-.4,3.7l-5.3-4.5v-.2c-.1,0-.1,0,.1,0v-.2Z"/>
        <path class="st0" d="M485.2,98.7h-.6v.6c0,1.3,0,2.7-.3,4-.3,1.4-.7,2.7-1.4,4l-.3.5.5.2h1.3l6.8-2.1c.5-.2.9-.5.9-1s0-.9-.5-1.3l-5.4-4.6c-.3-.3-.7-.4-1.1-.4h0ZM491.1,104.8s0,0-.2,0l-6.7,2.1c.5-1.1.9-2.3,1.1-3.5.2-1.1.4-2.3.4-3.4l5.3,4.5v.2q.1,0,.1,0Z"/>
        <path class="st0" d="M455.1,88.9l.4.5.4-.5c1.8-2,4.2-3.6,6.8-4.5l.6-.2-.3-.6c-.2-.4-.5-.6-.8-.8l-6.3-3.3c-.5-.2-1-.2-1.4,0-.4.3-.6.7-.5,1.2l.6,7.1c0,.4.2.8.5,1.1h0ZM455.2,80.5h.2l6.1,3.2c-2.2.9-4.1,2.2-5.8,3.9l-.6-6.9v-.2h0Z"/>
        <path class="st0" d="M480.6,120.7h.1c.3,0,.7,0,.9-.2.4-.3.6-.7.6-1.2l-.6-7.1c0-.4-.2-.9-.6-1.2l-.4-.4-.4.4c-1.8,2-4.2,3.5-6.8,4.4l-.5.2.2.5c.2.5.5.8.9,1.1l6.3,3.3s.2,0,.3,0h0ZM474.5,116.3c2.2-.9,4.3-2.2,6-3.9l.6,7v.2h-.2l-6.3-3.3h-.1Z"/>
        <path class="st0" d="M452.4,104.9l-.5.2c-.4.2-.8.5-1,.9l-3.3,6.3c-.2.5-.2,1,0,1.4.2.2.4.4.7.5h.5l7.1-.6c.5,0,.9-.3,1.2-.6l.4-.4-.4-.4c-2-1.8-3.6-4.2-4.5-6.7l-.2-.5h0ZM455.8,112.5l-7.1.6h-.2v-.2l3.3-6.2c.9,2.2,2.3,4.3,4,6h0v-.2Z"/>
        <path class="st0" d="M483.7,94.7l.2.6.6-.3c.4-.2.7-.5.9-.8l3.3-6.3c.2-.5.2-1,0-1.4-.3-.4-.7-.6-1.2-.6l-7.1.6c-.4,0-.7.2-1,.4l-.5.4.5.4c2,1.9,3.6,4.2,4.4,6.8v.2ZM487.5,87.1h.2v.2l-3.2,6.1c-.9-2.2-2.2-4.2-3.8-5.8l6.8-.6h0Z"/>
        <path class="st0" d="M470.8,87.6c-3.3-.7-6.6,0-9.4,1.8s-4.7,4.7-5.4,8c-.2.9-.3,1.9-.3,2.8v.4h.4c.4.2.7.3,1.1.5.6.2,1.3.3,1.9.5,7.6,1.6,15.5-.9,20.5-6.5l.2-.3-.2-.3c-1.7-3.6-4.9-6.1-8.8-6.9h0ZM456.7,99.8c0-.7,0-1.5.2-2.2,1.3-6.2,7.4-10.2,13.6-8.9,3.4.7,6.3,2.9,7.9,5.9-5.4,5.8-13.8,7.8-21.7,5.2Z"/>
        <path class="st0" d="M480.8,91.6c-2.2-3.4-5.6-5.7-9.6-6.5s-8,0-11.4,2.2-5.7,5.6-6.5,9.6c-1.6,7.8,3.1,15.4,10.5,17.6.4,0,.8.2,1.3.3,4,.8,8,0,11.4-2.2s5.7-5.6,6.5-9.6,0-8-2.2-11.4h0ZM481.9,102.8c-.8,3.7-2.9,6.8-6,8.9s-6.9,2.8-10.6,2-6.8-2.9-8.9-6-2.8-6.9-2-10.6,2.9-6.8,6-8.9,6.9-2.8,10.6-2c7.6,1.6,12.5,9,10.9,16.6Z"/>
      </g>
      <g>
        <path class="st0" d="M446.7,326.3c-1.3,0-7.6.3-9.9,1.4,0,0-.1,0-.2.1-.2.2-1.2,1.1-2,2.3-.4.7-.7,1.3-.9,1.9-.3,1.3,1.2,2.3,1.9,2.7l5.9,3.5s.4.3,1,.3.2,0,.3,0c.8-.1,1.6-.7,2.3-1.8l5.6-8.5h0l-.2-.2.2.2h0c.2-.3.2-.7,0-1-.3-.5-1-1-4.2-.9h.2ZM449.6,327.8l-5.5,8.3c-.6,1-1.1,1.2-1.4,1.3h-.4l-5.7-3.4-.3-.2c-.5-.3-1.5-.9-1.4-1.4,0-.4.3-.9.7-1.5.6-.9,1.4-1.8,1.7-2,1.6-.7,6-1.1,9.3-1.2,1.3,0,2.3,0,2.9.2h0Z"/>
        <path class="st0" d="M440.8,339.3l-6.6-4.3c-.4-.3-.9-.3-1.4-.2-.6.1-1.2.5-1.5,1.1l-7.8,11.9c-.3.5-.5,1.1-.4,1.7,0,.6.4,1.1.8,1.4l6.6,4.3c.3.2.6.3,1,.3.7,0,1.5-.4,1.9-1.1l7.8-11.9c.7-1.1.5-2.4-.4-3v-.2ZM440.4,340.9c0,.2,0,.5-.2.7l-7.8,11.9c-.3.4-.8.7-1.1.5l-6.6-4.3c-.3-.2-.3-.8,0-1.2l7.8-11.9c.2-.3.4-.5.7-.5h.4l6.6,4.3c.1,0,.2.3.2.5Z"/>
        <path class="st0" d="M420.4,370.5l-6.6-4.3c-.4-.3-.9-.3-1.4-.2-.6.1-1.2.5-1.5,1.1l-7.1,10.8c-.4.6-.5,1.2-.4,1.9.1.5.4.9.7,1.1l6,5.4c.3.2.6.3,1,.3h.6c.5-.2,1-.5,1.4-1l7.8-11.9c.7-1.1.5-2.4-.4-3v-.2ZM404.9,378.5l7.1-10.8c.2-.2.4-.4.6-.5h.5l6.6,4.3c.1,0,.2.3.2.5s0,.5-.2.7l-7.8,11.9c-.3.5-.8.7-1,.5l-6-5.4c-.3-.2-.3-.8,0-1.2h0Z"/>
        <path class="st0" d="M429.6,356.5l-6.6-4.3c-.9-.6-2.1-.3-2.7.5l-6.1,9.3c-.3.4-.4,1-.3,1.5s.4,1,.9,1.2l6.6,4.3c.3.2.7.3,1.1.3.6,0,1.3-.3,1.6-.9l6.1-9.4c.3-.4.4-.9.3-1.5-.1-.5-.4-1-.9-1.3v.3ZM429.1,358.5l-6.1,9.4c0,.1-.2.2-.4.3-.2,0-.4,0-.5-.1l-6.6-4.3c-.2-.1-.3-.3-.3-.4v-.5l6.1-9.4c0-.1.2-.2.4-.3h.1c.1,0,.3,0,.4.1l6.6,4.3c.3.2.4.6.2.9h0Z"/>
        <path class="st0" d="M449.9,335.4c-.9-.6-2.1-.3-2.7.6l-1.4,2.2c-.6.9-.3,2.1.6,2.7.3.2.7.3,1,.3h.4c.5-.1.9-.4,1.2-.8l1.4-2.2c.6-.9.3-2.1-.6-2.7h.1ZM449.4,337.4l-1.4,2.2c0,.1-.2.2-.4.3h-.5c-.1,0-.2-.2-.3-.4v-.5l1.4-2.2c.1-.2.3-.3.5-.3s.2,0,.3.1c.3.2.4.6.2.9h.2Z"/>
        <path class="st0" d="M445.2,342.7c-.9-.6-2.1-.3-2.7.6l-1.4,2.2c-.3.4-.4.9-.3,1.4s.4.9.8,1.2c.3.2.7.3,1.1.3h.4c.5-.1.9-.4,1.2-.8l1.4-2.2c.6-.9.3-2.1-.6-2.7h.1ZM444.7,344.6l-1.4,2.2c0,.1-.2.2-.4.3h-.5c-.2,0-.2-.2-.3-.4v-.5l1.4-2.2c0-.1.2-.2.4-.3h.1c.1,0,.2,0,.3.1.1,0,.2.2.3.4v.5h.1Z"/>
        <path class="st0" d="M460.4,323.1l3.2,2.1c.1,0,.2.1.3.1s.3,0,.5-.2.5-.5.9-1h0c.4-.6.5-1.1.4-1.5,0-.3-.3-.5-.5-.7-.3-.3-1.5-1.3-2.9-1.1-.8,0-1.5.6-2.1,1.4,0,.1-.1.3,0,.5,0,.2.1.3.3.4h0ZM461.7,322.5c.2-.2.5-.3.7-.4.9-.1,1.8.7,1.8.7h0s0,.2-.2.5c0,.1-.2.3-.3.4l-2.1-1.4v.2Z"/>
        <path class="st0" d="M419.1,391l-2.9-1.9c-.9-.6-2.1-.3-2.7.6s-.3,2.1.6,2.7l2.9,1.9c.3.2.7.3,1,.3.6,0,1.2-.3,1.6-.9h0c.6-.9.3-2.1-.6-2.7h.1ZM418.6,393c0,.1-.2.2-.4.3h-.5l-2.9-1.9c-.3-.2-.4-.6-.2-.9,0-.1.2-.2.4-.3h.1c.1,0,.2,0,.3.1l2.9,1.9c.3.2.4.6.2.9h.1Z"/>
        <path class="st0" d="M470.1,328.4c-.2-.2-.5-.3-.7-.4.2,0,.4,0,.5-.3l.2-.2c.4-.7,1.1-2,.8-3.1-.2-.6-.5-1-1.1-1.2-1.1-.8-6.6-4.9-9.1-3.8-2.7,1.2-8,3.4-8.8,3.6-2.3.3-13.9,1.9-17.3,2.7-.4,0-.8.2-1.3.3-3.1.6-6.6,1.3-10.5,7.1-1.1,1.7-2.5,3.8-4.2,6.3-8.1,12.4-21.1,32.4-21.6,33.3,0,0-3.2,4.9,1.4,9,.1.1,12.6,12.1,23.8,17.9h.3c.2,0,.4,0,.5-.2l4.3-5.4h0c.2-.3.1-.6,0-.8.1,0,.2.2.4.3,1.1.7,2.3,1,3.5,1s.9,0,1.3-.1c1.7-.4,3.1-1.3,4-2.8,1.9-3,1.1-6.9-1.9-8.9-3-1.9-6.9-1.1-8.9,1.8-1.4,2.1-1.4,4.6-.2,6.6-.1-.2-.3-.5-.4-.7-1-2-.9-4,.3-5.8,0,0,.1-.2.2-.3h0v-.2c.5-.8,3.3-4.6,8.5-1.8.3.2.7,0,.8-.2l27.6-42.1c.2-.3.1-.6,0-.8,0,0-4.6-4.8-1.8-8.3h0c0-.1,1-2.3,3.7-3.1-1.3.4-2.5,1.3-3.3,2.5-1.9,3-1.1,6.9,1.8,8.9,1.1.7,2.3,1,3.5,1,2.1,0,4.1-1,5.4-2.9,1.9-3,1.1-6.9-1.9-8.9h.2ZM469.4,329.5c2.4,1.5,3,4.7,1.5,7.1s-4.7,3-7.1,1.5-3-4.7-1.5-7.1c1-1.5,2.6-2.3,4.3-2.3s1.9.3,2.8.8h0ZM461.3,339.6l-27,41.2c-2.1-1-4.1-1.2-5.9-.5-2.6.9-3.8,3.2-3.8,3.2-3.3,4.6,0,8.7,1.4,10.1l-3.6,4.5c-10.8-5.7-22.5-16.9-23-17.4-3.7-3.3-1.3-7.2-1.2-7.3h0c2.3-3.6,14-21.8,21.5-33.2,1.6-2.5,3-4.6,4.2-6.3,3.6-5.4,6.8-6,9.7-6.5.4,0,.9-.2,1.3-.3,2.9-.6,11.8-1.9,16.9-2.6h.4c1-.3,6.5-2.7,8.9-3.7h.1c.2-.1.3-.1.5-.1,1.7,0,5.3,2.2,7.3,3.8h.1c.2.1.4.3.4.5.2.6-.3,1.4-.5,1.8-5.5-1.5-8.2,1.5-9.1,2.9-.2.3-.3.6-.3.6-2.9,3.7.6,8.3,1.6,9.6v-.3ZM426.8,385.2c1.5-2.4,4.7-3,7.1-1.5,1.1.7,1.9,1.9,2.2,3.2.3,1.3,0,2.7-.7,3.8-.7,1.1-1.9,1.9-3.2,2.2-1.3.3-2.7,0-3.8-.7-1.1-.7-1.9-1.9-2.2-3.2-.3-1.3,0-2.7.7-3.8h-.1Z"/>
        <path class="st0" d="M464.4,337.1c.7.4,1.4.6,2.2.6,1.3,0,2.6-.6,3.3-1.8,1.2-1.8.7-4.3-1.2-5.5-1.8-1.2-4.3-.7-5.5,1.1-1.2,1.8-.7,4.3,1.1,5.5h.1ZM464.4,332.3c.4-.6,1-1,1.7-1.2h.6c.5,0,1,.1,1.5.4,1.2.8,1.6,2.5.8,3.7-.8,1.2-2.5,1.6-3.7.8-1.2-.8-1.6-2.5-.8-3.7h-.1Z"/>
        <path class="st0" d="M428.9,391.3c.7.4,1.4.6,2.2.6s.5,0,.8,0c1-.2,1.9-.8,2.5-1.7.6-.9.8-1.9.6-3s-.8-1.9-1.7-2.5c-1.8-1.2-4.3-.7-5.5,1.1-1.2,1.8-.7,4.3,1.1,5.5ZM428.9,386.5h0c.4-.6,1-1,1.7-1.2h.6c.5,0,1,.1,1.5.4.6.4,1,1,1.2,1.7.1.7,0,1.4-.4,2s-1,1-1.7,1.2c-.7.1-1.4,0-2-.4-1.2-.8-1.6-2.5-.8-3.7h-.1Z"/>
      </g>
      <g>
        <rect class="st0" x="416.1" y="187.8" width="1.7" height="8.5" transform="translate(-30.2 295.9) rotate(-37.8)"/>
        <rect class="st0" x="444.5" y="195.2" width="10.2" height="1.7" transform="translate(-21.5 332.4) rotate(-39.7)"/>
        <rect class="st0" x="421" y="185.5" width="1.7" height="3.6" transform="translate(-39.3 206.3) rotate(-26.3)"/>
        <rect class="st0" x="443.5" y="189.4" width="4.6" height="1.7" transform="translate(25.2 431.1) rotate(-52.9)"/>
        <rect class="st0" x="433.3" y="189.8" width="10.8" height="1.7" transform="translate(130.1 556.1) rotate(-73.3)"/>
        <path class="st0" d="M439.1,210.5c1.5-1.5,3.6-3.5,4.4-6,1.3-4.4.4-11.5-.6-13-.3-.4-.6-.5-.9-.6-.5,0-1,.1-1.4.4-1,.8-1.1,2.6-1.3,4.9,0,1.4-.2,2.9-.5,4.3-.2.7-.4,1.3-.7,1.8h0v.2c-1.2,2.3-3.3,3.4-6.3,3.1-3-.3-4.8-1.6-5.4-4.1v-.2h0c-.1-.6-.2-1.2-.3-1.9,0-1.4,0-2.9.2-4.2.2-2.3.4-4.1-.4-5.1-.3-.4-.8-.6-1.3-.7-.6,0-1,.4-1.1.5-1.3,1.6-3.9,8.3-2.8,12.7.8,3.3,2.3,5.3,3.3,6.8.4.5.7,1,.9,1.4.6,1.1,1.1,3.1.5,6.2-.3,1.5-.5,2.4-.8,3.5-.2,1-.5,2.1-.9,4,0,.3-1.7,7.7,0,10,.4.5.9.7,1.2.7,2.2.2,2.6-1.8,3.4-5.2.1-.6.3-1.2.4-1.9.5-1.9,1-3.5,1.5-4.7.3,1.2.5,2.9.7,4.9,0,.7,0,1.4.1,1.9.2,3.5.3,5.6,2.5,5.8h.1c.3,0,.8,0,1.2-.5,2-1.9,1.8-9.5,1.8-9.8,0-1.8-.1-3-.2-3.9v-.2c0-1.1,0-2-.1-3.5,0-2.7.4-4.6,1.5-6,.3-.4.8-.9,1.4-1.4v-.2ZM434.5,217.9c0,1.5,0,2.4.1,3.5,0,1,0,2.2.2,4.2.1,3.9-.4,7.8-1.3,8.6-.7,0-.8-1.2-.9-4.2,0-.6,0-1.2-.1-1.9-.3-4.5-1.2-7.2-1.3-7.5l-.6-1.7-.9,1.6c-.2.3-1.5,2.8-2.6,7.1-.2.6-.3,1.2-.4,1.7v.2c-.7,2.9-1,4-1.7,3.9-.7-.9-.5-4.9.3-8.7.4-1.9.7-3.1.9-4.1.2-1.1.4-2,.8-3.4.7-3.5,0-5.9-.6-7.2-.3-.5-.6-1-1.1-1.6-1-1.3-2.3-3.1-3-6.2-.9-3.8,1.5-9.9,2.4-11.1.4.5.2,2.4,0,3.9-.1,1.4-.3,3-.2,4.5,0,.8.2,1.5.3,2.2,0,1.3,1.4,4.2,1.8,5l.2.3,1.4-.7c1,.5,2.1.8,3.5,1,1.6.1,3,0,4.3-.5l-.2.3,1.4.9.2-.3c.6-1,2.1-3.3,2.3-4.5.3-.6.6-1.4.8-2.1.4-1.5.5-3.1.6-4.6s.2-3.3.7-3.7c.5,1.3,1.4,7.4.2,11.4-.6,2.1-2.5,3.9-4,5.3l-1.5,1.5c-1.4,1.7-2,4-1.9,7.1v-.2Z"/>
        <path class="st0" d="M431.9,205h.5c1.2,0,2.3-.4,3.2-1.2,1-.9,1.7-2.1,1.8-3.4.1-1.3-.3-2.6-1.2-3.7-.9-1-2.1-1.7-3.4-1.8s-2.6.3-3.7,1.2c-1,.9-1.7,2.1-1.8,3.4-.2,2.8,1.8,5.2,4.6,5.4h0ZM432.3,196.7h.3c.9,0,1.7.5,2.3,1.2s.9,1.6.8,2.5c-.2,1.8-1.8,3.2-3.6,3.1-.9,0-1.7-.5-2.3-1.2-.6-.7-.9-1.6-.8-2.5.2-1.7,1.6-3.1,3.3-3.1h0Z"/>
        <rect class="st0" x="427.8" y="184.4" width="1.7" height="10.7" transform="translate(-7.6 18.1) rotate(-2.4)"/>
        <path class="st0" d="M436.3,167.9h-.5c-11.9-1-22,7.6-23.1,19.6v1.7c-.1,0,1.3-.9,1.3-.9,0,0,9.5-5.9,20.4-5,11,1,19.9,8.5,19.9,8.6l1.2,1.1v-1.6c.7-5.7-1.1-11.3-4.9-15.8-3.5-4.1-8.3-6.7-13.6-7.5h-.6v-.2ZM426,170.9c-2.9,2.3-5.1,5.8-6,10.1v.4l1.5.4v-.4c1.4-5.9,5.6-10.4,10.4-11.6-1.9,2-3.4,5.6-4.1,9.9v.4l1.6.3v-.4c1-5.9,3.6-10.5,6.1-10.5s0,0,0,0h.4c2.4.5,4.2,5.4,4.1,11.3v.4h1.6v-.4c0-4.2-.7-7.8-2.1-10.2,4.3,2.2,7.3,7.1,7.5,12.9v.4h1.7v-.4c-.2-4.3-1.7-8.1-4.1-10.9,5.6,3.6,9.3,9.9,9.2,16.9-2.9-2.1-10.5-7.2-19.6-8-9-.8-16.9,2.8-20,4.4,1.2-7,5.6-12.5,11.6-15.1h.2Z"/>
      </g>
      <g>
        <path class="st0" d="M511.7,132.7c.9.9,1.7,1.8,2.3,2.8.9,1.5,1.1,2.4,1.3,3.5.3,1.1.5,2.4,1.5,4.3,1.9,3.6,3.1,5.2,5.1,8,.6.8,1.1,1.6,1.6,2.5,1.5,2.5,2.8,4.6,4.7,4.1h.2c.4-.1.7-.4.9-.8.7-1.7-1-5.9-2.4-8.2-1.3-2.1-2.2-3.8-2.3-4.1,0-.5,2-1.9,4.8-2.6.9-.2,1.9-.3,2.9-.4,1.9-.2,3.8-.3,4.9-1.8.7-.8.4-1.5.2-1.8-1-1.7-5.9-1.6-7.5-1.4-1.9.3-4,1-5.1,1.4-.5-2-.9-4.8-.7-5.6,0-.2.5-.7.8-1.1,1.2-1.6,3.3-4.2,3.5-7.9.2-4.2,0-9.3-2.2-9.5-1.7,0-2,2.2-2.4,5.2,0,1-.2,2-.4,3-.6,3.3-1.6,5.6-5,6.4-2.8.7-4.8-.9-6.4-4.9-.2-.6-.4-1.2-.7-1.8-1.2-3.3-2.2-6.1-4.3-5.7-.3,0-.7.3-1,.8-1,2,.7,7.8,1.5,9.7,1.1,2.6,2.7,4.4,4.1,5.9h.1ZM507.5,117.7c.7-.2,1.9,2.9,2.5,4.7.2.6.4,1.2.7,1.8,1.8,4.7,4.6,6.7,8.2,5.8,4.5-1,5.6-4.3,6.2-7.6.2-1,.3-2.1.4-3.1.2-1.4.4-3.3.8-3.8.5.5,1,3.2.8,7.9-.2,3.2-2,5.5-3.2,7-.5.7-.9,1.2-1.1,1.6-.4,1.4.3,5.4.9,7.3l.3.8.8-.3s3-1.3,5.5-1.7c2.4-.4,5.6,0,6,.5v.2c-.8,1-2.2,1.1-3.9,1.2-1,0-2.1.2-3.1.5-1.7.4-4,1.4-5.2,2.6h0l-1.4.6.7,1.5c.4,1,1.8,3.3,2.4,4.3,1.8,2.9,2.7,6.3,2.4,6.8-.8.2-2-1.8-3.1-3.5-.5-.8-1.1-1.7-1.7-2.6-2-2.8-3.1-4.3-4.9-7.8-.9-1.7-1.2-2.8-1.4-3.9-.3-1.2-.5-2.3-1.5-3.9-.7-1.1-1.5-2-2.4-3-1.4-1.5-2.9-3.1-3.8-5.5-1.3-3.2-2.1-7.9-1.6-8.5h-.3Z"/>
        <path class="st0" d="M518.7,128c.2,0,.3,0,.5-.1,2.1-.7,3.4-3,2.9-5.3-.6-2.4-3-4-5.4-3.5-1.2.3-2.2,1-2.8,2s-.8,2.2-.6,3.4c.6,2.5,3,4,5.4,3.5h0ZM515.2,122c.4-.6.9-1,1.5-1.2h.3c1.6-.4,3.2.7,3.5,2.3.4,1.6-.6,3.2-2.2,3.6s-3.2-.7-3.5-2.3c-.2-.8,0-1.6.4-2.3h0Z"/>
      </g>
      <g>
        <g>
          <path class="st0" d="M364,195h16.7c.5,0,.8-.4.8-.8s-.4-.8-.8-.8h-16.7c-.7,0-1.5.4-2,.9l-1.2,1.4c-.3.4-.4.8-.3,1.3.1.4.4.8.9,1l12.2,4.6h.2c.4,0,.7-.2.8-.5.2-.4,0-.9-.5-1.1l-11.8-4.5,1-1.1c.1-.2.5-.3.7-.3h0Z"/>
          <path class="st0" d="M380.9,213.6l2.9-3.4c.5-.5,1-.7,1.7-.6h.5l11.7,9.6c.7.6,1.8.5,2.3-.2l1.2-1.4c.5-.6.7-1.6.3-2.3l-7.7-16.6,7.4-8.7c2.3-2.7,3.1-5.8,1.8-7.3,0,0-.3-.3-.5-.5-.4-.3-.9-.4-1.7-.5-2.5-.2-7.5.9-9.3,2.9l-16.4,18.9c-.5.5-3.5,4.1-5.9,7.4l-8.3.5c-.7,0-1.5.4-1.9,1l-1.2,1.4c-.3.4-.4.8-.3,1.3.1.4.4.8.9,1l6.1,2.6c-.1.4-.2.7,0,1.1.4.7,1.3,1.2,2.4,1.3h.5c5.2-.3,12.4-6.4,13.5-7.7v.2ZM367.3,219.6h-.3c-.4,0-.7-.1-.9-.2,0,0,.1-.2.2-.3l.7-.9-7.7-3.2,1-1.2c.2-.2.6-.4.8-.4l9.1-.6.2-.3c2.4-3.3,5.5-7,6-7.6l16.3-18.9c1.2-1.4,5.6-2.5,7.9-2.4.6,0,.8.2.8.2h0s.1.2.2.2c.6.6.1,2.9-1.8,5.1l-8.1,9.5,8.1,17.6v.5l-1.3,1.4-11.8-9.7h-.2c-.3-.2-2.2-1-4.1.8l-3,3.4c-.9,1-7.6,6.8-12.3,7.1h.2Z"/>
        </g>
        <path class="st0" d="M396,189.1h.3c1.1-.2,2.5-2,3.3-3.1.3-.4.2-.9-.2-1.2-.4-.3-.9-.2-1.2.2-.8,1.1-1.7,2.1-2.2,2.4-.3,0-.7,0-.9.3-.3.4-.2.9.2,1.2.2.1.4.2.6.2h.1Z"/>
      </g>
      <g>
        <path class="st0" d="M546,186.8c0-.7-.2-1.2,0-2.1,0-.4,0-.8-.4-.9s-.8,0-.9.4c-.5,1.3-.3,2.1-.2,2.9,0,.7.2,1.2,0,2.1-.3.9-.7,1.2-1.2,1.6-.6-3.5-3.1-5.8-3.2-5.9-.2-.2-.4-.2-.7-.2s-.4.2-.5.5l-5,13.8-1.4-.5,4.5-12.4c0-.2,0-.5,0-.7-.2-.2-.4-.3-.6-.3l-27.4,2.4c-.4,0-.7.4-.7.8s.3.7.7.7c16.7-.2,19.7,15.7,19.8,15.9,0,.3.3.6.7.6s.6-.2.8-.5l1.9-5.2,1.4.5-5,13.8c0,.3,0,.6.2.8l2.2,2.4c.2.3.6.3.9.1l3.2-1.9c0,.2,0,.4-.2.6-.3.9-.8,1.3-1.3,1.7-.6.5-1.3,1-1.7,2.3,0,.4,0,.8.4.9.4.1.8,0,.9-.4.3-.9.8-1.3,1.3-1.7.6-.5,1.3-1,1.7-2.3.5-1.3.3-2.2.2-2.9s-.2-1.2,0-2.1c.3-.9.8-1.2,1.3-1.7.6-.5,1.3-1,1.7-2.3.5-1.3.3-2.1.2-2.9,0-.7-.2-1.2,0-2.1.3-.9.8-1.2,1.3-1.7.6-.5,1.3-1,1.7-2.3.5-1.3.3-2.1.2-2.9,0-.7-.2-1.2,0-2.1s.8-1.2,1.3-1.7c.6-.5,1.3-1,1.7-2.3.5-1.3.3-2.1.2-2.9h-.2ZM529.5,202.4c-1.3-3.8-4.9-11.4-13.8-14l19.5-1.7-5.8,15.7h0ZM541.5,193.2c-.5,1.3-.3,2.1-.2,2.9,0,.7.2,1.2,0,2.1-.3.9-.8,1.2-1.3,1.7-.6.5-1.3,1-1.7,2.3-.5,1.3-.3,2.1-.2,2.9,0,.7.2,1.2,0,2.1-.3.9-.8,1.2-1.3,1.7-.6.5-1.3,1-1.7,2.3-.5,1.2-.3,2-.2,2.7l-3.3,2-1.5-1.6,10-27.3c.8,1,2,2.9,2,5.2h0c-.2.4-.3.7-.5,1.1h0Z"/>
        <path class="st0" d="M527.4,206c-.4-.1-.8,0-.9.4l-.4,1-12.2-11.1,10.9,4c.4.1.8,0,.9-.4h0c0-.4,0-.8-.4-.9l-14.5-5.3c-.3-.1-.7,0-.9.3-.2.3-.1.7.1.9l15.8,14.4c.2.2.4.2.7.2s.4-.2.5-.5l.8-2.1c0-.4,0-.8-.4-.9h0Z"/>
        <path class="st0" d="M504.5,189.8l17.2,6.3c.4.1.8,0,.9-.4,0-.4,0-.8-.4-.9l-17.2-6.3c-.4-.1-.8,0-.9.4s0,.8.4.9h0Z"/>
      </g>
      <g>
        <path class="st0" d="M466,137.2c0-1-.8-1.7-.9-1.7-.3-.2-.6-.1-.8.1-.2.3-.2.6.1.8,0,0,.5.4.5.9s-.2.8-.7,1.2c-1.8,1.6-1,3.6-.3,4.4.1.1.3.2.4.2.2,0,.3,0,.4-.1.2-.2.3-.6,0-.8,0,0-.3-.4-.5-.9-.2-.7,0-1.3.6-1.8.7-.7,1.1-1.4,1.1-2.1v-.2Z"/>
        <path class="st0" d="M470.1,139.1c0-.8-.6-1.3-.7-1.3-.3-.2-.6-.1-.8.1-.2.3-.1.6.1.8,0,0,.2.2.2.4s-.2.5-.4.7c-.7.6-1,1.4-.7,2.2.2.6.5,1,.5,1,.1.1.3.2.4.2s.3,0,.4-.1c.2-.2.3-.6,0-.8-.2-.2-.7-.9,0-1.6.6-.5.8-1,.8-1.6h.2Z"/>
        <path class="st0" d="M464.1,151.6c-1.9-.7-3.5-2.2-4.2-4.1-.1-.3-.5-.4-.8-.3-.3.1-.4.5-.3.8.9,2.2,2.7,3.9,4.9,4.8h.2c.3,0,.5-.1.6-.4.1-.3,0-.6-.4-.8h0Z"/>
        <path class="st0" d="M478.3,145.6c0-.3-.2-.6-.6-.6l-22.4-1.4c-.3,0-.6.2-.6.6v2.4l-2.6-.2c-1,0-1.8.7-1.9,1.7v1.8c-.1.3.1.6.4.6s.6-.2.6-.6v-1.8c.1-.3.4-.6.7-.6l2.9.2c.7,3,2.7,5.6,5.3,7.2l-4.6,10.9c-.1.3,0,.6.3.8h.2c.2,0,.5-.1.6-.4l.8-1.9,11.8.7c.2,1.4,1.3,2.4,2.7,2.5,1.6.1,3-1.1,3.1-2.8.1-1.6-1.1-3-2.8-3.1h-.1l-1.3-6.1c4-1.7,6.9-5.5,7.1-10.1l.4.2ZM472.4,163c1,0,1.7.9,1.7,1.9s-.9,1.7-1.9,1.7-1.7-.9-1.7-1.9.9-1.7,1.9-1.7ZM471.2,162c-.8.3-1.5,1.1-1.7,1.9l-11.4-.7,3.2-7.8c1.3.6,2.8,1.1,4.4,1.2,1.5,0,2.9-.1,4.3-.5l1.2,5.9h0ZM465.8,155.5c-5.6-.4-10-5.1-9.9-10.7l21.2,1.3c-.7,5.5-5.6,9.7-11.2,9.3h-.1Z"/>
      </g>
      <g>
        <path class="st0" d="M511.9,163.9c-.2-.3-.6-.3-.9-.1l-19.9,14.9c-.3.2-.3.6-.1.9.2.2.5.3.7.2h.2l19.9-14.9c.3-.2.3-.6,0-.9h0Z"/>
        <path class="st0" d="M499.2,171.5h.2c.3,0,.4-.4.4-.6,0-.3-.3-.6-.7-.6l-6.5.5c-.3,0-.6.3-.6.7s.3.6.7.6l6.5-.5h0Z"/>
        <path class="st0" d="M517.6,170c.3,0,.4-.4.4-.6,0-.3-.3-.6-.7-.6l-10.6.9c-.3,0-.6.3-.6.7s.3.6.7.6l10.6-.9h.2Z"/>
        <path class="st0" d="M491.5,143.7c-.2,0-.4.2-.5.3v.6c0,.1.2.3.3.4.7,1,1.8,2.7,1,6.7-.5,2.1-.4,3.8-.2,5.1-1.2-1-2.6-1.3-3.7-1-.2,0-.4.3-.4.5s0,.5.3.6c1.1.7,1.1,1.6.9,3.4-.2,1.8-.4,4.2,1.8,6.3,3.1,3.1,7.2,2.3,8.8,1.9h0c.3-.1.5-.6.3-.9-.1-.3-.4-.5-.7-.5s-1.8-.2-2.7-1.8c-.3-.5-.6-.9-.9-1.2.8,0,1.7,0,2.1.3h.6c.2-.1.3-.3.3-.5,0-.4-.2-.8-.3-1.3-.3-.7-.6-1.5-.5-2.3,0-.5.2-.9.5-1.3.2.5.6,1.2,1.2,2,.2.2.6.8,1.6.9.2,0,.4,0,.6-.2s.3-.4.4-.5.2-.3.3-.4c.7,1.3,1.5,3,.6,4.5-.1.3,0,.6.1.8.2.2.5.2.8,0,3.5-2.3,6.7-6.8,1.9-14.6-1.6-2.6-2.7-3.4-3.8-4.3-.2-.2-.4-.3-.6-.5s-.6-.2-.8,0c-.2.2-.3.5-.2.8,0,0,.9,1.8.8,4.1-.3-.7-.7-1.5-1.4-2.5-3.6-5.8-8.1-5.4-8.7-5.3h.2ZM493.7,158.3c-.3-1.1-.9-3.1-.2-6.3.8-3.8,0-5.8-.8-7,1.5.2,4.1,1.1,6.3,4.7,1.5,2.4,1.7,3.4,1.9,4.3v.4c0,.3.3.5.6.5s.5-.2.6-.4c.7-2.1.5-4,.2-5.4.8.7,1.5,1.5,2.6,3.2,3,5,3,8.9-.1,11.8,0-1.4-.7-2.8-1.2-3.8-.2-.4-.3-.7-.4-1,0-.3-.3-.4-.6-.4s-.5.2-.6.4c-.1.5-.4.7-.7,1.1,0,0-.1.2-.2.2-.3-.1-.4-.3-.5-.4-1.1-1.4-1.2-2.5-1.2-2.5,0-.2-.2-.4-.4-.5h-.7s-1.5,1.2-1.6,3c0,1.1.3,2.1.6,2.8-1-.1-2.3-.1-3.2.3-.2.1-.3.3-.3.5s.1.4.3.6h.1c.4.3,1,.6,1.5,1.5.4.7.9,1.2,1.4,1.6-1.7.1-3.7-.2-5.4-1.9-1.8-1.8-1.6-3.6-1.4-5.3.1-1.1.2-2.3-.3-3.3.9.3,1.8,1,2.5,2.4.1.2.4.4.6.3.3,0,.5-.2.5-.4,0-.3,0-.6-.1-1.1h.2Z"/>
      </g>
      <path class="st0" d="M319.8,173.8c.3,0,.6-.4.6-.7s-.2-.7-.5-.8c-2.6-.9-5-2.5-6.8-4.6-5.6-6.6-4.8-16.5,1.8-22.1,3.8-3.2,8.7-4.4,13.6-3.4.3,0,.7,0,.9-.4.2-.3,0-.7-.2-.9-7.1-6.5-18-6.7-25.3-.5-8,6.8-9,18.9-2.2,27,4.4,5.2,11.4,7.7,18.1,6.4ZM304.9,141.6c6-5.1,14.6-5.5,21-1.3-4.4-.2-8.6,1.2-12,4.1-7.2,6.2-8.1,17.1-2,24.3,1.3,1.6,3,2.9,4.8,3.9-5.2.1-10.3-2.1-13.8-6.2-6.3-7.4-5.4-18.5,2-24.8Z"/>
      <g>
        <path class="st0" d="M428.4,118.1c-2.3.2-4.4,1.7-5,3.6h-.2c-1-.9-2.2-1.1-3.4-.7-2.6.7-3.1,2.2-3.3,3.3h-.2c-1.4.2-2.4,1.4-2.3,2.9,0,1.2.9,2.1,2,2.4l1.3,18.6c.1,1.6,1.5,2.9,3.2,2.8l16.1-1.1c1.6-.1,2.9-1.5,2.8-3.2l-.2-3c5.9-.8,5.5-7.2,5.2-11.1,0-1.2-.5-2-1.4-2.6-1.5-1-3.7-.8-4.8-.6v-2.1c.5-.7.9-1.6.8-2.6-.1-2-2-3.4-4.1-3.3-.2,0-.4,0-.7,0-1-2.1-3.3-3.5-5.8-3.3h0ZM442.3,130.9c.5.4.8.9.9,1.7.3,5,.2,9.2-4.1,9.8l-.8-12c1.1-.2,3-.4,4.1.4h-.1ZM438.1,146.8c0,1-.7,1.8-1.7,1.9l-16.1,1.1c-1,0-1.8-.7-1.9-1.7l-1.3-18.5h1.3c.1.3.3.6.6.8.3.2.8.3,1.2.3v1.1c.2,1.9,1.5,2.1,2.2,2.1,1.3,0,2.1-1,2.1-2.4l-.2-2.4,11.6-.8h.3c.2,0,.4-.1.6-.2l1.3,18.7h0ZM435,122.5c1.4,0,2.7.9,2.8,2.2,0,.8-.4,1.6-1.2,2.2-.2.2-.5.3-.7.3h-.1l-12,.8c-.3,0-.6.3-.6.6l.2,3c0,.7-.3,1-.9,1.1-.4,0-.8,0-.8-1v-1.8c-.1-.2-.2-.4-.4-.5h-1.4c-.2-.1-.2-.4-.2-.6,0-.3-.3-.6-.6-.6h-2c-.8.2-1.6-.4-1.6-1.2s.5-1.5,1.2-1.6h.5c.2,0,.4-.2.5-.4h0c.1-.3.2-.4.2-.5,0-.6.3-1.7,2.4-2.4.9-.3,1.6,0,2.3.5.2.2.5.3.9.3s1.1-.3,1.2-.8c.4-1.3,1.9-2.7,3.9-2.8,2.2,0,4.2,1.1,4.8,3.1,0,.2.2.3.3.3h.5c.3,0,.6-.2.9-.2h0Z"/>
        <path class="st0" d="M421.1,134.8c-.3,0-.6.3-.6.6l.6,9.5c0,.3.3.6.6.6s.6-.3.6-.6l-.6-9.5c0-.3-.3-.6-.6-.6Z"/>
        <path class="st0" d="M425.3,134.5c-.3,0-.6.3-.6.6l.6,9.5c0,.3.3.6.6.6s.6-.3.6-.6l-.6-9.5c0-.3-.3-.6-.6-.6Z"/>
        <path class="st0" d="M429.5,134.2c-.3,0-.6.3-.6.6l.6,9.5c0,.3.3.6.6.6s.6-.3.6-.6l-.6-9.5c0-.3-.3-.6-.6-.6Z"/>
        <path class="st0" d="M433.7,133.9c-.3,0-.6.3-.6.6l.6,9.5c0,.3.3.6.6.6s.6-.3.6-.6l-.6-9.5c0-.3-.3-.6-.6-.6Z"/>
      </g>
      <g>
        <path class="st0" d="M501,215.7l-3.7-18.4c-.4-1.8-2.1-2.9-3.8-2.5l-5.4,1.1-2.2-1.9c-1-.9-2-1.8-4.1-1.4l-8.9,1.8c-2.1.4-2.7,1.7-3.2,2.9l-1.2,2.6-2.9.6c-1.8.4-2.9,2.1-2.5,3.8l3.7,18.4c.4,1.8,2.1,2.9,3.8,2.5l27.9-5.7c1.8-.4,2.9-2.1,2.5-3.8h0ZM464.2,204c-.2-1.1.5-2.1,1.5-2.3l3.5-.7,1.5-3.2c.5-1.1.9-1.9,2.3-2.2l8.9-1.8c1.4-.3,2.1.3,3,1.1l2.7,2.4,6-1.2c1.1-.2,2.1.5,2.3,1.5l2.2,10.8-7.8,1.6c0-.6,0-1.3-.2-1.9-1.1-5.3-6.2-8.7-11.5-7.6-5.3,1.1-8.7,6.2-7.6,11.5.1.7.3,1.3.6,1.9l-5.3,1.1-2.2-10.8v-.2ZM482.3,218.2c-4.6.9-9-2-9.9-6.6s2-9,6.6-9.9,9,2,9.9,6.6-2,9-6.6,9.9ZM470.3,224c-1.1.2-2.1-.5-2.3-1.5l-1.3-6.3,5.6-1.1c2.1,3.4,6.1,5.4,10.3,4.5,4.1-.8,7.1-4.2,7.7-8.2l8.2-1.7,1.3,6.3c.2,1.1-.5,2.1-1.5,2.3l-27.9,5.7h-.1Z"/>
        <path class="st0" d="M479.3,203.6c-3.5.7-5.8,4.1-5.1,7.6.1.7.4,1.4.8,2,.1.2.4.4.7.3h.2c.3-.2.4-.6.2-.9-.3-.5-.5-1-.6-1.6-.6-2.8,1.2-5.5,4-6.1.4,0,.6-.4.5-.8s-.4-.6-.8-.5h0Z"/>
        <path class="st0" d="M490.6,200.6l3.2-.6c.4,0,.6-.4.5-.8s-.4-.6-.8-.5l-3.2.6c-.4,0-.6.4-.5.8s.4.6.8.5Z"/>
      </g>
      <g>
        <path class="st0" d="M377.4,290.6l-2.8,9.5v.6l.2.2c.2.2.6.2.8,0,.2,0,3.3-1.7,5.3-4.1l.8,3.7v.2c0,.2.2.3.4.3.3,0,.5,0,.7-.2,2-1.8,2.6-4.6,2.8-6.4l1.8,2c.2.2.4.3.7.2.3,0,.5-.2.6-.5,1.3-3.3,0-5.7-1.3-7.1l3.4-1c.3,0,.5-.3.5-.5,0-.3,0-.5-.2-.7-1.8-1.8-4.5-2.5-5.7-2.8,0-1.3-.1-4.1-2.5-6.6-.2-.2-.5-.3-.8-.2-.3,0-.5.3-.5.6l-.7,4.2c-1.5-1.6-4.4-3.9-8.6-3.4-.3,0-.5.2-.6.5,0,.3,0,.6.2.8l2.3,2.4c.3.3.8.3,1.1,0,.3-.3.3-.8,0-1.1l-1.1-1.1c4.1.4,6.5,4,6.6,4.2.2.3.5.4.8.4s.5-.3.6-.6l.6-4.1h0c1.4,2.4,1.1,4.5,1.1,4.6,0,.2,0,.4.2.6.1.2.3.3.5.3,0,0,2.5.3,4.5,1.6l-3.4,1c-.3,0-.5.3-.5.6s.1.6.4.8c.1,0,2.8,1.7,2.2,5l-2.1-2.3c-.2-.2-.6-.3-.9-.2-.3.1-.5.4-.5.7,0,0,.1,3.6-1.5,6l-.7-3.2c0-.1,0-.2-.1-.3.4-.6.6-1.3.7-2,0-.4-.3-.8-.7-.8s-.8.3-.8.7c-.2,2.1-2.7,4.2-4.7,5.5l2.9-9.9c0-.2,0-.5-.1-.7s-.4-.3-.6-.3c-2.7-.1-6.7-.4-9-.5,4.6-3.4,7.9-1.9,8.1-1.8.4.2.8,0,1-.4s0-.8-.4-1c-.2,0-5-2.3-11.1,3.2-.2.2-.3.5-.2.8,0,.3.3.5.6.6.8.2,5.9.5,9,.7-2.6,2.3-10.2,7.7-20.5,6-.4-1-1-2.1-1.6-3.3-.9-1.5-1.8-2.7-2.7-3.7h0c.7-5.7,6-8.2,7.6-8.9l-1.7,5.2c0,.3,0,.5.1.7.2.2.4.3.7.3.5,0,5.4-1,5.6-3.9,0-.4-.3-.8-.7-.8s-.8.3-.8.7c0,1-1.6,1.7-3,2.2l1.7-5.3v-.6c-.1-.2-.3-.3-.5-.4,0,0-2.9-.6-5.5-1,3-1.4,4.5-.7,4.6-.7.4.2.8,0,1-.3.2-.4,0-.8-.3-1-.1,0-2.9-1.5-7.9,1.8-.3.2-.4.5-.3.8v.2c.1.2.3.3.5.4,1.3.2,3.2.6,4.8.9-2.2,1.1-6.1,3.7-7.2,8.5-4.3-4.1-8.2-4.2-8.4-4.2-.3,0-.5.1-.7.4-.1.2-.1.5,0,.8l14.1,23.8h0c.2.4.7.5,1.1.3.2-.1.3-.3.4-.5.3-.8,1.6-4.8-.2-10.5,10.2,1.4,17.6-3.6,20.6-6.2v-.4ZM356,305.3l-12.3-20.8c2.1.6,6.1,2.4,9.6,8.2,3.3,5.6,3.2,10.2,2.8,12.6h-.1Z"/>
        <path class="st0" d="M370.5,281.5c.2-.2.2-.4.2-.7-.4-1.4-1.8-3.6-3.1-4.6,1.1-2,.9-5,.9-5.1,0-.3-.2-.5-.5-.7-.3-.1-.6,0-.8.1,0,0-1.2,1-2.2,1.9-1-3.1-4.3-5-4.4-5.1-.3-.2-.6-.1-.8,0-.2.2-.4.5-.3.8l.7,2.9c-1.2-.6-2.9-1.1-4.7-.8-.3,0-.5.3-.6.5,0,.3,0,.6.2.8.6.5,1.6,1.6,1.6,1.6.3.3.8.3,1.1,0,.3-.3.3-.8,0-1.1l-.3-.3c1.9.3,3.4,1.5,3.4,1.5.3.2.6.2.9,0s.4-.5.3-.8l-.7-2.5c1,1,2.2,2.4,2.3,4.1,0,.3.2.6.5.7.3,0,.6,0,.8-.2.3-.4,1.1-1.1,1.8-1.7-.1,1.1-.4,2.4-1,3.1-.2.2-.3.6,0,.9h0c0,.2.2.3.4.3.3.2,1.5,1.3,2.3,2.6-.8-.3-1.9-.6-2.8-1-.3-.1-.6,0-.8.2-.2.2-.3.6-.1.8,0,.1,1.3,2.7-.5,5.4v-.4c0-.4-.5-.7-.9-.6-.4,0-.7.5-.6.9.2.8.4,1.7.4,1.8s0,.2.1.3c0,.1.2.3.4.3.3.1.6,0,.8-.2,2.5-2.4,2.6-5.1,2.3-6.7,3.4,1.2,3.5,1.1,3.8.7v.3Z"/>
      </g>
      <g>
        <path class="st0" d="M486.6,279.3c0-2.1-.9-3.7-2.5-4.7-2.4-1.4-7.8-2.5-11.4,3-2.6,3.9-7.4,16.6-5,19.9.2.3.5.6.8.9h0c1.2,1.1,2.8,1.6,4.4,1.4,1.2-.2,2.2-.8,2.8-1.7.4-.6.8-1.4,1.3-2.3,1.5-2.8,3.5-6.6,5.9-8.6,2.2-1.9,3.7-5,3.7-7.8h0ZM482.1,286.2c-.5.4-.9.8-1.3,1.3,1.8-2.4,2.3-4.9,1.5-7.1h0c-.4-.8-.4-1.6-.3-2h0v-.2c.1-.2,0-.5-.2-.7h0c-.2-.2-.5-.3-.7-.1-.2.1-.2.3-.3.6-.4.7-.9,1.4-3.3,1.3-1.6,0-3.3.9-4.7,2.6-1.8,2.1-2.6,4.8-2.1,7,0,.1,0,.3.2.3.1.1.3.2.5.2.3,0,.5-.4.5-.7-.4-1.9.4-4.2,1.9-6.1,1.2-1.4,2.5-2.2,3.7-2.2s2.6-.3,3.3-.7c0,.4.2.8.4,1.1,1.4,3.9-2.6,7.6-4.3,9-.2.1-.2.2-.3.3-.2.3-.1.7.2.8.2.2.6.1.8,0h0c.9-.8,1.7-1.6,2.4-2.3-1.6,2.1-2.9,4.6-4,6.6-.5.9-.9,1.7-1.2,2.2-.4.7-1.1,1.1-2,1.2-1.2.1-2.5-.3-3.4-1.1h0c-.2-.2-.4-.4-.6-.7-1.7-2.3,2.1-14.1,5-18.5,3.2-4.8,7.8-3.8,9.8-2.6.2.1.4.3.6.4,1,.9,1.2,2.2,1.2,3.2,0,2.4-1.4,5.2-3.3,6.9h0Z"/>
        <path class="st0" d="M498.2,270.7c-1.6-.8-3.4-.7-5,.4-2.5,1.5-4.5,4.8-4.9,7.9-.4,3.2-2.5,7.2-4.1,10.1-.5,1-1,1.8-1.3,2.4-.5,1-.5,2.1,0,3.2.6,1.4,1.8,2.5,3.2,3,.5.2,1.1.3,1.7.3,4.1.2,12.3-11.2,14.2-15.8,2.7-6.3-1.3-10.4-3.8-11.6h0ZM500.8,281.8c-2.1,5.1-10.1,15.1-13,15-1.6,0-3.2-1.2-3.8-2.6-.2-.5-.4-1.4,0-2.2.3-.6.7-1.4,1.2-2.4,1.6-3,3.8-7.1,4.2-10.5.4-2.8,2.2-5.7,4.3-7,.8-.5,2.1-1,3.5-.5.1,0,.3.1.4.2,2.1,1.1,5.5,4.5,3.2,10h0Z"/>
        <path class="st0" d="M497,275.2c.2-.4.3-.7.3-.9,0-.3-.2-.6-.5-.6s-.6,0-.7.4h0c0,.3-.2.6-.2.8-.2.3-.4.6-.5.8-5.2-.4-6.9,7.3-7.4,10.7h0c0,.4,0,.7.4.8.3.1.7,0,.8-.4v-.3c.3-2.4,1.8-10.1,6.3-9.6.2,0,.4,0,.5-.2.2.6.7,1.4,1.4,2.4,1.9,2.7-.1,7.4-4.6,10.7-.3.2-.3.6-.1.9,0,0,.2.2.3.2h.6c5.1-3.8,7.2-9.2,4.8-12.5-1.3-1.8-1.5-2.6-1.4-3.1h0Z"/>
      </g>
      <g>
        <path class="st0" d="M400,157.5c.5,3.3,2.4,4.9,3.6,4.7s2.7-2.2,2.2-5.5c-.3-2-1.3-5.1-2.3-8-.9-2.6-1.7-5-1.9-6.3l-.9-6.6h0c.5-.3,1.1-.6,1.6-.9l.3-.2c.9-.6,1.5-1.9,1.3-3l-1-7.3c0-.4-.4-.7-.8-.6s-.7.4-.6.8l1,7.3c0,.5-.3,1.3-.7,1.6l-.3.2c-.3.2-.6.4-.9.5l-1.3-9.3c0-.4-.4-.7-.8-.6-.4,0-.7.4-.6.8l1.3,9.3c-.3,0-.7-.1-1-.3h-.3c-.5-.3-1-.9-1.1-1.4l-1-7.3c0-.4-.4-.7-.8-.6-.4,0-.7.4-.6.8l1,7.3c.1,1.1,1.1,2.2,2.1,2.5h.3c.5.3,1.2.4,1.7.5h0c0,.1.9,6.7.9,6.7,0,.5,0,2.4-.1,4.5-.2,3.6-.4,8.1,0,10.5h-.3ZM401.5,147.4c.2.6.4,1.2.6,1.8,1,2.9,2,5.9,2.3,7.8.4,2.5-.7,3.8-1,3.9-.3,0-1.6-.9-2-3.5-.3-2.1-.1-6.6,0-9.9h.1Z"/>
        <path class="st0" d="M394.1,163.5c1.8-.2,3.5-1.5,3.1-4.2-.1-1.1-.5-2.1-.8-3.2-.4-1.2-.8-2.5-1-4l-.6-4.3c0-.2,0-.7-.5-1.1-.2-.2-.5-.4-.9-.5.5-1.3,1.3-4.3.6-9.5-1.7-12-6.6-12.5-6.8-12.5s-.4,0-.6.2-.2.4-.2.6l5,35.9c.1,1,.9,2.9,2.6,2.6h0ZM388.1,126.1c1.3.9,3.5,3.4,4.5,10.7.8,5.7-.3,8.4-.6,9.1h-1.1l-2.8-19.9h0ZM393.3,147.7h0v.2l.6,4.4c.2,1.6.6,3,1,4.2.3,1,.6,2,.7,3,.3,1.8-.9,2.4-1.9,2.5-.7,0-.9-1.3-.9-1.4l-1.8-13.2c1.6-.2,2.1,0,2.2.2h0Z"/>
      </g>
      <g>
        <path class="st0" d="M330.9,194.9c-.8.9-1.2,2-1.1,3.1,0,1.1.6,2.1,1.4,2.9.8.7,1.8,1,2.8,1s1.3-.2,2-.5c.5-.3,1-.6,1.4-1,.8-.9,1.2-2,1.1-3.1,0-1.1-.6-2.1-1.4-2.9-1.8-1.5-4.5-1.3-6.1.5h0ZM331.6,197.9c0-.7.2-1.3.6-1.8.2-.3.5-.5.8-.6.9-.5,2-.3,2.8.3.5.4.8,1,.8,1.6s-.2,1.3-.6,1.8c-.9,1-2.6,1.2-3.6.3-.5-.4-.8-1-.8-1.6h0Z"/>
        <path class="st0" d="M328.5,221.9c2.1,6.4,3.1,9,4.6,9s.3,0,.5,0h.2c1.8-.9,1.2-4.3.3-8.6,0-.4-.2-.8-.2-1.1-.4-2-1.3-6.6.3-10,1.2-2.8,2.7-3.5,4.3-4.4,1.2-.7,2.5-1.3,3.8-2.8,2.5-3,2.4-8.2,1.1-10.1-.7-1.1-1.7-.9-2-.8-1.4.5-1.5,1.9-1.7,3.2-.1,1.2-.3,2.7-1.3,4.2s-3.1,2.3-5,2.1c-2-.2-3.6-1.4-4.6-3.5-.4-.9-.8-2.1-1.2-3.3-1.1-3.2-2.1-6-4-5.4-.3,0-.7.3-.9.8-1.1,2.1,1.1,8.8,1.4,9.5l.3.9c.6,1.8,1,2.9,1.3,4.5.2.9.2,1.8,0,2.5l-25.8-13.7-2.7-8.1-1.7.6,9.8,29.4,1.7-.6-6.3-18.9,24.1,12.8c-.2.2-.5.5-.8.7s-2,1-3.5,1.6c-7.1,3.1-9.3,4.3-8.8,5.8,0,.2.3.6.7.8,1.4.7,5,0,14-3,.7,1.5,1.4,3.7,2.1,5.9h0ZM314.1,217.6c1.6-1,5.5-2.7,7.2-3.5,2.2-1,3.4-1.5,3.9-1.9.6-.5,1.1-1,1.5-1.6l5.3,1.2c-.9,3.6-.2,7.6.2,9.5,0,.3.1.7.2,1.1h.4-.3c1,4.7.9,6.1.8,6.5-.8-1-2.3-5.5-3-7.6s-1.4-4.3-2.1-5.9c0,0,.2,0,.2-.1.7-.4,1.3-.7,1.5-1.1l.2-.3-1.5-1-.2.3c-.2.3-1.1.7-1.8,1h0c-8,2.6-11.2,3.4-12.5,3.5h0ZM340.9,202.6c-1,1.2-2.1,1.8-3.2,2.4-1.8.9-3.6,1.9-5.1,5.2l-5.1-1.2c.3-1,.3-2.1,0-3.4-.4-1.7-.8-2.8-1.4-4.7l-.3-.9c-1-2.9-1.8-6.5-1.5-7.9.3.5.9,1.9,1.7,4.1.4,1.2.8,2.4,1.3,3.4,1.2,2.7,3.4,4.3,6,4.5s5.2-.9,6.6-2.9c1.3-1.9,1.5-3.7,1.6-5.1,0-1,.2-1.4.3-1.6h0c.8,1.1,1,5.5-1,7.9v.2Z"/>
      </g>
      <path class="st0" d="M521.3,238.1c-2.5-1.6-2.5-4.2-2.5-4.3h0v-.2h0s0-.1,0-.2h-.2q0-.1,0-.1h-.3c0,.1-8,19-8,19h0c-.4.8-.7,1-.9,1h-.1c-.8-1.3-2.3-2.5-4.1-3.2-3.5-1.5-6.9-1-7.8,1.1-.9,2.1,1.1,4.9,4.6,6.4,3.2,1.4,6.4,1,7.5-.8h0c0-.1,7.1-16.9,7.1-16.9.4.9,1.2,1.7,2.6,2.3,2.3,1,2.3,3.8,2.3,5.4v.7c0,.2,0,.4.3.5h0c.3,0,.5,0,.6-.3,1.5-3.5,3.4-7.9-.8-10.5h-.2ZM508.1,256.2h0c-.6,1.5-3.5,1.8-6.3.6-2.8-1.2-4.6-3.5-4-4.9.6-1.5,3.5-1.7,6.3-.6,1.6.7,2.9,1.7,3.6,2.8.2.3.6.6,1,.6l-.7,1.6h.1ZM522.1,245.8c-.2-1.6-.8-3.5-2.9-4.4-2.2-.9-2.5-2.5-2.2-3.3l1-2.4c.4,1.1,1.1,2.4,2.7,3.4,2.5,1.6,2.4,3.8,1.4,6.8h0Z"/>
      <g>
        <path class="st0" d="M343.7,247.4l4.3,7.7c.4.8,1.4,1.7,2.3,2l5.6,2.3c.5.2,1.1.2,1.5,0,.5-.3.8-.7.9-1.3l1-5.9c.1-.9,0-2.2-.5-3l-10-17.8c-.5-1-1.8-1.3-2.8-.8l-7.1,4c-1,.5-1.3,1.8-.8,2.8l5,8.9-11.3,6.3-2.4,1.3c-.3.2-.4.6-.3.9,1,1.8.6,3.5.2,4.6l-4.1-7.3c.7.1,1.5.4,2.3.9.3.2.7.1.9-.2.2-.3.1-.7-.2-.9-2-1.4-4.3-1.3-4.4-1.3-.2,0-.4.2-.5.4s-.1.5,0,.7l5.3,9.5c.1.2.3.3.6.3s.5-.1.6-.3c0-.1,2.1-3.2.6-6.5l1.8-1,11.3-6.3h.2ZM339.3,236.6c-.2-.3,0-.7.3-.9l7.1-4c.3-.2.7,0,.9.3l10,17.8c.3.5.5,1.5.4,2.1l-1,5.9c0,.1,0,.3-.2.3h-.4l-5.6-2.3c-.6-.2-1.3-.9-1.6-1.4l-10-17.8h.1Z"/>
        <path class="st0" d="M357.3,238.2l-2.4,1.3c-.3.2-.4.6-.3.9.2.3.6.4.9.3l2.4-1.3c.3-.2.4-.6.3-.9-.2-.3-.6-.4-.9-.3Z"/>
      </g>
      <g>
        <path class="st0" d="M470.1,263l.5-3,1.5.2c1.4.2,2.6-.7,2.8-2.1l2.5-16.2c.2-1.4-.7-2.6-2.1-2.8l-17.7-2.8c-1.4-.2-2.6.7-2.8,2.1l-.4,2.5-1.5-.2c-1.4-.2-2.6.7-2.8,2.1l-2.6,16.7c-.2,1.4.7,2.6,2.1,2.8l17.7,2.8c1.4.2,2.6-.7,2.8-2.1ZM455.8,238.6c.1-.8.9-1.4,1.7-1.2l17.7,2.8c.8.1,1.4.9,1.2,1.7l-2.5,16.2c-.1.8-.9,1.4-1.7,1.2l-1.5-.2,2-12.8c.2-1.4-.7-2.6-2.1-2.8l-15.3-2.4.4-2.5h0ZM448.5,259.6l2.6-16.7c.1-.8.9-1.4,1.7-1.2l1.5.2,1,.2,15.3,2.4c.8.1,1.4.9,1.2,1.7l-2.6,16.7c-.1.8-.9,1.4-1.7,1.2l-17.7-2.8c-.8-.1-1.4-.9-1.2-1.7h0Z"/>
        <path class="st0" d="M464.9,251.1c1.4.2,2.6-.7,2.8-2.1.2-1.4-.7-2.6-2.1-2.8s-2.6.7-2.8,2.1c-.2,1.4.7,2.6,2.1,2.8ZM463.8,248.4c.1-.8.9-1.4,1.7-1.2.8.1,1.4.9,1.2,1.7-.1.8-.9,1.4-1.7,1.2-.8-.1-1.4-.9-1.2-1.7Z"/>
        <path class="st0" d="M468.1,260.1c.1,0,.3,0,.4-.1.2-.2.2-.5,0-.7l-3.6-4c-.5-.6-1.5-.7-2.2-.3l-2.1,1.3-2.9-3.9c-.5-.7-1.4-.8-2.1-.4l-5.4,3.5c-.2.2-.3.5-.1.7.2.2.5.3.7.1l5.4-3.5c.2-.2.6,0,.7.1l5.7,7.7c0,.1.2.2.3.2h.4c.2-.2.3-.5.1-.7l-2.2-3,2-1.2c.3-.2.7,0,.9.1l3.6,4s.2.1.3.2h.1Z"/>
      </g>
      <path class="st0" d="M411.5,251.1c2.7-9.2-2.5-18.9-11.7-21.7-9.2-2.7-18.9,2.5-21.7,11.7-2.7,9.2,2.5,18.9,11.7,21.7,9.2,2.7,18.9-2.5,21.7-11.7h0ZM401.8,231.6h0c5.9,2.8,9.8,9.5,9.1,16.2,0,0-.1.1-.2.2-.3.9-1.7,2.1-2.5,2.7l-.3.2c-.7.5-1.2,1.6-1.7,2.5-.3.5-.5,1-.7,1.3s-.7.7-1,.9c0-.1.2-.2.3-.4.5-.7.3-1.5,0-2.1,0-.2-.2-.5-.2-.6,0,0-.1-3.7-.8-4.1,0,0-2.3-1.1-3.1-1.1s-1.5-.4-1.9-1c-.2-.3-.2-1.1.3-3.5v-.2c0-.2.2-.3.7-.4.3-.1.6-.3.9-.5h.1c.1-.2.3-.4.4-.5.6.3,1.1.2,1.4.1.3,0,.6.3,1,.7s.9.8,1.6,1.1c1,.4,1.3.4,1.9.4h1.2c1,0,1.4-.3,1.5-.7.4-.9-.5-2-.5-2-.4-.5-1-.3-1.5-.2-.2,0-.5.1-.7.1s-.2,0-.4-.2c-.2-.2-.6-.4-1.1-.7q-.3-.2-.3-.5c0-.2,0-.6-.3-1-.2-.2-.4-.3-.6-.3-.3,0-.5.2-.7.4-.1.1-.2.2-.4.2h-.9c-.3,0-.5,0-.8-.1.1,0,.2-.2.3-.2s.2-.1.3-.2c.7-.4,2.2-1.6,2.8-2.5.4-.6.3-1,.2-1.3-.3-.6-1.1-.7-1.9-.7s-.4,0-.6-.2-.4-.4-.8-.7c-.3-.2-.3-.4,0-1.3v.2ZM382.7,235.5h0c3.1-3.5,7.7-5.6,12.5-5.4.1,1.1.2,2.7-.3,3.1-.2.2-.2.4-.2.6-.4-.1-.8-.2-1.2,0-1.9,1-6,3.6-6.5,4.8h0c-.2-.6-.5-1.2-1-1.6-.4-.3-.8-.3-1.3-.2-1.2.3-1.9,1.5-2.1,2.5,0,.7.2,1.3.6,1.5s.9.2,1.2.2v.8c0,.4,0,.7-.1.9-.7-.5-1.5-1.2-1.7-1.6-.2-.3-.2-.7-.2-1.2s0-.9-.2-1.3c-.1-.4.2-2.3.6-3.2h0ZM384.6,253.7c-.1.3-.2.6-.3.9-.2.8,0,1.8,0,2.8s.1.9.1,1.3h0c-4.9-4-7.2-10.7-5.3-17.1.4-1.3.9-2.4,1.5-3.5,0,.6,0,1.1.2,1.4v.6c0,.5,0,1.2.4,1.9.6.9,2.4,2.1,2.7,2.4-.6,1-1.1,2.5-1.1,2.5-.2.9.2,2.7,1.5,4.5.7.9.4,1.6,0,2.5l.3-.2ZM385.8,258.4c0-.4,0-.8-.1-1.2-.1-.9-.2-1.8-.1-2.4,0-.2.1-.4.2-.6.4-.9.9-2.2-.2-3.7-1.1-1.4-1.4-2.9-1.3-3.4.1-.6.8-2,1.1-2.4.5,0,1.4,0,2.1-.4h.4c.5.2,1.3.7,1.8,1.5.9,1.4,1.7,2.7,3,3.5.5.3.9.4,1.2.6.2,0,.5.2.6.3h0s-.2.1-.2.2c-.2.1-.5.3-.7.6-.1.1-.3.4-.6.8-.9,1.2-3.2,4.4-4.3,4.7-.4.1-.6.2-.9.3-.9.3-1.5.5-1.8,1.7h-.2ZM390.2,261.6c-1.2-.4-2.4-.9-3.4-1.5,0-.2.2-.6.3-1.5,0-.3.3-.6.8-.7.3,0,.6-.2,1-.3,1.3-.4,3.2-2.9,4.9-5.2.3-.4.5-.6.6-.7.1-.1.3-.2.4-.3.3-.2.9-.5.9-1.3s-.7-1.2-1.4-1.5c-.3-.1-.7-.3-1-.5-1.1-.6-1.8-1.7-2.6-3-.6-1-1.6-1.9-2.5-2.1-.5-.1-.9-.1-1.3,0-.4.2-1.1.3-1.5.3.1-.4.3-1,.2-1.6v-.8c0-.2.2-.5,0-1-.3-.5-.9-.4-1.2-.3h-.6s0-.4.1-.7c.2-.5.6-.8.9-.9h.2c.3.2.6,1.1.7,1.6v.4h.4c0,.1,1.2.5,1.9-1.1.3-.6,3.5-2.9,5.8-4.1.1,0,.5.1.7.2.4.1.6.2.9.2h.3v-.3c.3-.3.1-.6.1-1h0c.7-1.1.6-2.9.5-3.8,1,.1,1.9.3,2.9.6.4.1.8.2,1.1.4h0c-.2.6-.7,2,.6,2.8.3.2.5.4.6.5.4.4.6.6,1.5.6h.6c-.5.7-1.8,1.7-2.4,2.1,0,0-.2.1-.3.2-.5.3-1.2.7-1.2,1.3s.2.7.7,1c.8.5,1.2.4,1.8.3h.7c.3,0,.6,0,.8-.1,0,.4.3.8,1,1.2.4.2.7.4.9.6.3.2.6.5,1.2.5s.7,0,1-.1h.4c0,.1.2.3.2.4h-1.6c-.4,0-.6,0-1.3-.3-.5-.2-.9-.6-1.3-.9-.6-.5-1.2-1-2-1h-.2s-.2.1-.5,0c-.9-.5-1.6.3-1.9.6h0c0,.2-.3.2-.4.3-.5.2-1.2.5-1.4,1.3v.2c-.5,1.8-.8,3.6-.2,4.5.7,1,2.2,1.6,3,1.6s1.7.6,2.3.8c.1.6.4,2.5.4,3.1s.1.7.2,1c0,.3.2.8.1.9s-1,1.3-.9,2.2c0,.3.2.5.4.6h.2c.9.3,2.7-1.2,3.1-1.8.3-.4.6-.9.8-1.5.4-.8.9-1.8,1.3-2.1l.3-.2c.4-.3.9-.7,1.3-1.1h0c-2.5,8.5-11.5,13.4-20.1,10.9h.2Z"/>
      <path class="st0" d="M309.3,101.5l5.4.7c.7,0,1.5,0,2.1-.6.5-.3.8-.8,1-1.3l10.6,1.4c-5.7,5.5-9.4,11.3-7.4,14,2.7,3.5,13-1.1,21.5-7.6,1.6-1.2,3.1-2.5,4.6-3.9l11.5,1.5c0,.6.2,1.1.6,1.5.5.6,1.1,1,1.9,1.1l5.4.7c.3,0,.6-.2.6-.5l.6-4.5c0-.3-.2-.6-.5-.6l-5.4-.7c-.7,0-1.5,0-2.1.6-.5.3-.8.8-1,1.3l-10.6-1.4c5.7-5.5,9.4-11.3,7.4-14-2.7-3.5-13,1.1-21.5,7.6-1.6,1.2-3.1,2.5-4.6,3.9l-11.5-1.5c0-.6-.2-1.1-.6-1.5-.5-.6-1.1-1-1.9-1.1l-5.4-.7c-.1,0-.3,0-.4,0-.1,0-.2.2-.2.4l-.6,4.5c0,0,0,.3.1.4,0,0,.2.2.4.2ZM359.5,105.3c0-.5.3-.9.7-1.2.4-.3.8-.4,1.3-.3l4.8.6-.5,3.5-4.8-.6c-.5,0-.9-.3-1.2-.7-.3-.4-.4-.8-.3-1.3ZM341.7,107.2c-9.8,7.5-18.2,10.1-20,7.8-1.4-1.9,1.5-7.2,7.9-13.1l2,.3-.5.3c-1.9,1.4-2.2,4.1-.8,5.9,1.4,1.9,4.1,2.2,5.9.8l7.2-5.5,2.1.3c-1.2,1.1-2.5,2.1-3.9,3.2h0ZM343.1,102.6l-8.9-1.2,6.3-4.8c1.4-1.1,3.4-.8,4.4.6,1.1,1.4.8,3.4-.6,4.4l-1.3,1h.1ZM341.9,103.5l-6.3,4.8c-1.4,1.1-3.4.8-4.4-.6-1.1-1.4-.8-3.4.6-4.4l1.3-1,8.9,1.2h-.1ZM334.5,97.8c9.8-7.5,18.2-10.1,20-7.8,1.4,1.9-1.5,7.2-7.9,13.1l-2-.3.5-.3c1.9-1.4,2.2-4.1.8-5.9-1.4-1.9-4.1-2.2-5.9-.8l-7.2,5.5-2.1-.3c1.2-1.1,2.5-2.1,3.9-3.2h0ZM310.4,97l4.8.6c.5,0,.9.3,1.2.7.3.4.4.8.3,1.3,0,.5-.3.9-.7,1.2-.4.3-.8.4-1.3.3l-4.8-.6.5-3.5Z"/>
      <g>
        <path class="st0" d="M362.8,138.2h-.2c-.1,0-.3,0-.4.1,0,0-.2,0-.3.1-.1,0-.2,0-.3.1-.1,0-.2.1-.3.2,0,0-.2.1-.3.2-.1,0-.2.1-.3.2h-.1c-.5.4-1,.9-1.4,1.4h0c-1.7,1.9-3.4,4.8-5.2,8.8-.7,1.5-1.4,3.3-2.1,5.2-1.3-1.1-2.6-1.7-3.9-1.7s-.4,0-.7,0h-.2c-.1,0-.3,0-.4.1h-.3c-.1,0-.2,0-.4.1h0s-.2,0-.2.1c0,0-.1,0-.2.1h0c-.3.2-.5.3-.8.5h-.1c-.1.2-.3.3-.4.4h-.1c-.2.2-.3.3-.5.5-1.8,1.7-3.8,4.5-5.7,8.2-3.4,6.4-5.9,14-6.5,15.9h-2.8v1.2h57.2v-1.2h-3.2c-.2-.8-.6-2.5-1.2-4.7-.7-2.6-1.7-6.5-3-10.7h3.4c1.2,0,2.2-1,2.2-2.2s-1-2.2-2.2-2.2h-2.9c-.2-1-1.1-1.7-2.1-1.7h-.4c-1.1-3.1-2.2-5.9-3.2-8.3-3.4-7.6-6.5-11.3-9.6-11.3s-.4,0-.7,0l-.2.6ZM344.3,155.9c.1-.1.3-.2.4-.4h0c.1-.2.3-.3.4-.4h.1c.2-.2.4-.4.6-.5h.1c0-.1.1-.1.2-.1h0s.2-.1.3-.1h1.1c1.2,0,2.5.7,3.9,2,.1.1.3.3.4.4,0,0,.2.2.2.3.1.1.2.3.4.4,0,.1.2.2.3.3.1.1.2.3.4.5,0,.1.2.2.3.4.1.2.2.3.4.5,0,.1.2.2.3.4.1.2.3.4.4.6,0,.1.2.2.2.4.2.3.4.7.6,1,0,.1.2.3.2.4.1.2.3.5.4.7,0,.2.2.3.3.5,0,.2.2.3.3.5h0c-.2.2-.4.4-.5.6-.7.8-1.3,1.5-2.4,1.5s-1.7-.7-2.4-1.5c-.5-.5-.9-1.1-1.6-1.5-.5-.3-1.1-.4-1.7-.4-1.7,0-2.6,1-3.4,1.9-.7.8-1.3,1.5-2.4,1.5s-1.7-.7-2.4-1.5c-.2-.2-.3-.4-.5-.6h0c1.8-3.4,3.6-5.9,5.3-7.5l-.2-.3ZM332.5,179.1c.7-2.2,3-8.8,5.9-14.6,0,.1.2.2.3.3.8.9,1.6,1.9,3.4,1.9s2.6-1,3.4-1.9c.7-.8,1.3-1.5,2.4-1.5s.8,0,1.1.3c.5.3.9.7,1.3,1.2.8.9,1.6,1.9,3.4,1.9s2.6-1,3.4-1.9c0-.1.2-.2.3-.3,0,.1.1.2.2.4,0,.2.2.3.2.5.1.3.3.6.4.9,0,.1.1.3.2.4.2.4.4.8.6,1.2,0,.1.1.2.2.4.1.3.3.6.4.9,0,.2.1.3.2.5.1.3.2.5.3.8,0,.2.1.3.2.5.1.3.2.6.3.8,0,.1,0,.2.1.4.1.4.3.7.4,1.1,0,.1.1.3.2.4,0,.2.2.5.3.7,0,.2.1.3.2.5,0,.2.1.4.2.6,0,.1.1.3.2.4,0,.2.1.4.2.5,0,.2.2.5.2.7s0,.3.1.4c0,.2.1.3.1.4v.3c0,.1,0,.3.1.4v.2c0,.1,0,.3.1.4h-30.6,0ZM377.7,159.9h0c0,.2,0,.3.2.4.1.1.3.2.4.2h3.4c.5,0,1,.4,1,1s-.4,1-1,1h-8.5c-.5,0-1-.4-1-1s.4-1,1-1h.6c.2,0,.3,0,.4-.2.1-.1.2-.3.2-.4h0c0-.5.4-1,1-1h1.3c.5,0,1,.4,1,.9h0ZM375,157.8c-.2,0-.4,0-.5.2h0c-.2,0-.3.2-.4.3h0c-.1.1-.2.3-.3.4h0c0,.2-.2.3-.2.5h0c-1.2,0-2.2,1-2.2,2.2s1,2.2,2.2,2.2h3.8c1.3,4.3,2.4,8.3,3.1,11,.5,2,.9,3.6,1.1,4.4h-16.8c0-.1,0-.3-.1-.4v-.2c0-.1,0-.2-.1-.4,0-.1,0-.2-.1-.3,0-.1,0-.3-.1-.4,0-.1,0-.2-.1-.4,0-.2-.1-.3-.2-.5,0-.1,0-.3-.1-.4,0-.2-.1-.4-.2-.6,0-.1-.1-.3-.2-.4,0-.2-.2-.5-.3-.7,0-.1,0-.3-.1-.4-.3-.7-.6-1.5-.9-2.4,0-.1,0-.2-.1-.4-.1-.3-.2-.6-.4-.9,0-.2-.1-.3-.2-.5-.1-.3-.2-.6-.4-.8,0-.2-.1-.3-.2-.5-.1-.3-.2-.5-.4-.8,0-.2-.2-.3-.2-.5-.1-.3-.3-.6-.4-.8,0-.2-.2-.3-.2-.5-.1-.3-.3-.6-.4-.9,0-.1-.1-.3-.2-.4-.2-.4-.4-.9-.7-1.3-.2-.4-.4-.8-.7-1.2-.1-.2-.2-.4-.3-.6-.1-.2-.2-.4-.3-.6-.2-.3-.4-.6-.5-.9,0,0,0-.1-.1-.2-1.1-1.8-2.2-3.2-3.3-4.3.6-1.7,1.3-3.3,1.9-4.7h.1c0,.1.1.2.2.3h.1c0,.1.1.2.2.3h.1c0,.1.1.2.2.3,0,0,.1,0,.2.1,0,0,.2,0,.2.1h.2s.2,0,.3.1h1.3c1.7,0,2.6-1,3.4-1.9.7-.8,1.3-1.5,2.4-1.5s.3,0,.5,0c.9.2,1.4.8,2,1.4.8.9,1.6,1.9,3.4,1.9s.4,0,.6,0h.7s.2,0,.3-.1h.2s.2,0,.2-.1c0,0,.1,0,.2-.1,0,0,.1-.1.2-.2h.1c0-.1.1-.2.2-.3h.1c0-.1.2-.3.2-.4h0c.9,2.1,1.8,4.4,2.7,6.9h0l-.7.3ZM371.8,149.6h-.1c-.7.9-1.3,1.6-2.4,1.6s-1.7-.7-2.4-1.5c-.7-.8-1.4-1.6-2.7-1.9h-.7c-1.7,0-2.6,1-3.4,1.9-.7.8-1.3,1.5-2.4,1.5s-1.7-.7-2.4-1.5h-.1c1.7-3.8,3.3-6.5,4.8-8.2h0c.4-.5.8-.9,1.3-1.2h.2c0-.2.2-.2.3-.3,0,0,.1,0,.2-.1,0,0,.2,0,.2-.1,0,0,.2,0,.3-.1h.9c1.7,0,4.5,1.8,8.3,10.2v-.3Z"/>
        <path class="st0" d="M347.3,150.5c1.1,0,2-.7,2.3-1.8h.7c1.3,0,2.4-1.1,2.4-2.4s-1.1-2.4-2.4-2.4h-1.5c-.3-.9-1.1-1.6-2.1-1.6h-1.3c-1,0-1.8.7-2.1,1.6h-2.4c-1.1,0-2,.7-2.3,1.8h-.7c-1.3,0-2.4,1.1-2.4,2.4s1.1,2.4,2.4,2.4h9.4ZM336.7,148.1c0-.6.5-1.2,1.2-1.2h1.2c.3,0,.6-.3.6-.6,0-.6.5-1.2,1.2-1.2h3c.3,0,.6-.3.6-.6,0-.5.4-1,1-1h1.3c.5,0,1,.4,1,1s.3.6.6.6h2c.6,0,1.2.5,1.2,1.2s-.5,1.2-1.2,1.2h-1.2c-.3,0-.6.3-.6.6,0,.6-.5,1.2-1.2,1.2h-9.4c-.6,0-1.2-.5-1.2-1.2h-.1Z"/>
      </g>
      <g>
        <g>
          <path class="st0" d="M427,97.8h-.5c-1.5,0-2.8-.8-3.8-2-1-1.1-1.4-2.6-1.3-4.1s.8-2.8,2-3.8c1.1-1,2.6-1.4,4.1-1.3s2.8.8,3.8,2c2,2.4,1.6,5.9-.7,7.8-1,.8-2.3,1.3-3.6,1.3h0ZM427,88.2c-.9,0-1.8.3-2.6.9-.8.7-1.3,1.7-1.4,2.7s.2,2.1.9,3c.7.8,1.7,1.3,2.7,1.4,1.1,0,2.1-.2,3-.9,1.7-1.4,1.9-4,.5-5.7-.7-.8-1.7-1.3-2.7-1.4h-.4Z"/>
          <path class="st0" d="M390.6,109.8c-2.6,0-5.1-.4-6.2-1.1-.6-.4-.7-.8-.8-1.1-.1-1.8,2.8-2.2,6.3-2.6,1.3-.2,2.4-.3,3.1-.5,1-.3,2-.7,2.9-1.3-1.2.2-2.3.3-3.3.4-.1,0-10.5.6-10.8-2.4,0-.4,0-.8.4-1.1,1-1.1,3.9-1.3,7.5-1.4h1.9c2.4-.2,3.5-.3,7.2-1.4,2.2-.7,4.8-1.7,7.5-2.7,1.1-.4,2.2-.9,3.4-1.3-1.5-.3-3.4-.7-4.4-.7s-2.1,0-3.5.3c-3.5.5-5.8.7-6.5-.3-.2-.2-.4-.7-.1-1.4.9-2.2,9.4-3.8,11.6-3.7h.6c2.9,0,9.6.3,13.5,7.6,1.7,3.2,3.7,4.9,6.4,5.5,1,.2,2.4.4,3.8.5,3.4.3,6,.6,6.1,2.2,0,.3,0,.7-.5,1.1-1.6,1.5-7.6,2.1-11.5,1.7-4.1-.5-7.8-3.6-8.8-4.6-1.1.2-4.5,1.4-6.7,2.2-1.3.5-2.5.9-3.2,1.1-1,.3-2.5,1-4.2,1.8-2.1,1-4.5,2.1-6.5,2.8-1.4.4-3.3.6-5.1.6v-.2ZM385.3,107.5c1.1.7,6.8,1.3,10,.2,1.9-.6,4.3-1.7,6.3-2.7,1.8-.8,3.3-1.6,4.4-1.9.7-.2,1.8-.6,3.1-1.1,3.9-1.4,6.6-2.3,7.4-2.3h.3l.2.2s4,3.9,8.2,4.4c4.1.5,9.3-.4,10.2-1.2-.7-.4-3.1-.6-4.6-.8-1.4,0-2.8-.3-3.9-.5-3.1-.7-5.5-2.7-7.4-6.2-3.5-6.6-9.4-6.7-12.2-6.8h-.6c-2.7,0-9.3,1.6-10.1,2.7.8.2,3.5,0,5-.3,1.5-.2,2.9-.4,3.7-.3,2.2,0,7,1.3,7.2,1.3l2.5.6-2.4.9c-1.9.7-3.9,1.5-5.8,2.2-2.8,1.1-5.3,2.1-7.6,2.8-3.9,1.1-5.1,1.3-7.5,1.5h-2c-1.6,0-5.7.2-6.4.8.7.8,5.8,1.3,9.1,1,2.5-.2,4.5-.4,7.2-1.7l4.6-2.1-3.8,3.4c-2.4,2.1-4.7,3.5-7.1,4.3-.7.2-1.9.4-3.3.6-1.5.2-4.1.5-4.8,1h0Z"/>
          <rect class="st0" x="412.5" y="91.9" width="1" height="1.5" transform="translate(-7.9 137.3) rotate(-18.7)"/>
          <rect class="st0" x="415.6" y="99.5" width="1.5" height="1.7" transform="translate(53.3 327.7) rotate(-45.6)"/>
          <rect class="st0" x="399.8" y="99.7" width="1.1" height="1.5" transform="translate(27.9 278.2) rotate(-39.6)"/>
          <path class="st0" d="M418.2,83c-.5,0-1.1-.2-1.5-.6-.5-.4-.8-1-.8-1.6-.1-1.3.8-2.4,2.1-2.5.6,0,1.2,0,1.7.5s.8,1,.8,1.6-.1,1.2-.5,1.7-1,.8-1.6.8h-.2ZM418.2,80h0c-.2,0-.4,0-.5.3-.1.2-.2.4-.2.6s.1.4.3.5c.2,0,.3.2.6.2s.4,0,.5-.3c.1-.2.2-.4.2-.6s-.1-.4-.3-.5c-.1,0-.3-.2-.5-.2h-.1Z"/>
          <path class="st0" d="M420.6,86.1c-.4,0-.8,0-1.1-.4-.4-.3-.6-.7-.6-1.2s.1-.9.4-1.3.7-.6,1.2-.6c1,0,1.8.6,1.9,1.6h0c0,.9-.6,1.8-1.6,1.9h-.2ZM420.6,84.2h0s-.2,0-.2.2c0,0,.1.2.2.2s.2,0,.2-.2h0c0,0,0-.2-.2-.2Z"/>
          <path class="st0" d="M378.5,117.3v-1.6c.2-1.8-.5-3.3-1.8-3.8l-2.4-1,2.6-.4c3.4-.6,5.7-2.5,7.1-3.9l1.1,1h0s.1,0,.7.3l.8.2-.3.8c-1,3-3,5.4-6.5,7.7l-1.3.9v-.2ZM378.8,111.5c.7.7,1.1,1.7,1.3,2.8,2.2-1.7,3.6-3.4,4.5-5.5-.2,0-.3-.2-.5-.3-1.1,1-2.9,2.2-5.3,3ZM385.1,107.6h0Z"/>
          <path class="st0" d="M375,109l.4-1.3c.4-1.5-.2-3.3-1.3-3.9l-2.8-1.5h3.2c3.5,0,5.7-.9,8-2.5l2.7-1.8-1.6,2.8v.3h1.3c0,0-.5,1.1-.5,1.1-.7,1.5-3,5-8,6.3l-1.3.3v.2ZM376.2,103.8c.5.8.8,1.9.8,3,3-1.1,4.7-3.1,5.5-4.5-.2-.2-.3-.3-.4-.5-1.6.9-3.4,1.7-5.9,2Z"/>
        </g>
        <g>
          <path class="st0" d="M376.4,77.5c-1.5,0-3-.4-4.3-1.2-.8-.5-1.9-.9-3-.9s-.7-.4-.7-.8.4-.7.8-.7c1.4,0,2.7.5,3.7,1.2,2.3,1.5,5.9,1.2,8-.7,2.6-2.4,6.9-2.7,9.8-.8.9.6,2,.9,3.1,1,1.8,0,3.5-.5,4.7-1.5l.2-.2c2.6-2.4,6.9-2.7,9.8-.8,2.1,1.3,5.2,1.3,7.3-.2.2-.2.5-.3.7-.5,2.6-2.4,6.9-2.7,9.8-.8,2.3,1.5,5.9,1.2,8-.7.3-.3.8-.3,1.1,0,.3.3.3.8,0,1.1-2.6,2.4-6.9,2.7-9.8.8-2.3-1.5-5.9-1.2-8,.7-.3.2-.5.5-.8.7-2.6,1.8-6.4,1.8-9,.2-2.3-1.5-5.7-1.2-7.8.5l-.2.2c-1.5,1.4-3.7,2.2-6,2-1.4,0-2.8-.5-3.9-1.2-2.3-1.5-5.9-1.2-8,.7-1.5,1.4-3.5,2.1-5.5,2.1v-.2Z"/>
          <path class="st0" d="M378,73.1c-1.5,0-3-.4-4.3-1.2-.8-.5-1.9-.9-3-1-.4,0-.7-.4-.7-.8s.4-.7.8-.7c1.4,0,2.7.5,3.7,1.2,2.3,1.5,5.9,1.2,8-.7,2.6-2.4,6.9-2.7,9.8-.8.9.6,2,.9,3.1,1,1.8,0,3.5-.5,4.7-1.5l.2-.2c2.6-2.4,6.9-2.7,9.8-.8,2.1,1.3,5.2,1.3,7.3-.2.2-.2.5-.3.7-.5,2.6-2.4,6.9-2.7,9.8-.8,2.3,1.5,5.9,1.2,8-.7.3-.3.8-.3,1.1,0,.3.3.3.8,0,1.1-2.6,2.4-6.9,2.7-9.8.8-2.3-1.5-5.9-1.2-8,.7-.3.2-.5.5-.8.7-2.6,1.8-6.4,1.9-9,.2-2.3-1.5-5.7-1.2-7.8.5l-.2.2c-1.5,1.4-3.7,2.1-6,2-1.4,0-2.8-.5-3.9-1.2-2.3-1.5-5.9-1.2-8,.7-1.5,1.4-3.5,2.1-5.5,2.1h0Z"/>
        </g>
      </g>
      <g>
        <path class="st0" d="M378.7,342.1h-.2c-.4,0-.7-.3-1-.7-.3-.4-.5-1.1-.2-2.2.6-2.4,3.5-5.2,5.7-6.4,1.9-1,4.5-1.5,6.4-1.8.8-.1,1.7-.3,2.1-.4.6-1.1.5-7.4.1-8.3-.2-.2-.9-.4-1.7-.7-.9-.3-2.1-.6-3.4-1.2-1.5-.8-6-3.7-6.2-5.6,0-.5.2-.9.6-1.2,1.2-.8,2.7-.1,4.5.7.9.4,1.9.9,3,1.2,1,.3,2.2.5,3.4.7,2.6.4,5.3.8,6.8,2.5,2.3,2.6,2.3,14.4-.6,17.4-1.7,1.8-3.8,1.7-6,1.5-1.9-.2-4-.3-6.4.6-2.7,1-4.2,2.2-5.2,3-.7.6-1.2.9-1.8.9h.1ZM392.9,321.4c.8,1.1.7,6.9.3,9-.2.9-.4,1.3-.8,1.5-.4.3-1.2.4-2.6.7-1.8.3-4.3.8-6,1.7-2.1,1.1-4.5,3.7-4.9,5.4,0,.3-.1.7,0,.9.2-.1.5-.3.8-.6,1-.8,2.7-2.1,5.6-3.2,2.8-1,5.1-.8,7.1-.7,2.1.2,3.6.3,4.8-1,2.5-2.6,2.1-13.6.5-15.4-1.1-1.3-3.5-1.6-5.9-2-1.3-.2-2.6-.4-3.7-.7-1.2-.4-2.2-.8-3.2-1.3-1.2-.5-2.4-1.1-2.9-.9.4.8,3,3,5.3,4.2,1.1.6,2.2.9,3.1,1.1,1.1.3,2,.6,2.5,1.2h0Z"/>
        <path class="st0" d="M396.5,316c-.4,0-.8,0-1.2-.1-1.5-.3-2.7-1.2-3.5-2.4-.8-1.2-1.1-2.7-.8-4.2.3-1.5,1.2-2.7,2.4-3.5,1.2-.8,2.7-1.1,4.2-.8,1.5.3,2.7,1.2,3.5,2.4.8,1.2,1.1,2.7.8,4.2-.3,1.5-1.2,2.7-2.4,3.5h0c-.9.6-2,.9-3,.9ZM396.5,306.4c-.8,0-1.5.2-2.2.7-.9.6-1.5,1.5-1.8,2.5-.2,1.1,0,2.1.6,3s1.5,1.5,2.5,1.8c1.1.2,2.1,0,3-.6h0c.9-.6,1.5-1.5,1.8-2.5.2-1.1,0-2.1-.6-3s-1.5-1.5-2.5-1.8h-.9.1Z"/>
        <g>
          <path class="st0" d="M388.9,360.2c-.6,0-1.2,0-1.9-.2-2.7-.5-5.1-2-6.7-4.3s-2.2-5-1.7-7.7,2-5.1,4.3-6.7,5-2.2,7.7-1.7,5.1,2,6.7,4.3,2.2,5,1.7,7.7h0c-.5,2.7-2,5.1-4.3,6.7-1.8,1.2-3.8,1.9-5.9,1.9h0ZM388.8,341c-1.8,0-3.5.5-5,1.6-1.9,1.3-3.2,3.4-3.6,5.7s0,4.7,1.4,6.6c1.3,1.9,3.4,3.2,5.7,3.6,2.3.4,4.7,0,6.6-1.4,1.9-1.3,3.2-3.4,3.6-5.7h0c.9-4.8-2.3-9.4-7.1-10.2-.5,0-1.1-.1-1.6-.1h0Z"/>
          <rect class="st0" x="385" y="344.6" width="9.6" height="1.5" transform="translate(-26.3 658.5) rotate(-78.5)"/>
        </g>
        <g>
          <path class="st0" d="M371.4,333.8c-.6,0-1.2,0-1.9-.2-2.7-.5-5.1-2-6.7-4.3s-2.2-5-1.7-7.7,2-5.1,4.3-6.7,5-2.2,7.7-1.7,5.1,2,6.7,4.3,2.2,5,1.7,7.7h0c-.5,2.7-2,5.1-4.3,6.7-1.8,1.2-3.8,1.9-5.9,1.9h0ZM371.3,314.6c-1.8,0-3.5.5-5,1.6-1.9,1.3-3.2,3.4-3.6,5.7s0,4.7,1.4,6.6c1.3,1.9,3.4,3.2,5.7,3.6,4.8.9,9.4-2.3,10.2-7.1h0c.4-2.3,0-4.7-1.4-6.6-1.3-1.9-3.4-3.2-5.7-3.6-.5,0-1.1-.1-1.6-.1h0Z"/>
          <rect class="st0" x="371.3" y="321.4" width="9.6" height="1.5" transform="translate(-66.8 100.6) rotate(-14)"/>
        </g>
        <path class="st0" d="M382.6,331.4l-1.5-.5c.2-.5,1.7-5.1,3.8-6.5,2.4-1.6,5.5,1.3,5.6,1.5l-1.1,1.1s-2.3-2.2-3.7-1.3c-1.4.9-2.7,4.4-3.1,5.7h0Z"/>
        <path class="st0" d="M386.6,330.8l-1.3-.9c.4-.6,1.2-1.1,1.9-1.2.6,0,1.1,0,1.5.4l-.9,1.2h-.3c-.3,0-.6.3-.8.6h-.1Z"/>
      </g>
      <g>
        <g>
          <path class="st0" d="M427.2,265.1c-2.5,0-4.6-2-4.6-4.6s2-4.6,4.6-4.6,4.6,2,4.6,4.6-2,4.6-4.6,4.6ZM427.2,257.5c-1.7,0-3,1.4-3,3s1.4,3,3,3,3-1.4,3-3-1.4-3-3-3Z"/>
          <path class="st0" d="M434.2,280.5c-.6,0-1-.3-1.3-.7,0,.1-.2.3-.4.3-1.6.9-7.8-2.8-7.9-2.9-3.4-2.1-5.1-4.6-5.1-7.5s1.4-3.9,3.8-4.2c2.1-.3,3.7-.2,6.9,0,3.3.2,5.7,4.3,6,7.9.2,2,0,5.3-1,6.5-.4.4-.8.5-1.1.5h.1ZM430.9,269.3c1.3,0,2.6,3.6,2.8,4.6.2.9.2,2,.3,2.9,0,.7,0,1.8.2,2.1.4-.5.8-2.8.6-5.3-.3-2.9-2.2-6.3-4.6-6.5-3-.2-4.6-.3-6.6,0-1.7.2-2.5,1.1-2.5,2.7,0,2.4,1.4,4.4,4.3,6.2,1.9,1.2,4.4,2.3,5.7,2.7-.9-1-3-2.5-4-3.3l-.7-.5c-2-1.4-3.2-3.4-3.6-4.1h0c-.3-.6-.3-1.2,0-1.6l1.4.7h0c0-.1,0,0,.1.1.4.6,1.5,2.4,3.2,3.6l.7.5c.5.4,1,.8,1.5,1.1,0-5.8.7-5.9,1.4-5.9h-.2ZM431.1,276.5c.6.5,1.1,1,1.4,1.4v-1c0-.9,0-1.8-.2-2.6-.2-.9-.7-1.9-1.1-2.6-.1,1.2-.2,3.1-.1,4.8h0Z"/>
          <path class="st0" d="M422.7,295.5c-.4,0-.7-.2-1-.4-.8-.9-.7-3.4-.3-6.4,0-.4,0-.7.1-1v-1.4c.3-2,.4-3.2.5-5.2v-6.5h1.5v6.6c0,2.1-.2,3.3-.4,5.3v1.4c-.2.3-.2.7-.2,1-.1,1.2-.5,4.3-.1,5.1.7-.5,1.9-3.3,2.4-5.5.4-1.7.8-5.4.8-5.5v-.7h.8c1.1,0,2.6,3.5,3,5.7.1.7.2,1.3.3,2,.2,1.2.5,3.2.9,3.5.4-.5,1-2.6.6-5.6-.2-1.5-.6-2.6-1-3.7-.5-1.4-1.1-2.9-1.1-5.1h1.5c0,2,.5,3.3,1,4.6.4,1.2.9,2.4,1.1,4.1.3,2.9-.2,5.8-1.1,6.9-.3.4-.7.5-1,.5-1.8,0-2.2-2.4-2.6-4.9,0-.6-.2-1.3-.3-1.9-.2-1.2-.7-2.3-1-3.2-.2,1.2-.4,2.6-.6,3.6,0,0-1.5,6.8-4,6.8h.2Z"/>
          <path class="st0" d="M439.4,297h-30.3v-4.6h10.6v1.5h-9v1.5h28.8c1.7,0,3.4-.3,5-.8l1.1-.4v-1.4l-.6.2c-1.8.6-3.6.9-5.5.9h-5.1v-1.5h5.1c1.7,0,3.4-.3,5-.8l2.6-.9v4.6l-2.1.7c-1.8.6-3.6.9-5.5.9h-.1Z"/>
          <rect class="st0" x="426.4" y="292.4" width="1.8" height="1.5"/>
        </g>
        <path class="st0" d="M447.3,283.1h-15.1l5.9-2.8,2.8,1.8h6.4v1h0ZM436.7,282.1h2.3l-1-.6-1.4.6h.1Z"/>
        <path class="st0" d="M408,289c-1.4,0-2.7-.4-3.8-1.2-.6-.5-1.5-.8-2.3-1v-1c1.2.2,2.2.6,3,1.2,1.8,1.4,4.7,1.4,6.4,0,2.1-1.7,5.5-1.7,7.7,0,.4.3.8.5,1.3.7l-.3,1c-.6-.2-1.1-.5-1.6-.9-1.8-1.4-4.7-1.4-6.4,0-1.1.8-2.5,1.3-3.9,1.3h-.1Z"/>
        <path class="st0" d="M436.1,288.8h-.4v-1c1.1,0,2.2-.2,3-.7.2-.1.4-.2.6-.4,2.1-1.7,5.5-1.7,7.7,0,1.8,1.4,4.7,1.4,6.4,0l.6.8c-2.1,1.7-5.5,1.7-7.7,0-1.8-1.4-4.7-1.4-6.4,0-.2.2-.4.3-.7.5-.9.5-2,.8-3.2.8h.1Z"/>
        <path class="st0" d="M408.1,301.9c-1.4,0-2.7-.4-3.8-1.2-.7-.5-1.6-.9-2.6-1v-1c1.3.1,2.4.5,3.2,1.2,1.8,1.4,4.7,1.3,6.4,0,2.1-1.7,5.5-1.7,7.7,0,.7.5,1.5.8,2.4,1,1.4.2,2.8-.2,3.9-.9h.1c2.1-1.8,5.5-1.8,7.7-.1,1.6,1.2,4,1.4,5.8.3.2-.1.4-.2.6-.4,2.1-1.7,5.5-1.7,7.7,0,1.8,1.4,4.7,1.4,6.4,0l.6.8c-2.1,1.7-5.5,1.7-7.7,0-1.8-1.4-4.7-1.4-6.4,0-.2.2-.4.3-.7.5-2.1,1.2-5.1,1-7-.4-1.7-1.3-4.5-1.4-6.3,0h-.1c-1.2,1.1-3,1.5-4.7,1.3-1.1-.1-2.1-.5-2.9-1.2-1.8-1.4-4.7-1.4-6.4,0-1.1.8-2.5,1.3-3.9,1.3v-.2Z"/>
        <path class="st0" d="M414.7,306.8c-1.4,0-2.7-.4-3.8-1.2-.7-.5-1.6-.9-2.6-1v-1c1.3.1,2.4.5,3.2,1.2,1.8,1.4,4.7,1.3,6.4,0,2.1-1.7,5.5-1.7,7.7,0,.7.5,1.5.8,2.4,1,1.4.2,2.8-.2,3.9-.9h.1c2.1-1.8,5.5-1.8,7.7-.1,1.6,1.2,4,1.4,5.8.3.2-.1.4-.2.6-.4,2.1-1.7,5.5-1.7,7.7,0,1.8,1.4,4.7,1.4,6.4,0l.6.8c-2.1,1.7-5.5,1.7-7.7,0-1.8-1.4-4.7-1.4-6.4,0-.2.2-.4.3-.7.5-2.1,1.2-5.1,1-7-.4-1.7-1.3-4.5-1.4-6.3,0h-.1c-1.2,1.1-3,1.5-4.7,1.3-1.1-.1-2.1-.5-2.9-1.2-1.8-1.4-4.7-1.4-6.4,0-1.1.8-2.5,1.3-3.9,1.3v-.2Z"/>
        <path class="st0" d="M414.5,312.2c-1.4,0-2.7-.4-3.8-1.2-.7-.5-1.6-.9-2.6-1v-1c1.3.1,2.4.5,3.2,1.2,1.8,1.4,4.7,1.3,6.4,0,2.1-1.7,5.5-1.7,7.7,0,.7.5,1.5.8,2.4,1,1.4.2,2.8-.2,3.9-.9h.1c2.1-1.8,5.5-1.8,7.7-.1,1.6,1.2,4,1.4,5.8.3.2-.1.4-.2.6-.4,2.1-1.7,5.5-1.7,7.7,0,1.8,1.4,4.7,1.4,6.4,0l.6.8c-2.1,1.7-5.5,1.7-7.7,0-1.8-1.4-4.7-1.4-6.4,0-.2.2-.4.3-.7.5-2.1,1.2-5.1,1-7-.4-1.7-1.3-4.5-1.4-6.3,0h-.1c-1.2,1.1-3,1.5-4.7,1.3-1.1-.1-2.1-.5-2.9-1.2-1.8-1.4-4.7-1.4-6.4,0-1.1.8-2.5,1.3-3.9,1.3v-.2Z"/>
        <path class="st0" d="M408,295.4c-1.4,0-2.8-.4-3.8-1.2-.6-.5-1.5-.8-2.3-1v-1c1.2.2,2.2.6,3,1.2.9.7,2,1,3.2,1v1h-.1Z"/>
        <path class="st0" d="M450.2,295.2c-.5,0-1.1,0-1.6-.2l.2-1c1.6.4,3.4,0,4.6-.9l.6.8c-1,.8-2.4,1.3-3.9,1.3h0Z"/>
      </g>
      <g>
        <path class="st0" d="M451.4,293.7l-.3-.2c-.2,0-4.4-2.3-4.9-4.9-.1-.6,0-1.2.3-1.7.3-.6.9-1,1.6-1.2,2.4-.7,6.3,1.4,6.5,1.5l.3.2v.4c-.2.5-.3,1-.5,1.4h0c-.6,1.6-1.5,3-2.7,4.3l-.3.3h0ZM449.1,286.5c-.3,0-.6,0-.8.1-.4.1-.8.4-1,.8-.2.3-.2.7-.2,1.1.3,1.6,2.8,3.3,4,4,1-1.1,1.7-2.3,2.2-3.6h0c.1-.3.2-.6.3-.9-1-.5-3-1.4-4.6-1.4h.1Z"/>
        <rect class="st0" x="439.1" y="274.7" width="1" height="16.7" transform="translate(-19.4 533.5) rotate(-61.4)"/>
      </g>
    </g>
    <g>
      <path class="st0" d="M344.5,449.4l-13,52.5h-10l-12.9-52.5h10.9l7,42.7,7-42.7h11Z"/>
      <path class="st0" d="M362.5,492.6h-10.2l-1.5,9.4h-10.3l12.3-52.5h9.3l12.3,52.5h-10.3l-1.6-9.4h0ZM361.3,485.6l-4-23.9-3.9,23.9h7.9Z"/>
      <path class="st0" d="M410.1,449.4v52.5h-8.6l-12.7-31.7v31.7h-10v-52.5h8.6l12.7,31.3v-31.3h10Z"/>
      <path class="st0" d="M460,475.7c0,16.8-11.2,25.7-32.4,26.2h-9.6v-52.5h9.6c21.1.5,32.4,9.4,32.4,26.2h0ZM449.5,475.7c0-10.8-4.6-20.7-21.6-20.7v41.3c16.9,0,21.6-9.9,21.6-20.6h0Z"/>
      <path class="st0" d="M482.2,484.9c-1.8.5-3.8.9-5.8,1.2v15.8h-10v-52.5h10c11.2,0,22.4,3.2,21.6,17.9-.5,6.5-3.6,11.2-8.4,14.2l11.7,20.3h-9.7l-9.3-17h-.1ZM476.3,480.2c6.2-1.5,10.3-5.2,11.2-11.8.8-7.4-2.2-11.8-11.2-12.8v24.7h0Z"/>
      <path class="st0" d="M516.4,456.5v15.7h13.9v7h-13.9v15.7h15.8v7h-25.8v-52.5h25.8v7h-15.8ZM520.7,435.9h7.6l-5,9.8h-5.3l2.8-9.8h0Z"/>
    </g>
    <g>
      <path class="st0" d="M343.7,526.7c-1,1.3-4.4,4.4-9,3.5-4.9-1-6.7-4.5-7.6-7.9h-2.3l-.3,2h-2.2l2.7-11.4h2s1.4,6.3,1.6,7.1c.9,4.4,2.5,8.2,6.2,9.1,3.8.9,6.8-2.2,7.5-3.9l1.6,1.4h-.2ZM325,520.7h1.8l-.9-5.2-.9,5.2Z"/>
      <path class="st0" d="M344.6,517.8v6.4h-2v-.5c-.7.4-1.6.6-2.5.6-3.1,0-5.5-2.6-5.5-5.8s2.4-5.8,5.5-5.8,3.1.7,4,1.7l-1.3,1.4c-.5-1.1-1.6-1.9-2.7-1.9-1.9,0-3.1,2-3.1,4.5s1.2,4.5,3.1,4.5,2-.7,2.5-1.8v-2h-1.8v-1.5h3.8v.2Z"/>
      <path class="st0" d="M352.7,514.4v3.4h3v1.5h-3v3.4h3.4v1.5h-5.6v-11.4h5.6v1.5h-3.4ZM354.2,512.1l-.8-1.2-.8,1.2h-1.7l1.8-2.1h1.6l1.8,2.1h-1.9Z"/>
      <path class="st0" d="M368.7,512.9v11.4h-1.9l-2.7-6.9v6.9h-2.2v-11.4h1.9l2.7,6.8v-6.8h2.2Z"/>
      <path class="st0" d="M382.2,521.4l1.3,1.4c-.9,1-2.3,1.7-3.8,1.7-3.1,0-5.5-2.6-5.5-5.8s2.4-5.8,5.5-5.8,2.9.7,3.8,1.7l-1.3,1.4c-.5-1.1-1.4-1.9-2.5-1.9-1.9,0-3.1,2-3.1,4.5s1.2,4.5,3.1,4.5,2-.7,2.5-1.8h0Z"/>
      <path class="st0" d="M391,512.9v11.4h-2.2v-11.4h2.2Z"/>
      <path class="st0" d="M400.9,522.2h-2.2l-.3,2h-2.2l2.7-11.4h2l2.7,11.4h-2.2l-.3-2h-.2ZM400.6,520.7l-.9-5.2-.8,5.2h1.7,0Z"/>
      <path class="st0" d="M425.7,518.6c0,3.6-2.4,5.6-7,5.7h-2.1v-11.4h2.1c4.6,0,7,2,7,5.7ZM423.4,518.6c0-2.3-1-4.5-4.7-4.5v8.9c3.7,0,4.7-2.1,4.7-4.5h0Z"/>
      <path class="st0" d="M433.6,514.4v3.4h3v1.5h-3v3.4h3.4v1.5h-5.6v-11.4h5.6v1.5h-3.4Z"/>
      <path class="st0" d="M455.8,512.9v1.5h-1.7v9.8h-2.2v-9.8h-1.7v-1.5h5.6Z"/>
      <path class="st0" d="M468.6,512.9v8.1c0,2.2-1.2,3.5-3.5,3.5s-3.5-1.3-3.5-3.5v-8.1h2.2v8.1c0,1.9.6,2.1,1.4,2.1s1.4-.3,1.4-2.1v-8.1h2.2-.2Z"/>
      <path class="st0" d="M478,520.6c-.4,0-.8.2-1.3.3v3.4h-2.2v-11.4h2.2c2.4,0,4.9.7,4.7,3.9,0,1.4-.8,2.4-1.8,3.1l2.5,4.4h-2.1l-2-3.7h0ZM476.8,519.6c1.3-.3,2.2-1.1,2.4-2.6.2-1.6-.5-2.5-2.4-2.8v5.3h0Z"/>
      <path class="st0" d="M489.7,512.9v11.4h-2.2v-11.4h2.2Z"/>
      <path class="st0" d="M495.2,522.5c.4.3,2.5,1.1,2.5-.5s-2.5-4-2.5-6.5.8-3.3,4.4-2.5v1.4c-1.4-.6-2.2,0-2.2.8,0,2.2,2.3,3.4,2.5,5.9.4,4.4-4.4,3.2-4.7,3v-1.7h0Z"/>
      <path class="st0" d="M516.5,512.9v11.4h-2.2v-7.3l-2.5,5.2h-1.4l-2.5-5.2v7.3h-2.2v-11.4h1.9l3.4,7.4,3.5-7.4h2Z"/>
      <path class="st0" d="M533.2,518.6c0,3.2-2.4,5.8-5.5,5.8s-5.5-2.6-5.5-5.8,2.4-5.8,5.5-5.8,5.5,2.6,5.5,5.8ZM530.8,518.6c0-2.5-1.2-4.5-3.1-4.5s-3.1,2-3.1,4.5,1.2,4.5,3.1,4.5,3.1-2,3.1-4.5Z"/>
    </g>
    <g>
      <path class="st0" d="M354.7,427.5v1.9h-1.9v9.7h-2.7v-9.7h-1.9v-1.9h6.5Z"/>
      <path class="st0" d="M373.9,427.5v7.4c0,2.7-1.1,4.4-4.2,4.4s-4.2-1.6-4.2-4.4v-7.4h2.7v7.4c0,2.3.4,2.7,1.4,2.7s1.4-.4,1.4-2.7v-7.4h2.9Z"/>
      <path class="st0" d="M389.5,435.7c-.4,0-.9.2-1.4.2v3.1h-2.7v-11.5h2.4c1.5,0,5.7-.2,5.5,4.2,0,1.6-.8,2.6-1.8,3.3l2.3,4.1h-2.5l-1.8-3.3h0ZM388.1,434.4c1.3-.2,2.2-.8,2.4-2.5.2-1.8-.8-2.6-2.4-2.8v5.3Z"/>
      <path class="st0" d="M417,427.5v11.5h-2.7v-7.5l-2.8,5h-1.6l-2.8-5v7.5h-2.7v-11.5h2.5l3.8,6.9,3.8-6.9h2.5Z"/>
      <path class="st0" d="M432.7,436.8h-2.1l-.3,2.2h-2.8l2.6-11.5h3.2l2.5,11.5h-2.7l-.3-2.2h-.1ZM432.4,434.9l-.8-5.2-.8,5.2h1.6,0Z"/>
      <path class="st0" d="M463.3,427.5c4,0,6.9,2.1,6.9,5.7s-2.9,5.8-6.9,5.8h-2.7v-11.5h2.7ZM467.7,433.3c0-2.4-1.5-4.6-4.4-4.6v9.1c2.9,0,4.4-2.2,4.4-4.6h0Z"/>
      <path class="st0" d="M493.1,433.2c0,3.5-2.5,6-6,6s-6-2.5-6-6,2.5-6,6-6,6,2.5,6,6ZM490.3,433.2c0-2.6-1.3-4.6-3.2-4.6s-3.2,2-3.2,4.6,1.3,4.6,3.2,4.6,3.2-2,3.2-4.6Z"/>
    </g>
  </g>
</svg>